<svg width="52" height="52" viewBox="0 0 52 52" fill="none" xmlns="http://www.w3.org/2000/svg">
<circle cx="26" cy="26" r="26" fill="#9898ED"/>
<path d="M23.9427 11.9326C24.7432 10.9392 26.2568 10.9392 27.0573 11.9326L31.0824 16.9278C31.3048 17.2038 31.5964 17.4157 31.9275 17.5418L37.9221 19.8264C39.1143 20.2807 39.582 21.7202 38.8846 22.7886L35.3777 28.1603C35.184 28.457 35.0726 28.7998 35.0549 29.1537L34.7346 35.5609C34.6709 36.8351 33.4464 37.7248 32.2148 37.3916L26.0223 35.7163C25.6802 35.6238 25.3198 35.6238 24.9777 35.7163L18.7852 37.3916C17.5536 37.7248 16.3291 36.8351 16.2654 35.5608L15.9451 29.1537C15.9274 28.7998 15.816 28.457 15.6223 28.1603L12.1154 22.7886C11.418 21.7202 11.8857 20.2807 13.0779 19.8264L19.0725 17.5418C19.4036 17.4157 19.6952 17.2038 19.9176 16.9278L23.9427 11.9326Z" fill="#EBE9FF"/>
</svg>
