<svg width="140" height="76" viewBox="0 0 140 76" fill="none" xmlns="http://www.w3.org/2000/svg">
<path d="M35.8466 19.4293C36.6404 18.263 38.3596 18.263 39.1534 19.4293L47.425 31.5825C47.8277 32.1742 48.5158 32.5056 49.2295 32.4515L63.8885 31.3411C65.2952 31.2345 66.3672 32.5787 65.9503 33.9264L61.6057 47.9709C61.3942 48.6546 61.5642 49.3992 62.0514 49.9235L72.0593 60.692C73.0197 61.7254 72.6372 63.4016 71.3235 63.9159L57.6344 69.2758C56.9679 69.5367 56.4917 70.1339 56.3856 70.8416L54.2063 85.3803C53.9971 86.7754 52.4481 87.5214 51.227 86.815L38.5014 79.4542C37.8819 79.0959 37.1181 79.0959 36.4986 79.4542L23.773 86.815C22.5519 87.5214 21.0029 86.7754 20.7937 85.3803L18.6144 70.8416C18.5083 70.1339 18.0321 69.5367 17.3656 69.2758L3.67648 63.9159C2.36284 63.4016 1.98027 61.7254 2.94065 60.692L12.9486 49.9235C13.4358 49.3992 13.6058 48.6546 13.3943 47.9709L9.04973 33.9264C8.63282 32.5787 9.70475 31.2345 11.1115 31.3411L25.7705 32.4515C26.4842 32.5056 27.1723 32.1742 27.575 31.5825L35.8466 19.4293Z" fill="#FFDBD4"/>
<path d="M120.057 6.07627C121.08 5.31341 122.546 5.69028 123.074 6.8518L126.47 14.3235C126.617 14.646 126.847 14.9239 127.136 15.1285L133.836 19.8688C134.877 20.6057 134.972 22.1163 134.03 22.9774L127.974 28.5162C127.712 28.7553 127.519 29.0597 127.414 29.398L124.976 37.2349C124.597 38.4532 123.19 39.0099 122.08 38.3805L114.94 34.3321C114.632 34.1573 114.283 34.0675 113.929 34.072L105.722 34.1751C104.446 34.1912 103.482 33.0247 103.737 31.7746L105.382 23.7337C105.453 23.3866 105.43 23.0268 105.316 22.6912L102.682 14.9181C102.273 13.7097 103.084 12.432 104.352 12.2888L112.507 11.3677C112.86 11.3279 113.195 11.1953 113.479 10.9835L120.057 6.07627Z" fill="#FFB8B8"/>
<g clip-path="url(#clip0_3705_4380)">
<path d="M102.895 35.8922L96.3294 14.6223C95.4911 11.9066 92.623 10.3887 89.9233 11.2319L60.5044 20.4209C57.8047 21.2642 56.2957 24.1493 57.134 26.865L63.6995 48.1349C64.5378 50.8506 67.4059 52.3685 70.1056 51.5253L99.5245 42.3362C102.224 41.493 103.733 38.6079 102.895 35.8922Z" fill="#FFEAD8"/>
<path d="M100.079 25.457H57.9344C54.6569 25.457 52 28.1297 52 31.4267V62.031C52 65.3279 54.6569 68.0006 57.9344 68.0006H100.079C103.356 68.0006 106.013 65.3279 106.013 62.031V31.4267C106.013 28.1297 103.356 25.457 100.079 25.457Z" fill="#FFCEB7"/>
<path d="M88.5806 39.7628H107.027C108.115 39.7628 109 40.6533 109 41.7477V51.2245C109 52.5875 107.902 53.6919 106.547 53.6919H88.5806C85.7667 53.6919 83.4819 51.3936 83.4819 48.563V44.8867C83.4819 42.0561 85.7667 39.7578 88.5806 39.7578V39.7628Z" fill="#FFB89F"/>
<path d="M90.7074 50.7968C92.9415 50.7968 94.7527 48.9749 94.7527 46.7275C94.7527 44.4801 92.9415 42.6582 90.7074 42.6582C88.4732 42.6582 86.6621 44.4801 86.6621 46.7275C86.6621 48.9749 88.4732 50.7968 90.7074 50.7968Z" fill="#FFEAD8"/>
</g>
<defs><clipPath id="clip0_3705_4380"><rect width="57" height="57" fill="white" transform="translate(52 11)"/></clipPath></defs>
</svg>