<svg preserveAspectRatio="none" width="100%" height="100%" overflow="visible" style="display: block;" viewBox="0 0 434.08 309.96" fill="none" xmlns="http://www.w3.org/2000/svg">
<g id="Group">
<path id="Vector" d="M434.08 0H0.00341797V18.4869H434.08V0Z" fill="var(--fill-0, #FFF8F5)"/>
<path id="Vector_2" d="M228.266 18.4869H205.235V309.96H228.266V18.4869Z" fill="url(#paint0_linear_0_61)"/>
<path id="Vector_3" d="M113.846 18.4869H90.8149V309.96H113.846V18.4869Z" fill="url(#paint1_linear_0_61)"/>
<path id="Vector_4" d="M342.687 18.4869H319.656V309.96H342.687V18.4869Z" fill="url(#paint2_linear_0_61)"/>
<g id="Group_2">
<path id="Vector_5" d="M45.6948 18.4869H0V48.6623C0 31.9959 20.4572 18.4869 45.6948 18.4869Z" fill="var(--fill-0, #FFF8F5)"/>
<path id="Vector_6" d="M45.6948 18.4869C70.9323 18.4869 91.3896 31.9959 91.3896 48.6623V18.4869H45.6948Z" fill="var(--fill-0, #FFF8F5)"/>
</g>
<g id="Group_3">
<path id="Vector_7" d="M159.541 18.4869H113.846V48.6623C113.846 31.9959 134.303 18.4869 159.541 18.4869Z" fill="var(--fill-0, #FFF8F5)"/>
<path id="Vector_8" d="M159.541 18.4869C184.778 18.4869 205.236 31.9959 205.236 48.6623V18.4869H159.541Z" fill="var(--fill-0, #FFF8F5)"/>
</g>
<g id="Group_4">
<path id="Vector_9" d="M273.961 18.4869H228.267V48.6623C228.267 31.9959 248.724 18.4869 273.961 18.4869Z" fill="var(--fill-0, #FFF8F5)"/>
<path id="Vector_10" d="M273.961 18.4869C299.199 18.4869 319.656 31.9959 319.656 48.6623V18.4869H273.961Z" fill="var(--fill-0, #FFF8F5)"/>
</g>
<g id="Group_5">
<path id="Vector_11" d="M388.382 18.4869H342.687V48.6623C342.687 31.9959 363.144 18.4869 388.382 18.4869Z" fill="var(--fill-0, #FFF8F5)"/>
<path id="Vector_12" d="M388.382 18.4869C413.619 18.4869 434.077 31.9959 434.077 48.6623V18.4869H388.382Z" fill="var(--fill-0, #FFF8F5)"/>
</g>
<path id="Vector_13" d="M434.08 5.9844H0.00341797V9.79221H434.08V5.9844Z" fill="var(--fill-0, #FFDCC5)"/>
</g>
<defs>
<linearGradient id="paint0_linear_0_61" x1="216.751" y1="18.4869" x2="216.751" y2="309.96" gradientUnits="userSpaceOnUse">
<stop stop-color="#FFF8F5"/>
<stop offset="0.663462" stop-color="#FBEAE3"/>
</linearGradient>
<linearGradient id="paint1_linear_0_61" x1="102.33" y1="18.4869" x2="102.33" y2="309.96" gradientUnits="userSpaceOnUse">
<stop stop-color="#FFF8F5"/>
<stop offset="0.663462" stop-color="#FBEAE3"/>
</linearGradient>
<linearGradient id="paint2_linear_0_61" x1="331.172" y1="18.4869" x2="331.172" y2="309.96" gradientUnits="userSpaceOnUse">
<stop stop-color="#FFF8F5"/>
<stop offset="0.663462" stop-color="#FBEAE3"/>
</linearGradient>
</defs>
</svg>
