<svg width="250" height="250" viewBox="0 0 250 250" fill="none" xmlns="http://www.w3.org/2000/svg">
<path d="M141.799 6.75L172.879 36.59C174.099 37.76 175.579 38.62 177.199 39.09L218.589 51.08C231.059 54.69 238.459 67.51 235.359 80.12L225.049 121.96C224.649 123.6 224.649 125.31 225.049 126.95L235.359 168.79C238.469 181.4 231.069 194.22 218.589 197.83L177.199 209.82C175.579 210.29 174.099 211.15 172.879 212.32L141.799 242.16C132.429 251.16 117.629 251.16 108.269 242.16L77.1889 212.32C75.9689 211.15 74.4889 210.29 72.8689 209.82L31.4789 197.83C19.0089 194.22 11.6089 181.4 14.7089 168.79L25.0189 126.95C25.4189 125.31 25.4189 123.6 25.0189 121.96L14.7089 80.12C11.5989 67.51 18.9989 54.69 31.4789 51.08L72.8689 39.09C74.4889 38.62 75.9689 37.76 77.1889 36.59L108.269 6.75C117.639 -2.25 132.439 -2.25 141.799 6.75Z" fill="#FCDBD4"/>
<path d="M112.059 202.25C105.499 201.58 98.9688 200.36 92.5588 198.61C92.7188 198.01 92.8888 197.41 93.0488 196.81C95.7688 197.55 98.5088 198.2 101.269 198.75C101.499 197.57 101.739 196.39 101.969 195.21C99.9788 194.82 97.9988 194.37 96.0288 193.87C96.8188 190.77 97.6088 187.67 98.3888 184.57C99.1488 184.76 99.9088 184.95 100.659 185.12C100.429 186.11 100.209 187.09 99.9788 188.08C102.929 188.76 105.899 189.32 108.889 189.74C109.029 188.74 109.179 187.74 109.319 186.74C110.089 186.85 110.859 186.95 111.629 187.05C111.239 190.23 110.859 193.4 110.469 196.58C108.459 196.34 106.449 196.04 104.439 195.69C104.229 196.88 104.019 198.06 103.819 199.24C106.619 199.73 109.419 200.12 112.239 200.41C112.179 201.03 112.109 201.65 112.049 202.27L112.059 202.25ZM108.229 194.41C108.369 193.46 108.499 192.5 108.639 191.55C105.599 191.11 102.579 190.55 99.5788 189.86C99.3588 190.8 99.1488 191.74 98.9288 192.68C102.009 193.39 105.109 193.97 108.229 194.42V194.41Z" fill="#ED8A72"/>
<path d="M134.549 197.22C131.889 197.46 129.229 197.6 126.569 197.65C126.589 198.78 126.609 199.92 126.639 201.05C125.779 201.07 124.909 201.07 124.049 201.07C124.049 199.94 124.049 198.8 124.049 197.67C121.249 197.67 118.449 197.55 115.649 197.34C115.699 196.73 115.739 196.13 115.789 195.52C121.979 195.99 128.199 195.95 134.389 195.4C134.439 196.01 134.499 196.61 134.549 197.22ZM132.969 204.44C127.839 204.8 122.679 204.84 117.539 204.56C117.639 202.77 117.739 200.98 117.839 199.2C118.699 199.25 119.559 199.29 120.419 199.31C120.379 200.49 120.339 201.66 120.299 202.84C124.479 202.98 128.659 202.9 132.839 202.61C132.879 203.22 132.929 203.84 132.969 204.45V204.44ZM131.889 193.87C127.349 194.18 122.789 194.21 118.249 193.96C118.369 191.73 118.489 189.5 118.619 187.26C122.889 187.49 127.169 187.47 131.439 187.18C131.589 189.41 131.739 191.64 131.889 193.87ZM120.699 192.28C123.589 192.38 126.479 192.36 129.369 192.22C129.319 191.18 129.269 190.13 129.229 189.09C126.419 189.22 123.619 189.24 120.809 189.14C120.779 190.19 120.739 191.23 120.709 192.28H120.699Z" fill="#ED8A72"/>
<path d="M154.689 193.45C153.869 193.68 153.039 193.89 152.209 194.1C152.009 193.3 151.809 192.51 151.609 191.71C150.059 192.1 148.509 192.45 146.949 192.77C146.199 193.93 144.849 194.8 143.169 195.08C140.089 195.59 137.539 193.98 137.249 191.33C136.959 188.72 138.879 186.61 141.679 186.16C143.219 185.89 144.659 186.2 145.739 186.97C147.219 186.67 148.699 186.33 150.169 185.96C149.959 185.13 149.759 184.3 149.549 183.47C150.299 183.28 151.049 183.09 151.789 182.88C152.749 186.4 153.719 189.92 154.679 193.44L154.689 193.45ZM139.549 191.03C139.769 192.61 141.119 193.45 142.859 193.18C144.499 192.89 145.539 191.65 145.249 190.08C144.929 188.57 143.559 187.8 142.009 188.06C140.369 188.33 139.349 189.5 139.559 191.03H139.549ZM156.689 200.77C155.809 201.01 154.929 201.24 154.049 201.46C153.649 199.87 153.259 198.29 152.859 196.7C149.009 197.66 145.119 198.43 141.209 198.99C141.119 198.39 141.039 197.8 140.949 197.2C145.639 196.52 150.309 195.55 154.909 194.29C155.499 196.45 156.089 198.6 156.679 200.76L156.689 200.77ZM151.169 189.92C150.989 189.2 150.809 188.49 150.629 187.77C149.479 188.06 148.319 188.33 147.159 188.58C147.309 188.9 147.439 189.24 147.519 189.61C147.599 189.99 147.629 190.37 147.609 190.75C148.799 190.49 149.989 190.22 151.169 189.92Z" fill="#ED8A72"/>
<path d="M121.049 236.344C121.178 235.526 121.946 234.967 122.764 235.096C124.26 235.331 125.787 235.331 127.284 235.096C128.102 234.967 128.869 235.526 128.998 236.344C129.127 237.162 128.569 237.931 127.75 238.06C125.945 238.344 124.103 238.344 122.297 238.06C121.479 237.931 120.92 237.162 121.049 236.344ZM111.348 229.86C111.915 229.256 112.864 229.225 113.468 229.792L115.145 231.366C115.706 231.892 116.298 232.365 116.914 232.784C117.599 233.25 117.777 234.182 117.311 234.867C116.845 235.552 115.912 235.73 115.227 235.265C114.482 234.758 113.768 234.187 113.093 233.554L111.415 231.98C110.811 231.414 110.781 230.464 111.348 229.86ZM136.58 229.792C137.185 229.226 138.134 229.256 138.701 229.86C139.267 230.464 139.236 231.414 138.632 231.98L136.955 233.554C136.28 234.187 135.566 234.758 134.821 235.265C134.136 235.73 133.202 235.552 132.737 234.867C132.271 234.182 132.449 233.25 133.133 232.784C133.749 232.365 134.342 231.892 134.903 231.366L136.58 229.792ZM103.3 222.31C103.867 221.706 104.816 221.676 105.42 222.242L108.775 225.39C109.379 225.956 109.41 226.906 108.843 227.51C108.276 228.114 107.327 228.144 106.723 227.577L103.368 224.431C102.763 223.864 102.733 222.914 103.3 222.31ZM144.627 222.242C145.231 221.675 146.181 221.706 146.747 222.31C147.314 222.914 147.284 223.864 146.68 224.431L143.326 227.577C142.721 228.144 141.772 228.114 141.205 227.51C140.639 226.906 140.669 225.956 141.273 225.39L144.627 222.242ZM95.2523 214.76C95.819 214.156 96.7682 214.126 97.3724 214.692L100.728 217.84C101.332 218.407 101.362 219.356 100.795 219.96C100.228 220.564 99.2793 220.594 98.6751 220.027L95.3206 216.88C94.7165 216.313 94.6855 215.364 95.2523 214.76ZM152.675 214.692C153.279 214.126 154.228 214.156 154.795 214.76C155.362 215.364 155.332 216.313 154.728 216.88L151.372 220.027C150.768 220.594 149.819 220.564 149.252 219.96C148.686 219.356 148.717 218.407 149.321 217.84L152.675 214.692ZM87.2054 207.21C87.7722 206.606 88.7214 206.576 89.3255 207.143L92.68 210.29C93.2841 210.857 93.3142 211.806 92.7474 212.41C92.1806 213.014 91.2314 213.044 90.6273 212.478L87.2728 209.33C86.6686 208.763 86.6386 207.814 87.2054 207.21ZM160.723 207.143C161.327 206.576 162.276 206.606 162.843 207.21C163.41 207.814 163.379 208.763 162.775 209.33L159.42 212.478C158.816 213.044 157.867 213.014 157.3 212.41C156.733 211.806 156.764 210.857 157.368 210.29L160.723 207.143ZM73.9701 198.794C74.1958 197.997 75.0255 197.534 75.8226 197.76L78.0374 198.387H78.0365C79.7682 198.871 81.3526 199.747 82.6888 200.925L82.9534 201.164L82.9554 201.166L84.6322 202.739C85.2363 203.306 85.2673 204.256 84.7005 204.86C84.1338 205.464 83.1846 205.494 82.5804 204.928L80.9046 203.355C79.8551 202.375 78.596 201.658 77.2249 201.274L77.2201 201.273L75.0052 200.645C74.2082 200.42 73.7445 199.591 73.9701 198.794ZM174.225 197.76C175.022 197.534 175.852 197.997 176.077 198.794C176.303 199.591 175.84 200.42 175.043 200.645L172.827 201.273L172.823 201.274C171.451 201.658 170.192 202.375 169.143 203.355L167.468 204.928C166.864 205.494 165.915 205.464 165.348 204.86C164.781 204.256 164.811 203.306 165.415 202.739L167.093 201.166L167.095 201.164C168.484 199.866 170.163 198.904 172.01 198.387L174.225 197.76ZM63.3431 195.784C63.5688 194.987 64.3977 194.524 65.1947 194.749L69.6253 196.004C70.4224 196.23 70.8853 197.059 70.6595 197.856C70.4336 198.653 69.6048 199.116 68.8079 198.891L64.3773 197.636C63.5805 197.41 63.1176 196.581 63.3431 195.784ZM184.853 194.749C185.65 194.523 186.479 194.987 186.704 195.784C186.93 196.581 186.467 197.41 185.67 197.636L181.24 198.891C180.443 199.116 179.614 198.653 179.388 197.856C179.162 197.059 179.625 196.23 180.422 196.004L184.853 194.749ZM52.7152 192.773C52.941 191.976 53.7707 191.513 54.5677 191.739L58.9974 192.994C59.7943 193.22 60.258 194.049 60.0326 194.846C59.8068 195.643 58.9771 196.107 58.18 195.881L53.7503 194.626C52.9533 194.4 52.4894 193.57 52.7152 192.773ZM195.481 191.739C196.278 191.514 197.107 191.977 197.332 192.773C197.558 193.57 197.095 194.4 196.298 194.626L191.868 195.881C191.07 196.107 190.242 195.643 190.016 194.846C189.79 194.049 190.253 193.22 191.05 192.994L195.481 191.739ZM42.0882 189.764C42.314 188.967 43.1428 188.504 43.9398 188.729L48.3704 189.984C49.1674 190.21 49.6303 191.039 49.4046 191.836C49.1789 192.633 48.3501 193.096 47.5531 192.87L43.1224 191.616C42.3253 191.39 41.8625 190.561 42.0882 189.764ZM206.108 188.729C206.905 188.504 207.735 188.967 207.96 189.764C208.186 190.561 207.722 191.39 206.925 191.616L202.495 192.87C201.698 193.096 200.869 192.633 200.643 191.836C200.417 191.039 200.88 190.21 201.677 189.984L206.108 188.729ZM31.3597 186.267C31.7092 185.516 32.6018 185.19 33.3529 185.539C34.0438 185.86 34.7696 186.132 35.5277 186.347L37.7425 186.974C38.5396 187.199 39.0034 188.029 38.7777 188.826C38.5519 189.623 37.7222 190.086 36.9251 189.86L34.7103 189.233C33.7981 188.975 32.9223 188.648 32.0872 188.26C31.3361 187.91 31.0103 187.018 31.3597 186.267ZM216.695 185.539C217.446 185.19 218.337 185.515 218.687 186.266C219.037 187.016 218.712 187.909 217.961 188.259C217.126 188.648 216.25 188.975 215.338 189.233H215.337L213.122 189.86C212.325 190.086 211.497 189.623 211.271 188.826C211.045 188.029 211.508 187.199 212.305 186.974L214.52 186.347L215.082 186.175C215.638 185.993 216.177 185.78 216.695 185.539ZM24.0286 176.718C24.8027 176.423 25.6694 176.812 25.9642 177.586C26.5158 179.034 27.2975 180.387 28.2767 181.588C28.7999 182.23 28.7036 183.175 28.0618 183.698C27.4197 184.222 26.474 184.125 25.9505 183.483C24.7687 182.034 23.8262 180.401 23.1605 178.653C22.8656 177.879 23.2545 177.013 24.0286 176.718ZM224.082 177.584C224.377 176.81 225.244 176.422 226.018 176.717C226.792 177.012 227.18 177.878 226.885 178.652C226.219 180.4 225.276 182.032 224.094 183.481C223.571 184.123 222.626 184.22 221.984 183.696C221.342 183.173 221.246 182.228 221.769 181.586C222.748 180.385 223.53 179.032 224.082 177.584ZM23.1009 166.028C23.3035 165.225 24.1189 164.738 24.9222 164.94C25.7253 165.143 26.2117 165.959 26.0091 166.762L25.4632 168.927C25.2704 169.691 25.1422 170.456 25.0755 171.215C25.0028 172.04 24.2756 172.65 23.4505 172.577C22.6254 172.505 22.0149 171.777 22.0872 170.952C22.1678 170.035 22.3221 169.112 22.554 168.193L23.1009 166.028ZM225.126 164.94C225.929 164.738 226.745 165.225 226.948 166.028L227.493 168.193C227.725 169.113 227.88 170.035 227.96 170.952C228.032 171.777 227.422 172.505 226.597 172.577C225.772 172.649 225.044 172.039 224.972 171.214C224.905 170.455 224.777 169.69 224.584 168.927L224.038 166.762C223.836 165.958 224.323 165.143 225.126 164.94ZM25.721 155.641C25.9236 154.837 26.739 154.35 27.5423 154.553C28.3453 154.755 28.8317 155.571 28.6292 156.374L27.5374 160.704C27.3348 161.507 26.5194 161.994 25.7161 161.792C24.9129 161.589 24.4256 160.774 24.6283 159.971L25.721 155.641ZM222.506 154.553C223.309 154.35 224.125 154.837 224.327 155.641L225.419 159.971C225.622 160.774 225.135 161.589 224.332 161.792C223.529 161.995 222.713 161.507 222.51 160.704L221.418 156.374C221.216 155.571 221.703 154.755 222.506 154.553ZM28.3402 145.253C28.5427 144.45 29.3583 143.963 30.1615 144.165C30.9646 144.368 31.4518 145.183 31.2493 145.986L30.1576 150.317C29.9548 151.12 29.1394 151.607 28.3363 151.404C27.533 151.202 27.0458 150.386 27.2484 149.583L28.3402 145.253ZM219.886 144.165C220.689 143.963 221.505 144.45 221.707 145.253L222.799 149.583C223.002 150.386 222.515 151.201 221.712 151.404C220.909 151.607 220.094 151.12 219.891 150.317L218.798 145.986C218.596 145.183 219.083 144.368 219.886 144.165ZM30.9603 134.865C31.1629 134.062 31.9784 133.576 32.7816 133.778C33.5848 133.981 34.0721 134.796 33.8695 135.6L32.7777 139.93C32.575 140.733 31.7595 141.219 30.9564 141.017C30.1531 140.814 29.6659 139.999 29.8685 139.195L30.9603 134.865ZM217.266 133.778C218.069 133.576 218.885 134.062 219.087 134.865L220.179 139.195C220.382 139.998 219.895 140.814 219.092 141.017C218.289 141.219 217.474 140.733 217.271 139.93L216.178 135.6C215.975 134.796 216.463 133.981 217.266 133.778ZM33.5755 118.29C34.3787 118.087 35.1941 118.575 35.3968 119.378L35.9437 121.543V121.544C36.0438 121.942 36.1226 122.344 36.181 122.749C36.2992 123.569 35.7304 124.329 34.9105 124.447C34.866 124.454 34.8217 124.458 34.7777 124.46C34.8217 124.462 34.866 124.466 34.9105 124.473C35.7304 124.591 36.2992 125.351 36.181 126.171C36.1226 126.575 36.0438 126.978 35.9437 127.376V127.377L35.3968 129.542C35.1941 130.345 34.3787 130.832 33.5755 130.63C32.7725 130.427 32.2862 129.612 32.4886 128.809L33.0345 126.644C33.1092 126.346 33.1686 126.046 33.2122 125.743C33.3153 125.029 33.9055 124.505 34.598 124.46C33.9055 124.415 33.3153 123.891 33.2122 123.177C33.1686 122.874 33.1092 122.573 33.0345 122.276L32.4886 120.111C32.2862 119.308 32.7725 118.493 33.5755 118.29ZM214.651 119.378C214.853 118.575 215.669 118.087 216.472 118.29C217.275 118.493 217.762 119.308 217.56 120.111L217.013 122.274L217.014 122.275C216.939 122.573 216.88 122.874 216.836 123.177C216.733 123.891 216.142 124.416 215.449 124.46C216.142 124.504 216.733 125.028 216.836 125.743C216.88 126.046 216.939 126.347 217.014 126.645H217.013L217.56 128.809C217.762 129.612 217.275 130.427 216.472 130.63C215.669 130.832 214.853 130.345 214.651 129.542L214.105 127.377L214.104 127.376C214.004 126.978 213.925 126.575 213.867 126.171C213.748 125.351 214.317 124.591 215.137 124.473C215.181 124.466 215.226 124.462 215.27 124.46C215.226 124.457 215.181 124.454 215.137 124.447C214.317 124.329 213.748 123.569 213.867 122.749C213.925 122.344 214.004 121.942 214.104 121.544L214.105 121.543L214.651 119.378ZM30.9564 107.903C31.7595 107.701 32.575 108.187 32.7777 108.99L33.8695 113.32C34.0721 114.124 33.5848 114.939 32.7816 115.142C31.9784 115.344 31.1629 114.858 30.9603 114.055L29.8685 109.725C29.6659 108.921 30.1531 108.106 30.9564 107.903ZM217.271 108.99C217.474 108.187 218.289 107.701 219.092 107.903C219.895 108.106 220.382 108.921 220.179 109.725L219.087 114.055C218.885 114.858 218.069 115.344 217.266 115.142C216.463 114.939 215.975 114.124 216.178 113.32L217.271 108.99ZM28.3363 97.5156C29.1393 97.3132 29.9548 97.7995 30.1576 98.6025L31.2493 102.934C31.4518 103.737 30.9646 104.552 30.1615 104.755C29.3583 104.957 28.5427 104.47 28.3402 103.667L27.2484 99.3369C27.0458 98.5336 27.533 97.7182 28.3363 97.5156ZM219.891 98.6025C220.094 97.7995 220.909 97.313 221.712 97.5156C222.515 97.7184 223.002 98.5338 222.799 99.3369L221.707 103.667C221.505 104.47 220.689 104.957 219.886 104.755C219.083 104.552 218.596 103.737 218.798 102.934L219.891 98.6025ZM25.7161 87.1279C26.5194 86.9254 27.3348 87.4126 27.5374 88.2158L28.6292 92.5459C28.8318 93.349 28.3453 94.1644 27.5423 94.3672C26.739 94.5698 25.9236 94.0825 25.721 93.2793L24.6283 88.9492C24.4256 88.1459 24.9129 87.3305 25.7161 87.1279ZM222.51 88.2158C222.713 87.4125 223.529 86.9253 224.332 87.1279C225.135 87.3307 225.622 88.1461 225.419 88.9492L224.327 93.2793C224.125 94.0825 223.309 94.5696 222.506 94.3672C221.703 94.1646 221.216 93.3491 221.418 92.5459L222.51 88.2158ZM23.4515 76.3428C24.2766 76.2707 25.0042 76.8809 25.0765 77.706C25.1264 78.2752 25.2101 78.8473 25.3304 79.4199L25.4632 79.9931L26.0091 82.1582C26.2117 82.9613 25.7253 83.7767 24.9222 83.9795C24.1189 84.1821 23.3035 83.6948 23.1009 82.8916L22.554 80.7265C22.3221 79.8074 22.1677 78.8852 22.0872 77.9678C22.0151 77.1426 22.6263 76.4151 23.4515 76.3428ZM226.597 76.3428C227.422 76.4152 228.033 77.1426 227.96 77.9678C227.88 78.8852 227.725 79.8074 227.493 80.7265L226.948 82.8916C226.745 83.6947 225.929 84.1819 225.126 83.9795C224.323 83.7769 223.836 82.9614 224.038 82.1582L224.584 79.9931C224.777 79.2293 224.905 78.4642 224.972 77.7051C225.045 76.8802 225.772 76.2705 226.597 76.3428ZM25.9534 65.4384C26.4768 64.7964 27.4217 64.7003 28.0638 65.2236C28.7059 65.747 28.802 66.6918 28.2786 67.334C27.2995 68.5352 26.5181 69.8879 25.9661 71.3359C25.6711 72.11 24.8037 72.4982 24.0296 72.2031C23.2559 71.9079 22.8675 71.0415 23.1624 70.2676C23.8286 68.52 24.7719 66.8881 25.9534 65.4384ZM221.987 65.2217C222.629 64.6983 223.574 64.7944 224.097 65.4365C225.279 66.8864 226.222 68.5186 226.888 70.2666C227.183 71.0407 226.794 71.9072 226.02 72.2021C225.246 72.497 224.379 72.1081 224.084 71.334C223.533 69.8858 222.751 68.5332 221.772 67.332C221.248 66.6899 221.345 65.7451 221.987 65.2217ZM36.9251 59.0595C37.7222 58.8338 38.5519 59.2966 38.7777 60.0937C39.0034 60.8908 38.5396 61.7205 37.7425 61.9463L35.5277 62.5732C34.7702 62.788 34.0445 63.0592 33.3538 63.3808C32.6029 63.7306 31.7104 63.4052 31.3607 62.6543C31.011 61.9033 31.3363 61.0108 32.0872 60.6611C32.9222 60.2722 33.7984 59.945 34.7103 59.6865L36.9251 59.0595ZM211.271 60.0937C211.497 59.2967 212.325 58.8338 213.122 59.0595L215.337 59.6865C216.25 59.9448 217.126 60.2716 217.961 60.6601C218.712 61.0097 219.037 61.9023 218.688 62.6533C218.338 63.4041 217.447 63.7299 216.696 63.3808C216.005 63.0594 215.278 62.7879 214.52 62.5732L212.305 61.9453C211.508 61.7195 211.045 60.8908 211.271 60.0937ZM47.5531 56.0498C48.3501 55.8241 49.1789 56.2869 49.4046 57.084C49.6303 57.8809 49.1674 58.7097 48.3704 58.9355L43.9398 60.1904C43.1428 60.416 42.314 59.9531 42.0882 59.1562C41.8625 58.3591 42.3253 57.5294 43.1224 57.3037L47.5531 56.0498ZM200.643 57.084C200.869 56.2869 201.698 55.824 202.495 56.0498L206.925 57.3037C207.722 57.5294 208.186 58.3591 207.96 59.1562C207.735 59.9533 206.905 60.4162 206.108 60.1904L201.677 58.9355C200.88 58.7096 200.417 57.8808 200.643 57.084ZM58.18 53.039C58.9771 52.8133 59.8068 53.2771 60.0326 54.0742C60.258 54.8711 59.7943 55.7 58.9974 55.9258L54.5677 57.1806C53.7707 57.4064 52.941 56.9434 52.7152 56.1465C52.4894 55.3494 52.9533 54.5197 53.7503 54.2939L58.18 53.039ZM190.016 54.0742C190.242 53.2771 191.07 52.8133 191.868 53.039L196.298 54.2939C197.095 54.5198 197.558 55.3495 197.332 56.1465C197.107 56.9432 196.278 57.4061 195.481 57.1806L191.05 55.9258C190.253 55.7 189.79 54.8712 190.016 54.0742ZM68.8079 50.0293C69.6049 49.8036 70.4336 50.2667 70.6595 51.0634C70.8853 51.8605 70.4224 52.6902 69.6253 52.916L65.1947 54.1709C64.3977 54.3963 63.5688 53.9326 63.3431 53.1357C63.1176 52.3388 63.5805 51.51 64.3773 51.2842L68.8079 50.0293ZM179.388 51.0634C179.614 50.2667 180.443 49.8038 181.24 50.0293L185.67 51.2842C186.467 51.5099 186.93 52.3387 186.704 53.1357C186.479 53.9327 185.65 54.3965 184.853 54.1709L180.422 52.916C179.625 52.6901 179.162 51.8605 179.388 51.0634ZM82.5804 43.9922C83.1846 43.4256 84.1338 43.4555 84.7005 44.0595C85.2673 44.6637 85.2363 45.6138 84.6322 46.1806L82.9554 47.7539L82.9534 47.7558C81.5641 49.0541 79.8836 50.0152 78.0365 50.5322L78.0374 50.5332L75.8226 51.1601C75.0255 51.3859 74.1958 50.923 73.9701 50.1259C73.7445 49.329 74.2082 48.5001 75.0052 48.2744L77.2201 47.6465L77.2249 47.6455C78.596 47.2623 79.8551 46.545 80.9046 45.5644L82.5804 43.9922ZM165.348 44.0595C165.915 43.4558 166.864 43.4255 167.468 43.9922L169.143 45.5644L169.342 45.7451C170.283 46.5741 171.38 47.1977 172.567 47.5693L172.823 47.6455L172.827 47.6465L175.043 48.2744C175.84 48.5003 176.303 49.3291 176.077 50.1259C175.852 50.923 175.022 51.3859 174.225 51.1601L172.01 50.5332V50.5322C170.163 50.0151 168.484 49.0538 167.095 47.7558L167.093 47.7539L165.415 46.1806C164.811 45.6138 164.781 44.6637 165.348 44.0595ZM90.6273 36.4424C91.2314 35.8756 92.1806 35.9058 92.7474 36.5097C93.3142 37.1139 93.2841 38.063 92.68 38.6299L89.3255 41.7773C88.7214 42.3441 87.7722 42.314 87.2054 41.7099C86.6386 41.1058 86.6687 40.1566 87.2728 39.5898L90.6273 36.4424ZM157.3 36.5097C157.867 35.9057 158.816 35.8756 159.42 36.4424L162.775 39.5898C163.379 40.1566 163.41 41.1058 162.843 41.7099C162.276 42.3141 161.327 42.344 160.723 41.7773L157.368 38.6299C156.764 38.063 156.733 37.1138 157.3 36.5097ZM98.6751 28.8926C99.2793 28.3257 100.228 28.3558 100.795 28.9599C101.362 29.564 101.332 30.5132 100.728 31.0801L97.3724 34.2275C96.7682 34.7941 95.819 34.7642 95.2523 34.1601C94.6855 33.556 94.7165 32.6068 95.3206 32.04L98.6751 28.8926ZM149.252 28.9599C149.819 28.3558 150.768 28.3258 151.372 28.8926L154.728 32.04C155.332 32.6069 155.362 33.5561 154.795 34.1601C154.228 34.7642 153.279 34.7943 152.675 34.2275L149.321 31.0801C148.717 30.5133 148.686 29.5641 149.252 28.9599ZM106.723 21.3427C107.327 20.776 108.276 20.806 108.843 21.4101C109.41 22.0143 109.379 22.9635 108.775 23.5302L105.42 26.6777C104.816 27.2443 103.867 27.2142 103.3 26.6103C102.733 26.0062 102.763 25.056 103.368 24.4892L106.723 21.3427ZM141.205 21.4101C141.772 20.806 142.721 20.7759 143.326 21.3427L146.68 24.4892C147.284 25.056 147.314 26.0062 146.747 26.6103C146.181 27.2141 145.231 27.2444 144.627 26.6777L141.273 23.5302C140.669 22.9634 140.639 22.0143 141.205 21.4101ZM115.227 13.6552C115.912 13.1894 116.845 13.3677 117.311 14.0527C117.777 14.7376 117.599 15.6698 116.914 16.1357C116.298 16.5549 115.706 17.0275 115.145 17.5537L113.468 19.1279C112.864 19.6947 111.915 19.6637 111.348 19.0595C110.781 18.4554 110.811 17.5062 111.415 16.9394L113.093 15.3662C113.768 14.7327 114.482 14.1619 115.227 13.6552ZM132.737 14.0527C133.202 13.3677 134.136 13.1894 134.821 13.6552C135.566 14.1619 136.28 14.7326 136.955 15.3662L138.632 16.9394C139.236 17.5061 139.267 18.4554 138.701 19.0595C138.134 19.6636 137.185 19.6943 136.58 19.1279L134.903 17.5537C134.342 17.0276 133.749 16.5548 133.133 16.1357C132.449 15.6698 132.271 14.7376 132.737 14.0527ZM122.297 10.8603C124.103 10.5758 125.945 10.5759 127.75 10.8603C128.569 10.9893 129.127 11.7578 128.998 12.5761C128.869 13.3944 128.102 13.9531 127.284 13.8242C125.787 13.5884 124.26 13.5884 122.764 13.8242C121.946 13.9529 121.178 13.3943 121.049 12.5761C120.92 11.7579 121.479 10.9893 122.297 10.8603Z" fill="#F4B7A8"/>
<path d="M188.08 143.38C187.87 144.66 187.96 145.81 188.01 147.04L193.52 147.95C193.92 148.02 194.08 148.47 194.08 148.77C194.08 149.09 193.78 149.62 193.32 149.54L184.33 148.05L184.24 153.23L193.94 155.98C194.52 156.15 194.72 156.68 194.63 157.22C194.56 157.62 194.1 158.11 193.52 157.97C186.41 156.15 179.52 153.98 172.54 151.65C167.82 150.08 163.29 148.41 158.8 146.35C156.73 145.4 154.81 144.43 153.02 143.07C151.98 142.28 151.85 140.93 152.78 139.91V120.26L146.04 120.22V131.99L147.92 132.03C148.36 132.03 148.55 132.56 148.56 132.89C148.56 133.33 148.31 133.8 147.81 133.81L145.25 133.86L138.18 136.28C137.27 136.59 136.37 136.42 135.42 136.18C135.04 137.06 134.6 137.73 134.05 138.42C132.76 140.04 132.45 141.63 133.83 143.18C134.41 143.83 135.06 144.4 135.86 144.8L143.11 148.44L149.32 151.76C151.17 152.75 152.63 154.12 153.91 155.78C156.69 159.38 156.22 163.65 154.1 167.54C153.82 168.05 153.28 168.21 152.87 168.05C152.29 167.83 152.05 167.21 152.34 166.64C153.56 164.28 154.47 161.68 153.47 159.13C152.79 157.38 151.66 155.97 150.14 154.84C148.03 153.27 145.77 151.86 143.31 150.92L137.99 151.58C142.14 154.24 145.86 156.86 145.35 162.2C145.18 163.95 144.47 165.52 143.63 167.08C143.35 167.59 143.04 167.93 142.46 167.87C141.88 167.81 141.61 167.33 141.56 166.67C141.34 163.71 137.93 160.74 135.27 159.42L127.9 155.75C124.4 154.01 120.44 152.11 120.56 147.94C120.63 145.66 120.48 143.42 120.85 141.17C121.11 139.56 122.35 138.42 123.5 137.35C123.28 136.6 122.68 136.03 122.03 135.61C118.93 133.61 113.57 132.01 109.76 131.05C100.98 128.84 92.13 127.43 83.13 126.49L78.52 126.01C77.93 125.95 77.52 125.6 77.54 125.04C77.56 124.59 77.97 124.15 78.56 124.16C78.87 124.16 79.24 124.34 79.61 124.19L79.82 122.86C80.09 122.39 80.77 122.65 81 122.9C81.42 123.34 81.22 123.86 80.87 124.36L87.59 124.99V121.85C78.88 120.87 70.2 120.44 61.44 120.28C60.88 120.27 60.57 119.67 60.58 119.3C60.58 118.85 60.94 118.37 61.48 118.38L67.26 118.45L71.89 118.57C72.25 117.36 71.4 115.96 70.1 115.83C69.64 115.78 69.31 115.88 69.03 115.51C68.82 115.24 68.72 114.9 68.88 114.48C69.33 113.3 68.95 111.95 67.92 111.28C67.2 110.81 66.51 110.97 65.81 111.2C65.25 111.38 65.01 110.64 64.85 110.27C64.4 109.23 63.24 108.76 62.18 108.87C61.19 108.98 60.19 109.64 59.95 110.77C59.87 111.15 59.9 111.46 59.62 111.69C59.31 111.94 58.97 111.87 58.56 111.81C57.41 111.66 56.69 112.67 56.67 113.72C56.67 114.15 56.08 114.33 55.8 114.34C55.47 114.35 54.96 114.14 54.9 113.75C54.6 111.66 56.28 110.18 58.19 109.88C58.84 108.79 59.69 107.63 60.86 107.28C62.33 106.84 63.69 106.94 64.93 107.77V98.94C62.86 98.17 62.04 96.35 61.06 94.54C59.45 94.01 57.73 93.65 56.42 92.52C55.44 91.67 54.54 90.71 54.32 89.42C53.95 87.3 55.03 85.65 56.37 85.74C57.71 85.83 57.52 87.26 58.76 87.38C60 87.5 61.29 87.42 62.53 87.01C64.76 86.27 66.73 85.16 68.53 83.58C70.79 81.59 73.13 79.22 74.28 76.47C74.1 74.72 73.46 72.68 74.57 71.04C75.07 70.3 75.69 69.77 76.65 69.96C77.46 70.12 77.95 70.81 78.07 71.73C78.21 72.77 79.23 73.45 80.24 73.6C82.38 73.91 84.43 73.86 86.6 73.65C97.39 72.59 107.98 69.05 116.83 62.78C117.16 61.9 117.61 60.8 118.8 60.64C118.42 58.19 119.38 55.98 121.45 55.99C122.54 55.99 123.45 56.66 123.86 57.73C124.2 58.61 124.17 59.55 124.1 60.6C125.43 61.13 126.09 62.27 125.86 63.69C130.35 69.6 137.16 78.11 143.76 81.13C146.15 82.22 148.68 82.87 151.31 82.63C154.14 82.37 153.57 80.45 154.79 80.25C155.46 80.14 156.01 80.41 156.4 81.02C157.43 82.64 157.08 84.57 156.01 86.15C155.85 86.68 155.85 87.28 155.46 87.81C153.68 90.18 151.22 91.81 148.27 92.59C147.8 94.68 146.7 96.41 144.89 97.5L144.92 103.57C145.73 103.18 146.39 102.95 147.29 102.91C147.17 101.05 147.98 99.53 149.28 98.46C150.66 97.32 152.43 96.91 154.25 97.47C155.02 94.63 157.58 92.92 160.42 93.19C162.04 93.35 163.11 94.36 164.14 95.45C165.42 95.46 166.92 95.44 168.03 96.51C168.95 97.4 169.51 98.68 169.56 100.08C171.58 100.65 172.97 102.35 172.89 104.58L182.8 103.73L190.67 102.96C191.34 102.89 191.82 103.6 191.77 104.11C191.69 104.9 191.08 105.03 190.36 105.1L173.74 106.56L161.93 107.36L160.56 106.9C159.79 106.97 159.45 107.92 159.53 108.58C159.59 109.04 159.5 109.35 159.2 109.68C157.4 111.65 155.43 113.32 153.22 114.95C154.28 116.18 156.35 115.07 157.56 113.78L158.52 113.56L160.92 111.07C160.4 110.71 160.18 110.22 160.37 109.71C160.56 109.2 161.05 108.93 161.67 109.04C162.8 109.25 163.92 109.13 165.06 109.06L173.26 108.58L178.87 108.11L190.35 107.02C191.08 106.95 191.63 107.29 191.7 107.93C191.79 108.71 191.24 109.06 190.49 109.13L176.88 110.37C176.44 112.13 175.01 113.25 174.23 114.69C174.01 115.77 175.65 116.38 176.56 116.04C177.78 115.57 178.72 114.78 179.4 113.68C179.8 113.04 180.27 112.91 180.92 112.62C181.57 112.33 182.31 110.42 183 110.4C183.48 110.4 183.89 110.94 184.07 111.39L182.35 113.91C182.46 115.17 183.92 115.8 185.01 115.45C185.89 115.17 186.51 114.77 187.1 114.09C187.71 113.38 188.29 112.65 188.74 111.82C189.06 111.23 189.62 111.02 190.25 111.1C190.88 111.18 191.22 111.68 191.46 112.35C192.01 113.86 193.15 115.21 194.73 115.61C195.28 115.75 195.76 116.03 195.85 116.6C195.91 117 195.42 117.76 194.85 117.71C192.73 117.51 191.05 116.05 189.9 114.11C188.83 115.48 187.67 116.78 186.08 117.41C184.02 118.22 181.83 117.51 180.73 115.58C179.81 116.52 179.01 117.28 177.96 117.79C175.92 118.79 173.63 118.2 172.44 116.27C171.45 117.2 170.42 117.94 169.18 118.2C167.48 118.55 165.86 117.94 164.94 116.44C163.86 117.3 162.69 117.96 161.31 118.05C159.93 118.14 158.6 117.5 157.88 116.24C156.91 116.96 155.94 117.3 154.74 117.54L154.78 141.84C157.43 143.47 160.03 144.75 162.88 145.89L162.91 141.4L157.71 139.63C157.31 139.49 157.12 139.01 157.21 138.71C157.34 138.28 157.82 138.03 158.29 138.18L163.09 139.75C163.63 139.93 164.38 140.42 164.39 141.04L164.45 146.49L168.66 148.08V144.92C168.66 144.77 167.19 144.53 167.51 143.74C167.66 143.38 167.97 143.07 168.43 143.18L175.24 144.81C175.67 144.91 175.84 145.51 175.72 145.77C175.51 146.26 175.14 146.4 174.63 146.29L170.19 145.28L170.23 148.7L182.7 152.67L182.79 148.08C182.81 147.13 183.52 146.41 184.47 146.54L186.49 146.82L186.52 143.42C186.52 142.53 187.12 141.68 188.11 141.79L193.38 142.42C193.89 142.48 194.16 142.93 194.13 143.34C194.09 143.83 193.66 144.16 193.12 144.09L188.14 143.4L188.08 143.38ZM103.51 84.93L104.73 87.71C104.94 88.18 105.21 88.45 104.81 88.85C104.54 89.12 103.99 89.37 103.74 88.85L102.58 86.43C102.42 86.1 102.55 85.64 102.23 85.28C100.61 85.67 98.58 86.13 98.25 84.89C98.15 84.52 98.34 83.78 98.85 83.76C103.91 83.48 106.9 80.98 110.49 77.64C114.18 74.21 117.4 70.43 120.41 66.42C120.72 66.01 121.13 65.88 121.55 65.87C122 65.86 122.31 66.11 122.62 66.5C124.9 69.39 127.03 72.27 129.57 74.98C132.11 77.69 134.59 80.37 137.72 82.4C141.74 85.01 148.98 87.09 153.76 85.72C154.54 85.04 155.17 84.12 154.95 82.95C153.94 83.9 152.98 84.49 151.7 84.61C146.29 85.15 141.47 82.85 137.34 79.44C134.01 76.69 131.08 73.65 128.39 70.26L123.91 64.62C123.6 64.23 124.16 63.35 123.74 62.74C123.44 62.29 122.22 62.69 122.18 61.56L122.1 58.74C122.09 58.35 121.76 57.98 121.42 57.99C120.5 58.01 120.63 59.77 120.68 61.27C120.7 61.94 120.36 62.5 119.64 62.5C119.33 62.5 119.03 62.59 118.88 62.81C118.43 63.5 119.22 64.18 118.58 65.02C114.66 70.17 110.64 74.98 105.58 79.07C102.75 81.36 98.33 84.01 96.15 80.68C95.48 81.84 96.13 82.7 96.56 83.59C97.02 84.53 97.31 85.42 98.02 86.26C102.89 92.04 110.32 92.71 117.58 93.05C125.62 93.43 135.52 93.33 143.33 91.76L147.88 90.54C149.54 90.1 151.09 89.29 152.33 88.04C147.06 88.51 142.22 87.05 137.66 84.75C134.41 85.16 131.3 85.61 128 85.6H116.93C112.93 85.41 109.08 85.01 105.17 84.18L103.51 84.91V84.93ZM93.87 76.06C100.47 74.75 106.66 72.41 112.61 69.39C113.23 68.44 114.02 67.84 114.52 66.74C105.75 71.87 96.19 74.93 86.12 75.72C83.87 75.9 81.78 75.97 79.61 75.58C77.89 75.27 76.71 74.04 76.15 72.35C75.47 73.86 76 75.34 76.72 76.54C81.96 78.06 88.53 77.11 93.87 76.05V76.06ZM121.18 83.74C125.83 83.73 130.29 83.65 135.1 83.02C131.68 80.26 128.77 77.3 125.99 74.01L121.42 68.32C118.11 72.72 114.69 76.88 110.5 80.35L107.74 82.64C112.35 83.42 116.66 83.69 121.18 83.74ZM56.31 88.11C56.02 88.87 56.33 89.48 56.76 90.01C58.65 92.33 62.63 92.81 65.72 93.04C70.3 93.37 74.81 93.33 79.38 92.88C85.99 92.23 92.29 90.31 94.3 83.53C93.48 81.38 94.25 78.48 96.13 78.57C96.77 78.6 97.22 78.96 97.57 79.59C98.26 80.82 100.45 80.11 101.97 79.12C104.34 77.55 106.57 75.83 108.55 73.56C99.36 77.38 89.58 79.79 79.74 79.23C79.65 79.84 79.22 80.21 79.01 80.67C78.82 81.09 78.69 81.4 78.43 81.77C76.22 84.96 73.63 87.72 70.47 89.97C70.13 90.21 69.79 90.37 69.43 90.07C69.21 89.89 69.06 89.33 69.43 89.06C72.69 86.68 75.52 83.8 77.66 80.34C77.9 79.94 77.87 79.47 78.31 79.11L75.67 78.28C74.35 80.54 72.77 82.36 70.95 84.1C69.05 85.93 66.98 87.38 64.55 88.4C61.91 89.51 58.31 90.19 56.29 88.1L56.31 88.11ZM103.31 111.6V97.73C103.21 97.51 102.86 97.37 102.74 97.28C102.21 96.92 102.12 96.36 102.36 95.91C102.69 95.29 103.16 95.42 103.78 95.53C108.11 96.27 112.38 96.49 116.8 96.67H130.84C134.89 96.67 138.79 96.34 142.79 95.82C144.28 95.63 145.43 94.79 145.88 93.26L141.57 94.13C138.18 94.61 134.92 95.12 131.47 95.12H118.01C114.71 95.12 111.58 94.71 108.35 94.16C103.02 93.08 98.57 90.85 95.49 86.3C92.52 91.99 87.49 93.81 81.55 94.66C76 95.46 69.43 95.42 63.54 94.88C63.94 95.99 65.01 97 66.26 97.04C76.73 97.38 87.47 97.24 97.97 95.75C96.72 94.13 95.6 92.6 94.95 90.71C94.72 90.03 95.21 89.41 95.84 89.35C96.47 89.29 96.89 89.69 97.08 90.33C97.58 91.95 98.58 93.3 99.63 94.59C100.17 95.25 100.31 95.82 100.31 96.69L100.33 111.65L103.29 111.6H103.31ZM159.57 105.02C160.5 104.63 161.3 105.14 162.18 105.29L164.44 105.21L170.81 104.75C170.97 103.9 170.71 103.19 170.19 102.65C169.03 101.46 168.05 102.33 167.41 101.49C166.95 100.89 168.15 99.5 166.83 98.13C166.28 97.56 165.38 97.12 164.52 97.51C164.13 97.69 163.22 98.18 162.91 97.6C162.42 96.66 161.98 95.82 161.08 95.46C160.03 95.04 159.01 95.02 158.03 95.54C156.62 96.29 155.91 97.77 155.86 99.35C155.85 99.72 155.32 99.97 155.06 100.03C154.7 100.11 154.41 99.8 154.06 99.6C152.85 98.89 151.31 99.2 150.35 100.08C149.32 101.02 148.86 102.5 149.43 103.8C149.6 104.19 149.29 104.54 149.08 104.73C148.77 105.02 148.41 104.94 148.02 104.86C146.85 104.61 145.61 105.2 144.95 106.06C144.24 106.98 143.89 108.28 144.57 109.34C144.9 109.55 145.61 109.63 145.88 110.15L155.77 110.18C156.46 109.6 157.01 109.04 157.53 108.33C157.48 106.9 158.26 105.58 159.55 105.04L159.57 105.02ZM81.72 101.25H98.38V97.76C93.23 98.5 88.2 98.69 83.09 99.07L81.66 99.18C81.64 99.92 81.52 100.55 81.73 101.25H81.72ZM111.78 101.18V98.42L105.26 97.79V101.27L111.78 101.18ZM140.85 109.45L142.56 109.38C142.1 108.12 142.28 106.89 142.91 105.73V97.87L139.35 98.29L139.52 106.29C140.28 107.04 141.39 108.01 140.85 109.46V109.45ZM137.44 104.56V98.36C135.86 98.53 134.49 98.56 132.91 98.57V102.03C135.99 102.5 135.77 105.08 137.44 104.57V104.56ZM125.06 107.45C125.52 106.2 126.66 105.82 127.56 105.48C128.17 103.95 129.18 102.6 130.95 102.17L130.93 98.67L125.71 98.72C121.69 98.76 117.78 98.75 113.81 98.5L113.73 102.42L113.75 111.63C114.43 111.73 115.08 111.76 115.69 111.55C115.92 109.99 116.87 108.75 118.44 108.61C118.93 107.27 120.13 106.49 121.3 106.23C122.7 105.92 123.82 106.47 125.06 107.44V107.45ZM69.93 103.18C69.35 103.17 69.13 102.51 69.24 102.11C69.35 101.68 69.67 101.27 70.21 101.27H79.64C79.72 100.52 79.73 99.92 79.64 99.14H66.84V109.13C68.55 109.12 69.85 110.16 70.54 111.64H73.19V103.25L69.94 103.17L69.93 103.18ZM79.7 111.65V103.24H75.11V111.68L79.7 111.64V111.65ZM86.07 111.57L86.05 103.22L81.63 103.25V111.7C83.19 111.6 84.61 111.87 86.08 111.57H86.07ZM98.41 111.67V103.22L88.04 103.24V111.72L98.41 111.68V111.67ZM111.79 111.6L111.77 103.22H105.34L105.26 111.7L111.79 111.6ZM119.21 110.21C118.32 110.1 117.51 110.7 117.53 111.7H133.69C134.17 110.56 134.95 109.75 136.08 109.51L139 109.34C139.44 108.87 138.86 107.74 138.15 107.7C138 106.62 137.06 106.11 136.07 106.36C135.75 106.44 135.48 106.47 135.22 106.31C134.76 106.02 134.69 103.77 132 103.95C130.75 104.03 129.51 104.85 129.41 106.19C129.37 106.75 129.17 107.39 128.46 107.3C127.71 107.2 126.72 107.57 126.69 108.48C126.67 108.88 126.52 109.59 125.95 109.41C125.51 109.27 125.19 109.06 124.68 109.4C124.52 109.51 124.01 109.5 123.89 109.26C123.5 108.48 122.71 107.97 121.87 108.02C121.12 108.06 120.25 108.56 120.09 109.38C120 109.85 119.77 110.3 119.21 110.23V110.21ZM168.71 116.2C169.85 115.79 170.77 115.12 171.32 114.15C171.66 113.54 172.26 113.69 172.66 113.39C173.58 112.7 174.1 111.58 174.68 110.6L169.62 110.86L169.15 111.85L166.74 115.01C166.38 115.86 167.94 116.47 168.71 116.19V116.2ZM163.94 114.33C164.29 113.74 164.82 113.86 165.28 113.57C166.19 112.99 166.81 111.95 167.45 111.02L163 111.04C162.2 112.62 160.82 113.62 159.69 114.89C159.34 115.41 160.39 116.13 160.97 116.08C162.16 115.96 163.32 115.36 163.93 114.34L163.94 114.33ZM145.95 118.37C146.65 118.6 147.33 118.41 147.97 118.41H152.63C152.83 118.07 152.9 117.45 152.58 117.19L151.44 116.23H142.61C142.51 116.9 142.52 117.41 142.57 118C142.62 118.63 142.13 119.17 141.55 119.11C140.97 119.05 140.52 118.5 140.62 117.86C140.76 116.94 140.55 116.07 140.56 115.22C140.56 114.05 142.93 112.85 143.81 111.44L136.9 111.4C136.18 111.4 135.54 111.96 135.54 112.75V133.54C135.53 134 135.66 134.42 136.03 134.57C136.29 134.68 136.69 134.62 137.15 134.42L137.18 114.78C137.18 114.29 137.89 114.13 138.19 114.15C138.49 114.17 139.04 114.35 139.04 114.8L139.08 128.89L139.05 133.85L144.11 132.14V118.86C144.26 118.43 144.59 118.18 144.87 118.08C145.3 117.94 145.55 118.26 145.93 118.39L145.95 118.37ZM153.66 112.05L145.94 112.09L143.74 114.3L151.11 114.32C151.75 113.26 152.99 112.92 153.66 112.05ZM124.61 127.96C127.7 129.26 130.67 130.38 133.35 132.19C133.61 131.73 133.57 131.51 133.57 131.13L133.53 113.65H71.46C71.08 113.65 70.8 113.9 70.9 114.08C72.85 114.72 74.1 116.53 73.74 118.68C87.82 119.55 102.35 121.13 115.79 124.9C118.83 125.75 121.64 126.71 124.6 127.95L124.61 127.96ZM99.49 126.75L99.43 123.42L89.88 122.08C89.59 122.04 89.31 122.22 89.31 122.51L89.36 125.26L99.48 126.75H99.49ZM112.03 129.55V126.01C108.4 125.13 104.97 124.39 101.29 123.75L101.2 127.15C104.86 127.81 108.33 128.64 112.03 129.55ZM126.24 133.35C126.09 131.24 123.3 129.49 121.31 128.87L113.76 126.5L113.78 130.1C116.7 130.93 119.44 131.9 122.05 133.33C123.22 133.97 124.17 134.67 124.99 135.87C125.63 135.24 126.31 134.41 126.24 133.36V133.35ZM129.88 142.24H126.27C125.87 142.22 125.64 141.68 125.66 141.39C125.69 141.06 125.98 140.66 126.39 140.66H129.71C130.25 137.96 135.02 136.04 133.05 134.39C132.08 133.58 130.99 132.99 129.83 132.44C129.15 132.12 128.59 131.72 127.8 131.56C128.63 133.22 128.32 134.93 127.23 136.32L124 139.57C123.35 140.22 122.73 141.07 122.8 142.04C122.96 144.2 126.51 146.12 128.66 147.14L135.2 150.26C135.64 150.47 135.99 150.53 136.35 150.11L140.65 149.59L138.29 148.35C135.44 146.86 131.13 145.05 129.88 142.23V142.24ZM128.52 153.79V149.31L125.76 147.89C124.55 147.29 123.61 146.49 122.53 145.55V148.69C122.66 149.77 123.43 150.58 124.22 151.27C125.54 152.29 126.92 153.03 128.53 153.79H128.52ZM137.83 153.94L132.26 151.08L130.3 150.2V154.66C132.95 155.85 135.37 157.02 137.82 158.54V153.94H137.83ZM142.86 163.84C143.79 161.87 143.48 159.87 142.59 158.19C141.76 157.01 140.85 155.99 139.58 155.12L139.52 159.84C140.94 160.92 141.84 162.28 142.86 163.84Z" fill="#ED8A72"/>
<path d="M86.29 169.39C87.94 167.14 87.87 164.41 86.05 162.34C84.95 161.09 83.69 160.02 82.18 159.24L77.19 156.65C73.16 154.56 68.02 152.78 65.17 149.07C63.29 146.62 63.48 143.45 65.64 141.25C66.71 140.16 67.9 139.29 69.28 138.58L74.66 135.8C75.58 135.32 76.41 134.72 77.06 133.95C80.77 129.53 64.93 127.11 61.18 126.55C60.59 126.46 60.49 125.57 60.69 125.22C60.98 124.69 61.44 124.58 62.06 124.66C65.92 125.18 69.67 125.84 73.34 127.13C76.23 128.15 79.76 129.69 79.76 132.85V139.6C79.76 140.69 79.11 141.62 78.39 142.37C76.46 144.41 73.51 145.31 71.52 147.45C70.63 148.42 70.09 149.63 70.49 150.93C76.04 154.42 85.62 156.93 88.65 162.59C89.96 165.03 89.61 167.85 88.18 170.16C87.88 170.65 87.35 170.85 86.85 170.71C86.46 170.6 85.91 169.89 86.28 169.39H86.29ZM72.2 144.27L75.96 141.9C76.84 141.27 77.83 140.46 77.83 139.33V136.02C75.7 137.97 73.04 138.63 70.91 140.18L71.79 140.39C72.39 140.54 71.79 142.93 72.21 144.27H72.2ZM68.43 149.35C68.81 147.87 69.32 146.78 70.31 145.85V140.35C67.37 141.86 64.64 144.36 66.4 147.21C66.91 148.04 67.55 148.81 68.43 149.35Z" fill="#ED8A72"/>
<path d="M110.2 153.53C110.92 155.02 105.4 155.56 101.01 154.58C98.57 154.04 96.21 154 93.83 154.7C93.16 154.89 92.44 154.67 92.21 154.22C91.96 153.72 92.33 153.28 93.02 153.1C96.11 152.27 99.23 152.38 102.36 153.06C104.54 153.54 106.7 153.57 108.8 152.98C109.4 152.81 110.02 153.16 110.2 153.53Z" fill="#ED8A72"/>
<path d="M182.34 134.88C182.82 134.95 183.01 135.49 182.94 135.85C182.87 136.19 182.5 136.54 182.09 136.47L175.8 135.51C175.29 135.43 175.02 135.02 175.1 134.58C175.24 133.8 175.93 134 176.71 133.91L176.79 131.18C176.81 130.6 177.58 130.47 178.08 130.55L180.22 130.86C180.61 130.92 180.77 131.49 180.68 131.77C180.38 132.74 179.37 132.06 178.18 132.14V134.24L182.35 134.88H182.34Z" fill="#ED8A72"/>
<path d="M97.62 148.13C98.3899 149.6 94.4899 150.18 91.4599 149.33C89.5699 148.8 87.74 148.68 85.87 149.37C85.52 149.5 85.0999 149.26 84.9199 149.03C84.7299 148.79 84.6899 148.16 85.0699 147.99C87.1799 147.02 89.4599 147.06 91.6499 147.71C95.4699 148.84 97.05 147.04 97.62 148.13Z" fill="#ED8A72"/>
<path d="M164.01 135.98C163.62 136.95 164.28 138.18 163.23 138.44C162.85 138.54 162.42 138.12 162.38 137.64C162.33 136.94 162.51 136.27 162.27 135.6C161.83 135.58 161.46 135.42 161.3 135.14C161.14 134.86 161.19 134.48 161.4 134.25C161.7 133.93 162.03 134.01 162.46 134.09L167.31 134.99C167.83 135.09 168.09 135.47 168.05 135.92C168.01 136.44 167.57 136.64 167.03 136.54L164.01 135.98Z" fill="#ED8A72"/>
<path d="M186.15 129.46L181.08 128.98C180.57 128.93 180.01 128.57 180.12 128.01C180.42 126.55 180.03 125.45 181 125.46C181.45 125.46 181.81 125.8 181.79 126.32C181.78 126.68 181.74 127.01 181.85 127.39L186.62 127.89C187.02 127.93 187.22 128.51 187.17 128.79C187.1 129.19 186.74 129.52 186.15 129.47V129.46Z" fill="#ED8A72"/>
<path d="M92.43 138.07C91.17 138.44 89.81 138.44 88.54 138.04C87.27 137.64 86.02 137.72 84.77 138.14C84.46 138.24 84.05 137.78 84.04 137.55C83.98 136.28 86.95 136.09 89.06 136.71C91.39 137.4 92.77 136.04 92.99 137.15C93.08 137.6 92.91 137.92 92.43 138.07Z" fill="#ED8A72"/>
<path d="M116.08 157.59C116.23 158.47 114.12 158.8 112.26 158.3C109.59 157.58 108.65 158.99 108.03 157.85C107.53 156.93 110.19 156.2 112.66 156.92C113.56 157.18 114.41 157.15 115.3 156.94C115.66 156.85 116.02 157.27 116.08 157.58V157.59Z" fill="#ED8A72"/>
<path d="M96.5199 133.79C96.9499 134.9 94.83 135.18 92.98 134.65C91.29 134.17 90.1599 135.1 89.8899 134.26C89.5399 133.17 91.67 132.85 93.36 133.34C95.05 133.83 96.1699 132.9 96.5199 133.79Z" fill="#ED8A72"/>
<path d="M162.84 129.25L159.92 128.95C159.38 128.9 158.88 128.88 158.54 128.44C158.36 128.2 158.29 127.92 158.38 127.7C158.5 127.42 158.79 127.2 159.16 127.25L162.87 127.76C163.23 127.81 163.34 128.25 163.35 128.5C163.36 128.77 163.26 129.28 162.84 129.24V129.25Z" fill="#ED8A72"/>
<path d="M127.57 121.8C125.41 121.17 123.69 121.64 123.56 120.75C123.52 120.45 123.75 120.02 124.11 120.03L125.59 120.09C125.73 119.76 125.81 118.88 125.47 118.75C124.96 118.55 124.67 118.43 124.7 117.92C124.73 117.41 125.15 117.28 125.68 117.32L128.59 117.57C129.08 117.61 129.36 117.9 129.31 118.35C129.19 119.43 127.76 118.72 127.07 119.03C126.67 119.21 126.77 120.21 127.22 120.24C127.73 120.28 128.12 120.55 128.2 120.94C128.26 121.23 127.94 121.9 127.58 121.79L127.57 121.8Z" fill="#ED8A72"/>
<path d="M121.36 123.6L121.27 124.93C121.24 125.3 120.83 125.38 120.54 125.33C119.65 125.18 120.05 124.2 119.9 123.25C119.62 123.14 119.33 122.83 119.33 122.62C119.33 122.41 119.64 121.85 119.94 121.9L123.29 122.49C123.79 122.58 124.18 122.83 124.18 123.23C124.18 123.82 123.76 124.16 123.18 124.02L121.38 123.6H121.36Z" fill="#ED8A72"/>
<path d="M115.99 118.76L112.58 118.59C112.16 118.57 111.87 118.1 111.9 117.8C111.94 117.43 112.28 117.11 112.71 117.14L115.58 117.33C116.03 117.36 116.35 117.51 116.51 117.87C116.61 118.11 116.41 118.78 115.98 118.76H115.99Z" fill="#ED8A72"/>
<path d="M116.87 121.76L114.5 121.49C114.1 121.44 113.92 120.99 113.97 120.67C114.01 120.39 114.33 120.03 114.72 120.08L117.31 120.41C117.65 120.45 117.69 120.98 117.65 121.22C117.6 121.5 117.35 121.82 116.88 121.76H116.87Z" fill="#ED8A72"/>
<path d="M138.01 86.2C140.1 88.54 142.05 88.61 141.62 89.69C141.47 90.06 140.99 90.22 140.57 89.96C139.13 89.07 137.75 88.11 136.63 86.82C136.37 86.52 136.74 86.02 136.99 85.91C137.31 85.77 137.73 85.89 138.01 86.2Z" fill="#ED8A72"/>
<path d="M136.24 89.7101C136.52 89.9101 136.37 90.4401 136.23 90.6001C136.03 90.8201 135.6 90.9501 135.28 90.7201C133.95 89.7501 132.77 88.6301 131.69 87.3601C131.42 87.0401 131.72 86.6101 131.92 86.4601C132.3 86.1701 132.7 86.3501 132.97 86.7001C133.89 87.8901 134.97 88.8201 136.24 89.7201V89.7101Z" fill="#ED8A72"/>
<path d="M125.19 89.8599C125.63 90.1899 125.76 90.4799 125.62 90.9499C125.53 91.2299 124.94 91.5699 124.6 91.2599C123.39 90.1599 122.28 88.9599 121.35 87.5599C121.15 87.2599 121.57 86.7999 121.83 86.7299C122.9 86.4599 123.32 88.4499 125.19 89.8499V89.8599Z" fill="#ED8A72"/>
<path d="M130.96 90.15C131.26 90.4 130.99 90.85 130.83 90.99C130.59 91.2 130.16 91.27 129.86 91.01C128.67 89.98 127.6 88.85 126.65 87.58C126.44 87.3 126.68 86.97 126.84 86.82C127.05 86.62 127.51 86.5 127.74 86.8C128.67 88.06 129.71 89.12 130.96 90.16V90.15Z" fill="#ED8A72"/>
<path d="M119.81 89.79C120.21 90.13 120.39 90.47 120.14 90.88C119.97 91.17 119.4 91.34 119.08 91.04C118.03 90.06 117.21 88.91 116.38 87.74C116.12 87.38 116.21 86.87 116.54 86.67C117.66 86 117.97 88.24 119.81 89.79Z" fill="#ED8A72"/>
<path d="M114.56 89.45C114.93 89.83 115.19 90.13 114.94 90.52C114.69 90.91 114.13 91.02 113.77 90.62C112.8 89.56 111.96 88.38 111.32 87.1C111.13 86.73 111.43 86.33 111.71 86.23C112.75 85.85 113.03 87.87 114.57 89.45H114.56Z" fill="#ED8A72"/>
<path d="M109.85 89.31C110.11 89.66 109.74 90.06 109.48 90.17C108.56 90.56 107.43 88.16 106.6 86.77C106.38 86.4 106.3 85.95 106.62 85.68C106.92 85.44 107.52 85.48 107.74 85.91C108.36 87.09 109.01 88.19 109.84 89.32L109.85 89.31Z" fill="#ED8A72"/>
<path d="M76.09 90.32C75.68 90.66 75.18 90.25 75.06 89.98C74.87 89.56 75.12 89.36 75.48 89.06C78.1 86.86 80.33 84.26 82.1 81.32C82.33 80.94 82.55 80.68 82.95 80.73C83.21 80.76 83.78 81.18 83.58 81.52C81.66 84.89 79.16 87.84 76.1 90.32H76.09Z" fill="#ED8A72"/>
<path d="M82.0199 89.7801C81.5999 90.2001 81.2699 90.3601 80.8799 90.0101C80.5199 89.6801 80.5199 89.3001 80.9199 88.9201C83.3399 86.6001 85.3599 83.9701 86.8799 80.9801C87.0599 80.6301 87.4199 80.5201 87.7299 80.6301C87.9899 80.7201 88.3999 81.0801 88.2199 81.4301C86.5999 84.5501 84.5199 87.2701 82.0199 89.7801Z" fill="#ED8A72"/>
<path d="M87.48 89.0401C87.15 89.3901 86.6799 89.0601 86.5599 88.8401C86.3599 88.4701 86.43 88.1201 86.74 87.7701C88.72 85.6001 90.26 83.1301 91.55 80.5201C91.75 80.1201 92.26 80.0701 92.49 80.2201C92.88 80.4701 92.91 80.8201 92.71 81.2301C91.32 84.0601 89.71 86.7101 87.48 89.0501V89.0401Z" fill="#ED8A72"/>
<path d="M119.9 81.81C117.85 80.93 117.05 78.72 117.77 76.8C118.48 74.88 120.57 73.74 122.62 74.4C124.78 75.09 125.9 77.42 125.18 79.44C124.42 81.58 122.13 82.77 119.9 81.82V81.81ZM120.71 76.3C119.53 76.74 119.16 78.05 119.64 79.05C120.09 79.99 121.23 80.45 122.17 80.07C123.26 79.63 123.78 78.5 123.37 77.48C122.96 76.46 121.85 75.87 120.71 76.3Z" fill="#ED8A72"/>
</svg>
