<svg width="250" height="250" viewBox="0 0 250 250" fill="none" xmlns="http://www.w3.org/2000/svg">
<g clip-path="url(#clip0_902_535)">
<path d="M205.88 27.9501C159.04 -10.5799 94.44 -9.0899 61.6 31.2801C55.31 39.0101 50.64 47.6201 47.53 56.7401C36.56 61.9401 26.74 69.4301 18.78 79.2001C-14.06 119.57 -2.71999 183.52 44.12 222.05C90.96 260.58 155.56 259.09 188.4 218.72C194.69 210.99 199.36 202.38 202.47 193.26C213.44 188.06 223.26 180.57 231.22 170.8C264.06 130.43 252.72 66.4801 205.88 27.9501Z" fill="#E6FCE9"/>
<path d="M55.7478 58.4678C56.0419 57.6934 56.908 57.3037 57.6824 57.5976C58.4568 57.8917 58.8464 58.7578 58.5525 59.5322C58.2589 60.3054 57.9859 61.0661 57.7332 61.8242L57.532 62.4277L56.9588 62.7021C56.2268 63.0531 55.494 63.4048 54.7547 63.7842C54.0176 64.1623 53.1133 63.8718 52.7351 63.1347C52.3571 62.3977 52.6485 61.4934 53.3855 61.1152C53.9666 60.817 54.5408 60.5373 55.0964 60.2695C55.3037 59.6706 55.5189 59.0707 55.7478 58.4678Z" fill="#A0EAA7"/>
<path d="M115.601 237.448C117.295 237.508 118.985 237.52 120.668 237.485C121.496 237.467 122.181 238.125 122.199 238.953C122.216 239.781 121.559 240.467 120.731 240.485C118.991 240.521 117.245 240.508 115.495 240.447C114.667 240.417 114.019 239.723 114.048 238.895C114.078 238.067 114.773 237.419 115.601 237.448ZM132.77 236.384C133.588 236.251 134.358 236.807 134.491 237.624C134.624 238.442 134.069 239.213 133.252 239.346C131.531 239.626 129.798 239.855 128.056 240.033C127.232 240.118 126.495 239.519 126.411 238.695C126.326 237.87 126.926 237.134 127.751 237.049C129.434 236.876 131.108 236.654 132.77 236.384ZM101.77 237.447C101.908 236.63 102.681 236.079 103.498 236.216C105.173 236.498 106.848 236.733 108.521 236.922C109.344 237.015 109.936 237.758 109.843 238.581C109.75 239.404 109.007 239.997 108.184 239.904C106.457 239.708 104.728 239.465 103.001 239.174C102.184 239.037 101.633 238.263 101.77 237.447ZM144.579 233.569C145.368 233.318 146.211 233.754 146.462 234.543C146.714 235.333 146.277 236.176 145.488 236.427C143.823 236.957 142.14 237.435 140.442 237.862C139.639 238.063 138.823 237.575 138.622 236.772C138.42 235.968 138.908 235.154 139.712 234.952C141.35 234.541 142.973 234.079 144.579 233.569ZM89.7779 234.446C90.0168 233.653 90.8539 233.203 91.6471 233.442C93.275 233.932 94.9074 234.377 96.5426 234.779C97.3471 234.976 97.8395 235.788 97.6422 236.593C97.4448 237.398 96.6323 237.89 95.8277 237.693C94.142 237.279 92.4592 236.82 90.7818 236.315C89.9888 236.076 89.5392 235.239 89.7779 234.446ZM78.2379 229.998C78.5707 229.24 79.4559 228.895 80.2145 229.228C81.7726 229.911 83.3394 230.551 84.9127 231.15C85.6869 231.444 86.0762 232.311 85.7818 233.085C85.4873 233.859 84.6206 234.249 83.8463 233.954C82.2261 233.338 80.6132 232.678 79.0094 231.975C78.2507 231.642 77.9052 230.757 78.2379 229.998ZM155.827 229.029C156.569 228.661 157.469 228.964 157.837 229.706C158.204 230.449 157.901 231.349 157.159 231.717C155.589 232.495 153.997 233.221 152.384 233.896C151.62 234.215 150.741 233.854 150.421 233.09C150.102 232.326 150.462 231.447 151.226 231.127C152.78 230.477 154.315 229.778 155.827 229.029ZM67.3072 224.226C67.7258 223.511 68.6441 223.271 69.359 223.69C70.8295 224.55 72.3119 225.371 73.8043 226.151C74.5385 226.534 74.8228 227.441 74.4391 228.175C74.0552 228.909 73.1487 229.193 72.4146 228.809C70.8797 228.007 69.3551 227.163 67.8434 226.279C67.1285 225.86 66.8888 224.941 67.3072 224.226ZM166.241 222.819C166.917 222.34 167.853 222.501 168.332 223.177C168.81 223.853 168.649 224.789 167.973 225.268C166.54 226.282 165.078 227.245 163.591 228.157C162.885 228.591 161.962 228.37 161.529 227.664C161.095 226.958 161.316 226.034 162.022 225.601C163.454 224.722 164.861 223.795 166.241 222.819ZM57.0953 217.246C57.5912 216.583 58.5313 216.447 59.1949 216.943C60.5612 217.963 61.9416 218.946 63.3355 219.891C64.0213 220.355 64.2014 221.288 63.7369 221.974C63.2722 222.66 62.3388 222.839 61.6529 222.374C60.2207 221.404 58.8022 220.394 57.399 219.346C56.7354 218.85 56.5995 217.91 57.0953 217.246ZM175.566 215.068C176.16 214.49 177.11 214.504 177.687 215.098C178.264 215.692 178.25 216.642 177.656 217.219C176.393 218.446 175.098 219.625 173.774 220.755C173.144 221.293 172.198 221.218 171.66 220.588C171.122 219.958 171.197 219.011 171.827 218.473C173.102 217.384 174.349 216.25 175.566 215.068ZM47.5709 209.452C48.0915 208.808 49.0359 208.707 49.6803 209.228C50.3207 209.745 50.969 210.256 51.6246 210.761L51.6676 210.794L51.7076 210.829C52.3453 211.397 52.9867 211.956 53.6324 212.505C54.2633 213.042 54.34 213.988 53.8033 214.619C53.2666 215.25 52.32 215.327 51.6891 214.79C51.0383 214.237 50.3913 213.673 49.7486 213.102C49.0903 212.595 48.4389 212.082 47.7955 211.562C47.1512 211.041 47.0506 210.097 47.5709 209.452ZM183.658 205.77C184.123 205.085 185.057 204.906 185.742 205.371C186.427 205.837 186.605 206.77 186.139 207.455C185.698 208.105 185.256 208.722 184.816 209.295L184.377 209.853C183.823 210.538 183.26 211.211 182.69 211.873C182.149 212.501 181.202 212.571 180.575 212.031C179.947 211.49 179.877 210.543 180.418 209.915C180.968 209.277 181.509 208.628 182.044 207.967C182.563 207.324 183.104 206.585 183.658 205.77ZM38.7789 201.255C39.3691 200.674 40.3187 200.681 40.9 201.271C42.0506 202.439 43.234 203.585 44.4488 204.707C45.0574 205.269 45.0949 206.219 44.5328 206.827C43.9707 207.436 43.0222 207.473 42.4137 206.911C41.1639 205.757 39.947 204.578 38.7633 203.376C38.1821 202.786 38.1889 201.836 38.7789 201.255ZM190.263 194.013C190.631 193.27 191.531 192.966 192.273 193.333C193.016 193.701 193.32 194.6 192.953 195.343C192.132 197.003 191.239 198.747 190.31 200.465C189.916 201.194 189.006 201.465 188.277 201.071C187.549 200.676 187.278 199.767 187.671 199.038C188.58 197.359 189.455 195.648 190.263 194.013ZM30.9713 192.104C31.624 191.594 32.5666 191.709 33.0768 192.362C34.0872 193.654 35.1318 194.928 36.2105 196.18C36.7512 196.808 36.681 197.755 36.0533 198.296C35.4257 198.837 34.4788 198.766 33.9381 198.138C32.8281 196.849 31.7523 195.539 30.7125 194.209C30.2025 193.557 30.3187 192.614 30.9713 192.104ZM24.2633 182.125C24.9701 181.693 25.8937 181.916 26.3258 182.623C27.1819 184.024 28.0741 185.409 29.0025 186.776C29.468 187.461 29.2904 188.394 28.6051 188.86C27.9198 189.325 26.9865 189.146 26.5211 188.461C25.5657 187.054 24.6474 185.629 23.7662 184.188C23.3342 183.481 23.5565 182.557 24.2633 182.125ZM197.368 182.398C198.08 181.974 199 182.208 199.423 182.92C199.847 183.632 199.614 184.552 198.902 184.976C198.277 185.348 197.778 185.639 197.434 185.838C197.401 185.857 197.369 185.874 197.338 185.892C197.307 185.966 197.272 186.048 197.233 186.138C197.035 186.593 196.746 187.249 196.382 188.06C196.043 188.816 195.156 189.154 194.4 188.815C193.644 188.475 193.307 187.587 193.646 186.831C194.005 186.032 194.289 185.385 194.483 184.94C194.58 184.717 194.655 184.544 194.705 184.428C194.73 184.37 194.749 184.326 194.761 184.296C194.767 184.282 194.772 184.271 194.775 184.264C194.777 184.26 194.778 184.257 194.779 184.255L194.78 184.254L194.979 183.785L195.421 183.534L195.423 183.533C195.425 183.533 195.426 183.532 195.428 183.531C195.433 183.528 195.442 183.523 195.453 183.517C195.474 183.505 195.506 183.486 195.549 183.461C195.636 183.412 195.764 183.338 195.931 183.241C196.265 183.048 196.754 182.763 197.368 182.398ZM206.594 176.529C207.279 176.063 208.212 176.24 208.678 176.925C209.144 177.61 208.967 178.543 208.282 179.009C206.938 179.923 205.635 180.78 204.42 181.561C203.723 182.009 202.794 181.807 202.346 181.111C201.898 180.414 202.101 179.485 202.797 179.037C203.994 178.269 205.275 177.426 206.594 176.529ZM18.7496 171.437C19.5016 171.09 20.3926 171.418 20.7398 172.17C21.4279 173.66 22.1543 175.138 22.9186 176.602C23.3019 177.336 23.0172 178.242 22.2828 178.625C21.5486 179.009 20.6429 178.725 20.2594 177.99C19.4727 176.484 18.7246 174.962 18.0162 173.428C17.6689 172.676 17.9975 171.784 18.7496 171.437ZM215.323 170.037C215.96 169.508 216.906 169.596 217.435 170.234C217.964 170.871 217.877 171.817 217.24 172.346C216.059 173.327 214.825 174.294 213.576 175.233C212.914 175.73 211.974 175.597 211.476 174.935C210.978 174.273 211.111 173.332 211.773 172.834C212.99 171.919 214.185 170.982 215.323 170.037ZM222.922 162.202C223.425 161.544 224.366 161.417 225.025 161.919C225.684 162.421 225.81 163.363 225.308 164.022C224.783 164.711 224.243 165.394 223.691 166.07C223.201 166.669 222.666 167.271 222.095 167.871C221.524 168.472 220.575 168.495 219.974 167.924C219.374 167.353 219.35 166.404 219.921 165.804C220.448 165.249 220.933 164.703 221.369 164.17C221.9 163.521 222.417 162.865 222.922 162.202ZM14.524 160.178C15.3118 159.922 16.1585 160.353 16.4146 161.141C16.9221 162.701 17.4694 164.254 18.0572 165.797C18.3521 166.571 17.9641 167.438 17.19 167.733C16.416 168.028 15.5495 167.639 15.2545 166.865C14.6491 165.276 14.084 163.677 13.5611 162.069C13.305 161.281 13.7363 160.434 14.524 160.178ZM229.39 152.103C229.778 151.371 230.686 151.093 231.418 151.481C232.149 151.869 232.429 152.776 232.041 153.508C231.23 155.037 230.365 156.542 229.445 158.023C229.008 158.726 228.083 158.942 227.379 158.505C226.676 158.068 226.46 157.143 226.897 156.44C227.78 155.018 228.612 153.571 229.39 152.103ZM11.6813 148.496C12.4944 148.338 13.2824 148.869 13.441 149.682C13.7549 151.291 14.111 152.898 14.5094 154.498C14.7094 155.302 14.2204 156.117 13.4166 156.317C12.6127 156.517 11.7983 156.027 11.5982 155.223C11.1876 153.573 10.8205 151.916 10.4967 150.256C10.3381 149.443 10.8684 148.655 11.6813 148.496ZM234.132 141.082C234.398 140.297 235.249 139.877 236.034 140.142C236.819 140.407 237.24 141.258 236.974 142.043C236.419 143.686 235.809 145.311 235.144 146.915C234.827 147.68 233.95 148.044 233.185 147.727C232.42 147.41 232.056 146.532 232.373 145.767C233.012 144.224 233.598 142.662 234.132 141.082ZM10.316 136.548C11.1425 136.494 11.8564 137.12 11.9107 137.947C12.0183 139.582 12.1707 141.219 12.3668 142.856C12.4654 143.678 11.8786 144.425 11.0563 144.524C10.2338 144.622 9.487 144.036 9.38828 143.213C9.18581 141.524 9.02872 139.832 8.91758 138.143C8.86347 137.316 9.48953 136.602 10.316 136.548ZM237.08 129.439C237.221 128.622 237.997 128.075 238.813 128.216C239.629 128.357 240.177 129.133 240.036 129.949C239.74 131.66 239.391 133.359 238.988 135.043C238.795 135.849 237.986 136.346 237.18 136.154C236.375 135.961 235.878 135.151 236.07 134.346C236.458 132.724 236.795 131.087 237.08 129.439ZM10.5221 124.526C11.3485 124.582 11.9728 125.298 11.9166 126.124C11.8054 127.759 11.741 129.401 11.7223 131.047C11.7129 131.876 11.0331 132.539 10.2047 132.53C9.37654 132.52 8.71287 131.841 8.72227 131.013C8.74159 129.311 8.80843 127.613 8.92344 125.921C8.97963 125.095 9.69555 124.469 10.5221 124.526ZM239.787 116.01C240.615 116.031 241.269 116.719 241.248 117.547C241.204 119.283 241.109 121.013 240.962 122.734C240.892 123.559 240.166 124.172 239.34 124.102C238.515 124.031 237.903 123.305 237.973 122.48C238.115 120.819 238.206 119.148 238.249 117.471C238.27 116.643 238.959 115.989 239.787 116.01ZM10.6041 113.805C10.776 112.995 11.5722 112.477 12.3824 112.649C13.1928 112.821 13.7106 113.618 13.5387 114.428C13.1985 116.031 12.9061 117.646 12.6617 119.271C12.5385 120.09 11.7749 120.655 10.9557 120.532C10.1365 120.408 9.57269 119.644 9.6959 118.824C9.94906 117.141 10.2514 115.467 10.6041 113.805ZM239.046 103.786C239.869 103.694 240.611 104.287 240.703 105.111C240.896 106.836 241.041 108.56 241.136 110.282C241.182 111.109 240.548 111.816 239.721 111.862C238.894 111.907 238.187 111.275 238.141 110.448C238.049 108.783 237.908 107.115 237.721 105.445C237.629 104.621 238.222 103.879 239.046 103.786ZM14.0211 102.049C14.3112 101.273 15.1758 100.879 15.9518 101.169C16.7276 101.459 17.1218 102.324 16.8316 103.1C16.2572 104.636 15.7319 106.189 15.2555 107.757C15.0146 108.55 14.176 108.997 13.3834 108.756C12.591 108.515 12.1437 107.678 12.3844 106.885C12.8789 105.258 13.4245 103.645 14.0211 102.049ZM236.71 91.7639C237.514 91.5673 238.326 92.06 238.523 92.8645C238.935 94.5497 239.301 96.2392 239.622 97.9299C239.776 98.7437 239.241 99.5285 238.427 99.6829C237.613 99.837 236.829 99.3015 236.674 98.4876C236.364 96.849 236.008 95.2118 235.609 93.5774C235.412 92.7728 235.905 91.9608 236.71 91.7639ZM19.1803 90.9387C19.5864 90.2167 20.5012 89.9604 21.2232 90.3665C21.9449 90.7725 22.2011 91.6866 21.7955 92.4085C20.99 93.8408 20.234 95.2955 19.527 96.7688C19.1685 97.5155 18.2718 97.8303 17.525 97.4719C16.7782 97.1135 16.4635 96.2168 16.8219 95.47C17.5567 93.9388 18.3428 92.4278 19.1803 90.9387ZM232.904 80.1174C233.679 79.8247 234.545 80.2158 234.837 80.9905C235.451 82.6131 236.021 84.2442 236.547 85.8811C236.801 86.6697 236.367 87.515 235.579 87.7688C234.79 88.0224 233.946 87.5885 233.692 86.8001C233.181 85.2109 232.626 83.6272 232.031 82.051C231.738 81.2761 232.129 80.4102 232.904 80.1174ZM26.526 80.4133C27.0903 79.8072 28.0397 79.7729 28.6461 80.3372C29.2524 80.9015 29.2864 81.8508 28.7223 82.4573C28.0591 83.17 27.4324 83.8842 26.8473 84.5979C26.3651 85.2511 25.8946 85.9105 25.4361 86.5754C24.9659 87.2572 24.0321 87.4283 23.3502 86.9583C22.6682 86.488 22.4962 85.5543 22.9664 84.8723C23.4496 84.1716 23.9453 83.4765 24.4537 82.7883L24.4762 82.759L24.4996 82.7297C25.136 81.952 25.8136 81.179 26.526 80.4133ZM37.5289 70.8342C38.197 70.345 39.135 70.4897 39.6246 71.1575C40.1142 71.8257 39.9696 72.7645 39.3014 73.2542C37.7068 74.4225 36.1544 75.6313 34.6744 76.8684C34.0389 77.3995 33.0934 77.3154 32.5621 76.6799C32.0308 76.0443 32.115 75.098 32.7506 74.5667C34.2842 73.2847 35.8878 72.0367 37.5289 70.8342ZM227.756 69.0071C228.492 68.6266 229.397 68.9149 229.778 69.6506C230.574 71.1904 231.33 72.7422 232.046 74.304C232.39 75.0572 232.059 75.9473 231.306 76.2922C230.553 76.6371 229.663 76.3062 229.318 75.553C228.623 74.0348 227.887 72.526 227.113 71.0286C226.733 70.2928 227.021 69.3876 227.756 69.0071ZM47.1285 64.5276C47.8423 64.1072 48.7618 64.3451 49.1822 65.0588C49.6027 65.7726 49.3648 66.6921 48.651 67.1126C47.8148 67.6051 46.9737 68.1142 46.1324 68.6389C45.4295 69.0772 44.5044 68.8633 44.066 68.1604C43.6277 67.4575 43.8426 66.5324 44.5455 66.094C45.4085 65.5558 46.2707 65.0329 47.1285 64.5276ZM221.383 58.5452C222.072 58.0849 223.003 58.2704 223.463 58.9592C224.426 60.3999 225.351 61.8559 226.238 63.3254C226.666 64.0346 226.438 64.956 225.729 65.384C225.02 65.812 224.098 65.5844 223.67 64.8753C222.807 63.4452 221.906 62.0276 220.969 60.6253C220.509 59.9365 220.695 59.0054 221.383 58.5452ZM57.985 53.0051C58.3234 52.2491 59.2113 51.9109 59.9674 52.2493C60.7234 52.5877 61.0615 53.4747 60.7232 54.2307C60.413 54.9238 60.1133 55.6173 59.8238 56.3088C59.504 57.073 58.6251 57.4334 57.8609 57.1135C57.0968 56.7936 56.7364 55.9148 57.0563 55.1506C57.3551 54.4367 57.6646 53.7208 57.985 53.0051ZM213.905 48.845C214.54 48.3132 215.486 48.3967 216.018 49.0315C217.131 50.3595 218.209 51.7057 219.251 53.0686C219.754 53.7268 219.627 54.668 218.969 55.1712C218.311 55.6743 217.37 55.549 216.867 54.8909C215.852 53.5635 214.803 52.252 213.718 50.9583C213.186 50.3233 213.27 49.377 213.905 48.845ZM63.2008 43.0549C63.6333 42.3486 64.5568 42.1266 65.2633 42.5588C65.9699 42.9913 66.1918 43.9148 65.7594 44.6213C64.9769 45.8999 64.2277 47.211 63.5143 48.5413C63.1226 49.2711 62.2139 49.545 61.484 49.1536C60.754 48.7621 60.4793 47.8533 60.8707 47.1233C61.6095 45.7458 62.3869 44.3848 63.2008 43.0549ZM205.432 39.9944C206.007 39.3983 206.957 39.3811 207.553 39.9563C208.8 41.1595 210.014 42.383 211.195 43.6262C211.765 44.227 211.74 45.1769 211.139 45.7473C210.539 46.3175 209.589 46.2932 209.019 45.6926C207.869 44.481 206.686 43.2874 205.47 42.1145C204.875 41.5393 204.857 40.5905 205.432 39.9944ZM70.0035 33.7835C70.5484 33.1595 71.4957 33.095 72.1197 33.6399C72.7435 34.1847 72.8079 35.1321 72.2633 35.7561C71.7249 36.3727 71.1941 37.0009 70.6715 37.6399L70.6705 37.6389C70.2028 38.2116 69.7431 38.8004 69.2906 39.4026C68.793 40.0649 67.8533 40.198 67.191 39.7004C66.5288 39.2029 66.3948 38.2631 66.8922 37.6008C67.368 36.9676 67.8537 36.347 68.3482 35.7415L68.3492 35.7405C68.8922 35.0766 69.4439 34.4244 70.0035 33.7835ZM196.119 32.0891C196.631 31.4379 197.574 31.3251 198.225 31.8372C198.89 32.3598 199.552 32.8899 200.211 33.429C200.881 33.9777 201.544 34.5322 202.199 35.092C202.828 35.6303 202.902 36.5776 202.364 37.2073C201.826 37.8368 200.879 37.9105 200.25 37.3723C199.611 36.8264 198.964 36.2864 198.31 35.7512V35.7503C197.667 35.2238 197.021 34.7058 196.372 34.1956C195.721 33.6836 195.607 32.7404 196.119 32.0891ZM78.7682 25.2161C79.4049 24.6864 80.3506 24.7729 80.8805 25.4094C81.4104 26.0462 81.3239 26.9928 80.6871 27.5227C79.435 28.5647 78.2112 29.6533 77.0182 30.7893C76.4182 31.3606 75.4684 31.3375 74.8971 30.7376C74.3261 30.1377 74.3493 29.1887 74.9488 28.6174C76.1905 27.4351 77.4645 26.3009 78.7682 25.2161ZM186.236 25.2385C186.683 24.5409 187.611 24.3369 188.308 24.7835C189.724 25.6896 191.13 26.6313 192.525 27.6067C193.203 28.0816 193.369 29.0168 192.894 29.6956C192.419 30.3743 191.484 30.5394 190.805 30.0647C189.444 29.1127 188.072 28.1948 186.691 27.3108C185.993 26.8642 185.789 25.9363 186.236 25.2385ZM175.713 19.4045C176.087 18.6653 176.99 18.369 177.729 18.7424C179.231 19.5008 180.725 20.2961 182.211 21.1282C182.933 21.533 183.192 22.4474 182.787 23.1702C182.382 23.8929 181.467 24.1502 180.745 23.7454C179.296 22.9341 177.84 22.1592 176.377 21.4202C175.637 21.0467 175.34 20.144 175.713 19.4045ZM88.7936 18.1594C89.5073 17.7388 90.4276 17.977 90.8482 18.6907C91.2686 19.4043 91.0306 20.3238 90.317 20.7444C88.9093 21.574 87.5268 22.4523 86.1715 23.3792C85.4877 23.8468 84.5542 23.6714 84.0865 22.9876C83.619 22.3037 83.7943 21.3702 84.4781 20.9026C85.8892 19.9376 87.3283 19.023 88.7936 18.1594ZM164.642 14.7063C164.935 13.9312 165.8 13.5398 166.575 13.8323C168.15 14.4266 169.721 15.06 171.286 15.7327C172.047 16.0599 172.398 16.9423 172.071 17.7034C171.744 18.4641 170.862 18.8155 170.101 18.4885C168.578 17.8337 167.049 17.2172 165.516 16.6389C164.741 16.3465 164.35 15.4814 164.642 14.7063ZM99.817 12.7971C100.588 12.4946 101.459 12.8746 101.761 13.6458C102.064 14.4169 101.684 15.2875 100.913 15.5901C99.3868 16.1888 97.8813 16.8359 96.399 17.5325C95.6494 17.8846 94.7564 17.5631 94.4039 16.8137C94.0516 16.064 94.3739 15.17 95.1236 14.8176C96.6656 14.093 98.2307 13.4195 99.817 12.7971ZM153.118 11.2571C153.321 10.4541 154.137 9.96795 154.94 10.1711C156.574 10.5846 158.207 11.0397 159.837 11.5364C160.63 11.7778 161.077 12.616 160.836 13.4085C160.594 14.2009 159.756 14.6479 158.963 14.4065C157.378 13.9236 155.791 13.4811 154.204 13.0794C153.401 12.8761 152.915 12.0602 153.118 11.2571ZM111.529 9.20826C112.337 9.02581 113.14 9.53305 113.323 10.3411C113.505 11.1491 112.998 11.9524 112.19 12.135C110.586 12.4973 108.998 12.9076 107.427 13.3665C106.632 13.5988 105.798 13.143 105.566 12.3479C105.334 11.5527 105.79 10.7199 106.586 10.4876C108.216 10.011 109.865 9.58413 111.529 9.20826ZM142.955 7.88502C144.628 8.10015 146.304 8.35922 147.982 8.66236C148.797 8.8097 149.338 9.59032 149.191 10.4055C149.044 11.2205 148.264 11.7616 147.449 11.6145C145.821 11.3203 144.194 11.0692 142.572 10.8606C141.75 10.7549 141.171 10.0034 141.276 9.18189C141.382 8.36023 142.133 7.77938 142.955 7.88502ZM123.628 7.38013C124.453 7.3147 125.176 7.9314 125.242 8.75709C125.307 9.58281 124.691 10.3057 123.865 10.3713C122.221 10.502 120.588 10.6791 118.968 10.9036C118.148 11.017 117.391 10.4445 117.277 9.62427C117.163 8.80369 117.737 8.0456 118.557 7.93189C120.235 7.69936 121.926 7.51539 123.628 7.38013ZM130.758 7.09791C132.449 7.09726 134.147 7.1434 135.85 7.2356C136.677 7.28047 137.312 7.98678 137.267 8.81373C137.222 9.64087 136.515 10.2754 135.688 10.2307C134.039 10.1414 132.395 10.0973 130.759 10.0979C129.931 10.098 129.26 9.42699 129.259 8.59888C129.259 7.77054 129.93 7.09835 130.758 7.09791Z" fill="#A0EAA7"/>
<path d="M105.36 204.26C104.67 208.24 101.95 210.35 98.77 209.64C95.57 208.92 93.97 205.84 95.09 201.96C96.15 198.1 98.84 196.22 101.63 196.85C104.4 197.47 106 200.31 105.36 204.26ZM97.41 202.57C96.71 205.33 97.48 207.25 99.22 207.63C100.98 208.02 102.47 206.61 103.01 203.82C103.55 201.04 102.79 199.21 101.19 198.85C99.6 198.5 98.12 199.83 97.42 202.57H97.41ZM110.54 204.25C111.56 204.38 112.58 204.5 113.6 204.6C113.54 205.24 113.47 205.88 113.41 206.52C112.37 206.42 111.33 206.3 110.3 206.17C109.9 209.31 109.5 212.45 109.1 215.59C108.2 215.48 107.31 215.35 106.41 215.22C107.33 209.11 108.24 203 109.16 196.89C109.92 197 110.68 197.11 111.44 197.21C111.14 199.56 110.84 201.92 110.54 204.27V204.25Z" fill="#73BF7D"/>
<path d="M127.23 201.89C123.62 201.98 120 201.89 116.39 201.61C116.44 201 116.48 200.4 116.53 199.79C117.95 199.9 119.37 199.98 120.79 200.03C120.81 199.34 120.84 198.65 120.86 197.96C121.63 197.99 122.39 198.01 123.16 198.02C123.16 198.71 123.14 199.4 123.13 200.09C124.48 200.11 125.83 200.1 127.18 200.07C127.2 200.68 127.21 201.29 127.23 201.89ZM126.51 206.27C126.54 208.4 124.53 209.93 121.68 209.86C118.85 209.79 116.93 208.16 117.1 206.04C117.23 203.91 119.23 202.58 121.85 202.64C124.49 202.71 126.42 204.13 126.5 206.27H126.51ZM119.43 206.17C119.35 207.34 120.32 208.06 121.73 208.1C123.14 208.13 124.17 207.46 124.17 206.29C124.17 205.16 123.18 204.49 121.83 204.43C120.47 204.42 119.47 205.04 119.44 206.17H119.43ZM134.14 215.81C129.16 216.2 124.16 216.29 119.17 216.07C119.25 214.32 119.32 212.57 119.4 210.83C120.28 210.87 121.15 210.9 122.03 210.92C122.01 212.05 121.98 213.19 121.96 214.32C125.97 214.41 129.99 214.29 134 213.98C134.05 214.59 134.1 215.21 134.15 215.82L134.14 215.81ZM133.35 211.82C132.48 211.89 131.61 211.94 130.74 211.99C130.68 210.77 130.61 209.56 130.55 208.34C129.53 208.39 128.52 208.43 127.5 208.46C127.48 207.85 127.47 207.24 127.45 206.64C128.45 206.61 129.45 206.57 130.45 206.52C130.41 205.83 130.38 205.14 130.34 204.45C129.36 204.5 128.38 204.54 127.39 204.57C127.37 203.95 127.36 203.34 127.34 202.72C128.31 202.7 129.27 202.66 130.24 202.61C130.16 201.04 130.07 199.47 129.99 197.9C130.75 197.86 131.52 197.81 132.28 197.75C132.63 202.44 132.98 207.13 133.33 211.82H133.35Z" fill="#73BF7D"/>
<path d="M154.83 204.91C154.01 205.14 153.18 205.35 152.35 205.56C152.15 204.76 151.95 203.97 151.75 203.17C150.2 203.56 148.65 203.91 147.09 204.23C146.34 205.39 144.99 206.26 143.31 206.54C140.23 207.05 137.68 205.43 137.39 202.79C137.1 200.18 139.02 198.07 141.82 197.62C143.36 197.35 144.8 197.66 145.88 198.43C147.36 198.13 148.84 197.79 150.31 197.42C150.1 196.59 149.9 195.76 149.69 194.93C150.44 194.74 151.19 194.55 151.93 194.34C152.89 197.86 153.86 201.38 154.82 204.9L154.83 204.91ZM139.69 202.49C139.91 204.07 141.26 204.91 143 204.64C144.64 204.35 145.68 203.11 145.39 201.54C145.07 200.03 143.7 199.26 142.15 199.52C140.51 199.79 139.49 200.96 139.7 202.49H139.69ZM156.83 212.23C155.95 212.47 155.07 212.7 154.19 212.92C153.79 211.33 153.4 209.75 153 208.16C149.15 209.12 145.26 209.89 141.35 210.45C141.26 209.85 141.18 209.26 141.09 208.66C145.79 207.98 150.45 207.01 155.06 205.75C155.65 207.91 156.24 210.06 156.83 212.22V212.23ZM151.31 201.38C151.13 200.66 150.95 199.95 150.77 199.23C149.62 199.52 148.46 199.79 147.3 200.04C147.45 200.36 147.58 200.7 147.66 201.07C147.74 201.45 147.77 201.83 147.75 202.21C148.94 201.95 150.13 201.68 151.31 201.38Z" fill="#73BF7D"/>
<path d="M151.2 116.07C153.14 115.42 156.47 115.17 157.56 115.95L159.48 117.35C160.01 114.64 162.05 112.51 164.89 112.71C164.64 110.96 165.82 109.77 166.28 108.36C166.79 106.78 166.21 104.95 166.48 103.15L158.5 101.67C158.32 101.54 157.68 101.59 157.68 101.84V106.14L162.97 106.82C163.37 106.87 163.5 107.25 163.46 107.54C163.41 107.97 163.04 108.11 162.57 108.06L153.37 107.01C153.02 106.97 152.81 106.7 152.77 106.45C152.73 106.17 152.88 105.68 153.26 105.71L156.25 105.96V101.32L141.88 99.11L138.61 98.64L138.68 102.65C138.8 102.99 139.52 102.89 139.8 102.92L149.58 104.11C149.87 104.15 150.15 104.57 150.15 104.77C150.15 105.05 149.82 105.45 149.47 105.41L146.75 105.11L146.72 109.5L154.31 110.32C154.69 110.36 154.93 110.58 154.99 110.89C155.04 111.13 154.79 111.67 154.4 111.63L142.46 110.44C142.07 110.4 141.89 109.89 141.95 109.65C142.03 109.32 142.37 109.09 142.77 109.13L145.34 109.34V104.98L138.63 104.21L138.57 111.93C138.57 112.41 137.9 112.64 137.61 112.56C137.12 112.43 136.95 112.06 136.95 111.55L136.93 104.23L134.11 104.59C133.71 104.64 133.39 104.52 133.23 104.18C133.09 103.87 133.25 103.36 133.68 103.29L136.92 102.82V98.64L130.97 99.58L130.9 105.01C130.9 105.55 130.67 105.93 130.17 106.03C129.86 106.1 129.2 105.83 129.19 105.33V99.15C129.18 98.63 129.73 98.05 130.18 97.97L132.56 97.55V89.41L125.89 90.85L125.85 101.08C125.85 101.54 125.44 101.91 125.06 101.93C124.76 101.94 124.18 101.6 124.18 101.16V90.27C124.18 89.63 124.78 89.37 125.28 89.26L132.9 87.52C133.48 87.39 134.26 87.66 134.26 88.33L134.28 97.3L136.81 96.93C137.63 96.81 138.36 96.88 139.29 97.01V82.79L133.88 84.39L118.5 88.41L118.46 100.99C118.46 101.46 117.95 101.82 117.59 101.79C117.2 101.76 116.79 101.41 116.78 100.94V91.1L101.23 94.57L101.2 97.73L103.34 98.16C104.42 98.38 104.86 99.43 104.82 100.48C104.8 101.21 104.66 101.78 104.1 102.4C109.47 107.38 114.96 111.99 120.74 116.39C121.38 116.88 121.48 117.45 121.08 118.16C120.72 118.8 121.7 121.78 119.04 123.81C117.64 124.88 115.92 125.15 114.17 124.51L109.75 128.98L109.77 145.73C109.77 146.32 112.11 145.79 112.1 147.58V149.59C112.1 150.32 111.52 150.75 110.71 150.82L110.69 163.47C110.69 164.84 108.94 165.11 107.19 164.63L107.15 166.12C107.13 166.79 106.63 167 106.09 167.18L97.26 170.03L91.01 167.8L88.11 168.59C87.54 169.54 88.45 171.01 87.03 171.37L76.87 173.96C76.14 174.15 75.58 174.09 74.91 173.75L63.42 167.94C63.12 168.15 62.77 168.28 62.54 168.28C62.31 168.28 61.82 168.12 61.73 167.73V116.65L58.95 116.88V167.81C58.95 168.36 58.5 168.67 58.13 168.71C57.76 168.75 57.18 168.52 57.18 167.97V116.93C56.27 116.68 55.79 116 55.8 115.16L55.85 112.17V95.21C55.12 94.58 54.75 93.82 54.81 92.83C54.89 91.35 56.01 90.2 57.62 90.47L82.95 94.7C82.45 91.35 84.21 88.31 87.42 87.74C87.35 84.87 89.72 82.63 92.59 83.09C92.84 80.84 94.37 79.23 96.46 78.72C98.7 78.18 100.94 79.08 102.05 81.12C102.91 81.01 103.66 81.24 104.46 81.75L104.57 76.99C103.33 77.25 102.51 76.87 101.63 76.06C101.12 75.59 100.55 74.31 101.4 73.78C105.59 71.15 109.61 68.4 113.44 65.25C113.8 64.4 114.58 63.73 115.29 63.69C116.46 63.18 117.04 64.26 117.89 64.5L128.45 67.48L128.49 62.99C126.6 63.16 124.77 61.55 125.16 60.05C125.34 59.34 125.84 59.27 126.49 58.96C130.36 57.11 134.21 55.09 137.61 52.39C137.98 51.28 138.39 49.85 139.9 49.82C141.23 49.79 142.23 50.64 142.62 52.01C148.43 54.2 154.6 56.08 160.66 57.49C161.25 57.63 161.64 57.58 161.95 57.99C162.88 59.22 161.89 60.79 160.53 61.96C162.95 63.74 165.36 65.08 167.94 66.42C171.59 68.32 175.34 69.74 179.11 71.32C180.19 71.77 179.57 73.58 179 74.13C177.94 75.16 176.82 75.78 175.4 75.26C175.32 75.23 175.16 75.19 175.14 75.36L175.16 81.16L180.38 81.6C181.23 81.67 181.71 82.23 182.13 82.93L183.47 85.17C183.81 85.73 183.85 86.44 183.47 87C182.81 87.98 181.95 87.64 180.91 87.89V96.94C184.08 97.33 185.93 100.18 185.73 103.4C188.36 103.31 190.53 105.02 191.02 107.5C191.47 109.77 190.07 112.1 189.01 111.39C188.61 111.12 188.63 110.61 188.97 110.16C189.78 109.08 189.64 107.49 188.86 106.41C188.08 105.33 186.6 104.71 185.26 105.2C184.84 105.36 184.57 105.45 184.24 105.22C183.89 104.98 183.77 104.61 183.92 104.14C184.4 102.54 184.01 100.75 182.83 99.57C182 98.74 180.91 98.43 179.78 98.58C178.23 98.8 176.82 99.89 176.83 101.57C176.83 102.03 176.64 102.84 175.97 102.67C175.02 102.42 173.64 102.57 173.3 103.77L173.24 106.04C175.58 106.59 177.42 108.23 178.06 110.69C179.71 110.52 181.21 110.98 182.34 112.13C183.47 113.28 183.99 114.71 183.84 116.48C185.89 116.2 187.69 116.68 188.9 118.18C190.93 120.68 189.92 124.45 188.49 123.76C188.1 123.57 187.98 123.1 188.19 122.63C188.8 121.27 188.31 119.72 187.29 118.85C186.13 117.86 184.56 117.74 183.25 118.5C182.86 118.73 182.43 118.73 182.12 118.46C181.74 118.12 181.86 117.74 182.03 117.25C182.48 116.02 182.2 114.52 181.38 113.51C180.49 112.42 179.05 112 177.81 112.58C177.4 112.78 177.07 112.76 176.76 112.57C176.35 112.32 176.44 112.02 176.41 111.55C176.31 109.86 175.08 108.51 173.51 107.91C171.78 107.25 169.88 107.65 168.47 108.78C165.69 111.01 166.86 113.8 166.35 114.32C165.64 115.05 164.35 113.62 162.53 115.11C161.48 115.97 160.96 117.33 161.11 118.73L178.99 132.86C179.88 133.57 179.55 134.77 179.73 135.87L187.35 142.45C187.71 142.76 188.01 143.33 188.01 143.82L187.98 151.79C187.98 152.34 187.44 152.58 187.01 152.53C186.58 152.48 186.25 152.12 186.25 151.6L186.2 144.62L182.22 145.24C181.72 145.32 180.89 145.85 180.89 146.5L180.84 167.98C180.84 168.6 180.54 169.04 179.95 169.04C179.36 169.04 179.07 168.59 179.07 167.97L179.13 146.53L173.13 140.41C173.06 140.11 172.72 140.26 172.87 140.5L172.84 143.23L172.75 156.53C172.75 156.99 172.02 157.13 171.74 157.03C171.36 156.89 171.03 156.52 171.1 155.98L171.12 137.42L156.88 124.7L156.86 148.78L165.7 161.93L165.73 151.99L161.42 146.73C161.23 146.5 161.42 146.06 161.58 145.93C161.77 145.77 162.17 145.75 162.42 146.04L169.73 154.55C169.93 154.78 169.77 155.22 169.65 155.37C169.49 155.56 169.11 155.75 168.87 155.48L167.43 153.9C167.29 153.76 167.11 153.93 167.13 154.14L167.11 161.74L167.09 163.96L172.61 172.29C172.94 172.79 172.82 173.46 172.36 173.67C171.71 173.97 171.37 173.67 171.01 173.12L157.19 152.37L152.88 146.04C152.75 145.86 152.36 145.76 152.07 145.76H123.25L113.6 155.85C113.31 156.15 112.71 155.77 112.56 155.53C112.37 155.22 112.38 154.73 112.73 154.36L121.92 144.64L121.94 141.19C121.94 140.49 122.18 139.88 122.73 139.43L123.96 138.43C124.46 136.67 125.22 135.07 125.94 133.38L125.99 130.64C126.01 129.52 126.54 128.67 127.66 128.22L127.88 124.65C128.01 122.55 126.49 121.34 125.91 118.14C125.75 117.26 125.36 116.72 124.74 116.12C121.03 112.58 119.99 111.29 119.23 105.97C119.12 105.22 118.8 104.79 118.07 104.64L107.71 102.44C107.23 102.34 107.06 101.72 107.16 101.43C107.32 100.99 107.73 100.78 108.23 100.89L118.32 102.93C119.6 103.19 120.57 103.88 120.8 105.3L125.89 105.99C126.52 106.07 127.03 106.34 127.09 107.04L127.26 108.95L129.32 109.09C130.25 109.15 130.96 109.63 130.92 110.64C130.9 111.19 130.96 111.78 131.17 112.28L134.29 112.44C135.83 112.52 135.23 114.35 135.68 115.7L138.83 115.8C139.48 115.82 140.07 116.18 140.12 116.88L140.32 119.4L143.79 119.44C144.39 119.44 144.88 119.91 144.91 120.52L145.06 123.42L149.68 123.46L149.75 117.79C149.76 116.9 150.36 116.35 151.12 116.1L151.2 116.07ZM140.73 55.06C143.38 56.18 146.01 56.95 148.72 57.77C152.17 58.81 155.51 59.82 159.04 60.51C159.73 60.65 160.32 59.88 160.43 59.27C153.94 57.7 147.73 55.8 141.6 53.46C140.54 53.06 141.1 51.46 140.05 51.56C139 51.66 139.88 52.96 138.87 53.68C135.12 56.34 131.22 58.71 127.05 60.61C127.64 61.39 128.31 61.27 128.99 60.93C132.36 59.22 135.65 57.45 138.75 55.29C139.43 54.81 139.88 54.72 140.72 55.07L140.73 55.06ZM154.03 69.95C154.79 71.12 156 71.83 156.93 72.8L156.95 69.73V64.38L156.96 61.91C151.14 60.41 145.5 58.71 139.87 56.67C136.74 58.8 133.63 60.55 130.23 62.26V76.87L145.87 72.1L148.94 69.87C149 68.64 149.87 67.66 151.04 67.47C151.9 67.33 152.52 67.61 153.12 68C153.8 68.45 153.61 69.3 154.03 69.94V69.95ZM177.81 72.59C173.25 70.92 169.11 69.07 165.01 66.83C162.78 65.59 160.77 64.29 158.7 62.78L158.67 64.91C164.12 68.68 170.05 71.5 176.31 73.63C176.99 73.58 177.67 73.34 177.8 72.59H177.81ZM116.36 67.22C119.44 68.2 122.47 69.05 125.65 69.82C125.97 69.45 126.15 69.07 126.32 68.62L116.84 66.03L116.02 65.32C115.23 65.11 115.22 65.88 114.95 66.24C111.2 69.32 107.27 72.08 103.1 74.73C103.1 75.04 103.44 75.23 103.71 75.27C104.02 75.32 104.24 75.19 104.56 75C108.33 72.7 111.87 70.15 115.34 67.41C115.63 67.18 116 67.09 116.36 67.2V67.22ZM167.66 74.28C168.2 74.46 168.46 74.85 168.46 75.35V80.59L173.49 80.94L173.47 74.49C168.28 72.47 163.38 70.14 158.71 67.07L158.66 74.45L163.08 78.32L163.16 73.99C163.26 73.56 163.78 73 164.24 73.15L167.66 74.29V74.28ZM111.43 77.08C111.43 76.74 111.91 76.32 112.18 76.28L117.7 75.44C118.25 75.36 118.81 75.75 118.82 76.31L118.85 80.77C119.38 80.41 119.67 80.05 120.2 79.92L124.63 78.61L124.66 71.4L116.18 69.04C112.91 71.51 109.76 73.77 106.33 75.98L106.31 88.2L112.97 86.61C112.9 86.13 112.86 85.73 112.97 85.3L114.13 84.25C113.1 84.03 112.22 84.71 111.6 83.98C111.41 83.75 111.36 83.51 111.37 83.14L111.41 77.08H111.43ZM150.48 72.54C150.97 72.19 151.28 72.06 151.84 72.14C152.28 72.2 152.38 72.69 152.73 73.02L156.94 76.95L163.68 82.89C163.96 83.14 164.39 82.84 164.51 82.66C164.61 82.52 164.85 82.17 164.6 81.94L152.27 70.89C152.2 70.58 152.21 70.34 152.22 70.04C152.25 69.5 151.91 69.16 151.44 69.17C150.27 69.2 151.13 70.5 150.14 71.19L138.21 79.48C137.79 79.77 137.26 79.9 136.95 80.29C136.73 80.56 137.08 81.01 137.33 81.14C137.6 81.28 138.05 81.1 138.35 80.89L143.49 77.46L150.48 72.53V72.54ZM128.52 77.36L128.54 73.58L126.38 72.43L126.35 78.07L128.52 77.36ZM144.87 97.76L160.35 100.22V82.39L151.34 74.13L141.02 81.2L141 97.21L144.88 97.77L144.87 97.76ZM166.85 80.36V75.69L164.72 75L164.82 79.68C164.84 80.47 166.3 80.61 166.86 80.35L166.85 80.36ZM136.53 78.56C137.94 77.5 139.48 76.85 140.7 75.53L120.44 81.63L117.92 83.68L128.79 80.73L136.52 78.55L136.53 78.56ZM117.26 81.94L117.23 77.17L113.1 77.8V82.65L117.26 81.94ZM97.26 93L98.56 90.51C98.72 90.2 99.04 89.92 99.39 89.84L104.62 88.61V84.58C103.74 84.17 104.03 83.29 103.29 82.91C102.25 82.37 101.75 83.29 100.99 82.77C100.76 82.62 100.82 82.33 100.72 82.05C100.11 80.43 98.25 79.79 96.64 80.3C95.18 80.77 94 82.14 94.29 83.69C94.38 84.2 94.49 84.62 94.01 84.95C93.69 85.16 93.32 85.03 92.91 84.82C91.87 84.29 90.73 84.63 89.95 85.4C88.34 87 89.62 88.49 88.96 89.1C88.55 89.48 86.24 88.83 85 91.31C84.42 92.46 84.36 93.8 84.75 94.97L99.48 97.45L99.51 94.87C98.77 95.18 98.17 95.01 97.68 94.63C97.24 94.29 96.95 93.61 97.27 92.99L97.26 93ZM116.15 87.14L135.72 82.05L135 80.7L124.46 83.65L114.81 86.24C114.87 86.94 115.43 87.33 116.15 87.14ZM174.03 86.43L181.99 85.98L180.35 83.25L166.64 82.2C166.37 83.39 165.59 84.29 164.5 84.7C163.63 85.02 162.93 84.55 162.15 84C162.01 84.82 162.05 85.52 162.13 86.26L163.44 86.92L174.04 86.43H174.03ZM173.3 101.29L175.21 100.89C175.62 98.84 177.15 97.36 179.23 96.94V87.9L167.58 88.45L174.19 91.09C174.74 91.17 175.25 91.59 175.38 92.16C175.71 93.64 174.78 95.16 173.28 95.57V101.29H173.3ZM116.76 89.29C116.78 88.26 115.45 89.72 113.91 88.17L99.91 91.49L99.11 93.21L116.76 89.3V89.29ZM172.61 93.69C173.05 93.84 173.3 93.56 173.45 93.45C173.6 93.34 173.75 92.73 173.52 92.64L162.13 88.25C161.99 88.91 161.99 89.49 162.21 90.07L172.61 93.69ZM168.18 106.85C169.35 106.23 170.32 105.94 171.58 105.81L171.56 95.17L162.1 91.89L162.06 100.51L167.4 101.57C167.71 101.8 168.1 102.1 168.11 102.51L168.19 106.85H168.18ZM102.61 99.77L87.7 97.31L57.36 92.22C56.73 92.11 56.49 92.78 56.59 93.19C56.71 93.67 56.94 93.74 57.51 93.83L90.25 99.23L102.71 101.21C103.04 101.26 103.21 100.59 103.12 100.39C103.05 100.22 103.05 99.85 102.61 99.78V99.77ZM78.01 111.3C73.46 106.66 69.56 102.15 66.01 97.05L58.28 95.86C62.43 101.13 66.71 105.85 71.36 110.48L78.01 111.3ZM79.42 103.17L75.9 98.66L69.47 97.61C69.13 97.55 68.82 97.5 68.66 97.79C72.41 102.9 76.48 107.46 80.92 111.81L88.22 112.62C85.1 109.45 82.14 106.5 79.42 103.16V103.17ZM68.57 110.22C64.57 106.19 61.28 102.33 57.75 98.09L57.67 111.36L68.57 110.21V110.22ZM94.56 110.3C91.2 107.16 88.16 103.83 85.29 100.23L78.46 99.14L80.62 101.98C83.92 105.92 87.42 109.54 91.2 113.12L98.29 113.93L94.56 110.31V110.3ZM108.01 114.99L101.69 109.42C99.06 106.99 96.68 104.49 94.44 101.7L87.9 100.73C89.62 102.98 91.48 104.85 93.38 106.82L101.34 114.35L108 114.99H108.01ZM102.28 102.99L97.4 102.23C97.28 102.21 97.22 102.44 97.33 102.57C101.62 107.32 106.32 111.58 111.43 115.44C113.47 115.57 115.35 116.14 117.37 115.97C111.99 111.7 107.06 107.6 102.28 102.98V102.99ZM125.52 108.85C125.65 108.33 125.62 108 125.47 107.58L121.25 106.98C121.18 107.6 121.37 108.14 121.6 108.73L125.52 108.86V108.85ZM129.38 112.25C129.38 111.46 129.35 111.22 129.22 110.72L122.17 110.38C122.48 111.12 122.9 111.65 123.4 112.26L129.38 112.24V112.25ZM69.87 113.93C69.95 113.05 69.96 112.6 69.85 111.91L57.68 113.15C57.54 113.91 57.49 114.57 57.76 115.15L69.88 113.94L69.87 113.93ZM79.57 116.88C79.89 115.78 79.75 114.58 79.66 113.42L71.75 112.35L71.73 115.44C71.71 117.54 73.46 119.06 75.53 119.3C77.27 119.5 79.07 118.63 79.57 116.88ZM89.49 114.65L81.59 113.71L81.61 116.84C81.95 119.17 84.3 120.74 86.54 120.22C89.27 119.58 89.89 117.37 89.49 114.65ZM133.83 114.09L131.24 113.94L124.92 113.85L126.79 115.7L133.89 115.66L133.83 114.09ZM99.09 118.72C99.48 117.78 99.32 116.8 99.33 115.87L91.36 114.94V117.55C91.66 119.37 93.12 120.72 94.82 120.99C96.52 121.26 98.38 120.45 99.09 118.72ZM70.88 118.51C70.35 117.56 70.03 116.85 69.96 115.76L63.49 116.39L63.52 124.39L70.89 118.51H70.88ZM108.7 121.69C110.4 120.72 110.52 119.04 110.2 117.11L101.12 116.1V118.38C101.12 119.23 101.66 120.07 102.25 120.71C103.89 122.49 106.57 122.9 108.7 121.68V121.69ZM177.82 135.2C178.04 134.81 178.01 134.3 177.75 134.1L168.51 126.8L156.57 117.36C154.98 117.05 153.38 117.03 151.71 117.77L165.27 129.74L172.56 136.28C174.25 135.45 175.92 135.23 177.82 135.2ZM119.14 118.14L112.17 117.34L112.13 119.65C112.35 121.38 113.79 122.72 115.48 122.99C116.59 123.17 117.6 122.83 118.34 122.1C119.3 121.16 119.58 119.47 119.14 118.14ZM138.63 119.4C138.69 118.5 138.61 118.07 138.43 117.4L127.55 117.37L128.01 119.42L138.63 119.4ZM72.1 119.88L63.51 126.68V140.68C63.51 140.99 64.23 141.24 64.47 141.1C65.22 139.03 67.24 137.65 69.49 138.09C70.26 136.33 71.87 135.22 73.63 135.15C75.39 135.08 77.05 136.06 77.95 137.8C79.44 136.78 81.24 136.71 82.91 137.55C83.56 136.32 84.54 135.62 85.92 135.4V122.2L84.27 121.95C82.62 121.48 81.4 120.47 80.42 118.95C79.31 120.3 77.95 121.03 76.25 121.03C76.01 121.57 76.03 122.15 76.19 122.75C79.18 123.09 81.39 127.16 79.98 128.06C79.26 128.52 78.43 128.41 77.6 128.43L73.47 128.53L71.04 128.32C70.36 128.26 69.72 127.74 69.89 126.97C70.34 124.81 72.09 123.09 74.33 122.74L74.35 120.87C73.49 120.71 72.92 120.23 72.1 119.87V119.88ZM104.15 140.75L104.19 123.87C102.31 123.41 101.02 122.26 100 120.62C98.64 122.25 96.71 123.11 94.52 122.7L94.46 135.59C94.46 136.05 93.77 136.28 93.48 136.21C93.12 136.12 92.77 135.82 92.77 135.36V122.19C91.63 121.58 90.87 120.77 90.29 119.73C89.58 120.77 88.75 121.35 87.65 121.77V135.51C89.36 136.15 90.45 137.53 90.52 139.28C91.08 139.4 91.56 139.42 92.07 139.31C92.38 138.41 93.08 137.83 93.79 137.62C94.7 137.35 95.47 137.52 96.26 138.02C96.93 136.99 97.84 136.69 98.96 136.9C99.77 137.05 100.53 137.66 100.82 138.69C102.46 138.29 103.48 139.44 104.15 140.75ZM154 144.49L155.01 146.03C155.24 145.69 155.23 145.36 155.23 144.86V123.12L151.47 119.85V133.46C152.1 134.23 152.36 135.05 152.38 136L152.43 138.49L153.37 140.32L153.99 144.49H154ZM143.33 123.43C143.41 122.47 143.41 121.9 143.3 121.09H128.85L129.63 123.49L143.33 123.43ZM109.91 126.25L112.47 123.58C111.91 123.01 111.51 122.59 111.1 121.92L109.81 123.05C109.81 124.13 109.66 125.13 109.92 126.25H109.91ZM108.01 145.29L107.99 126.98L108.01 123.92L105.92 124.13V142.39C107.75 143.13 106.82 144.79 107.26 145.24C107.36 145.35 107.66 145.57 108.02 145.29H108.01ZM78.47 126.51C77.85 125.04 76.39 124.31 75.04 124.38C73.69 124.45 72.39 125.18 71.88 126.56C74.16 126.79 76.26 126.95 78.47 126.51ZM149.71 128.01C149.79 126.81 149.82 126.11 149.66 125.14L129.66 125.16C129.47 126.16 129.35 126.99 129.5 128.02H149.7L149.71 128.01ZM149.77 132.84L149.74 129.69L128.93 129.71C128.53 129.71 127.94 129.94 127.85 130.29C127.64 131.14 127.69 131.99 127.85 132.91L147.83 132.89L149.77 132.84ZM150.77 138.3L150.7 136C150.64 135.5 150.52 135.03 150.1 134.63L127.35 134.66C126.65 135.82 126.29 136.96 125.92 138.29H150.78L150.77 138.3ZM76.58 138.88C76.13 137.64 75.07 136.89 73.93 136.87C72.73 136.85 71.55 137.48 71.09 138.67C71.63 139.23 72.19 139.67 72.42 140.39C72.51 140.68 72.76 140.79 73.01 140.8C73.47 140.8 74.32 139.13 76.59 138.89L76.58 138.88ZM88.87 139.45C88.85 138.24 87.97 137.26 86.84 137.07C85.91 136.91 84.36 137.55 84.35 138.65C84.53 139.36 85.46 140.02 85.45 141.01C86.59 139.44 87.58 139.96 88.87 139.45ZM181.82 143.5L185.16 142.86L178.46 137.04C176.72 136.94 174.97 137.05 173.23 137.91C173.53 138.4 174.01 138.75 174.42 139.16L179.87 144.64C180.46 144.01 181.04 143.65 181.82 143.5ZM81.39 142.14C82.17 141.56 82.81 141.29 83.8 141.2C83.39 139.66 82.1 138.72 80.58 138.6C79.92 138.73 79.31 138.85 78.75 139.27C80.08 139.87 80.9 140.77 81.39 142.13V142.14ZM94.87 141.28C95.05 140.72 95.49 140.33 95.68 140.04C95.7 139.24 94.69 138.95 94.14 139.19C93.47 139.48 93.23 140.3 93.63 140.91C93.82 141.19 94.61 141.48 94.87 141.28ZM67.71 143.13C68.36 141.81 69.38 141.19 70.71 140.68C70.02 139.76 68.82 139.52 67.76 139.9C66.87 140.21 66.09 141.11 66.05 142.2C66.58 142.56 67.02 142.89 67.71 143.12V143.13ZM152.05 144.01L151.9 141.93C151.93 141.19 151.72 140.56 151.18 139.97H125.02C123.19 140.56 123.7 141.81 123.73 144.01H152.06H152.05ZM100.41 142.32L102.32 141.98C102.67 141.37 102.37 140.4 101.6 140.2C101.07 140.06 100.33 140.48 100.22 140.99C100.14 141.41 100.3 141.83 100.41 142.31V142.32ZM76.41 143.86C77.46 143.01 78.52 142.66 79.87 142.8C79.6 141.51 78.59 140.84 77.63 140.63C76.45 140.37 75.33 140.82 74.69 141.7C75.53 142.32 75.99 142.95 76.42 143.86H76.41ZM98.6 142.51C99.07 142.12 98.53 141.35 98.15 141.13C97.72 140.88 97.11 140.92 96.71 141.27C96.41 141.53 96.03 142.29 96.57 142.64C97.01 142.92 98.2 142.84 98.59 142.51H98.6ZM90.13 144.84C90.2 144.29 90.27 144.02 90.5 143.62C89.93 142.79 90.18 141.87 90.97 141.1L87.34 141.48C87.13 141.5 86.7 141.86 86.86 141.98C87.74 142.61 88.44 143.26 88.86 144.26L90.14 144.84H90.13ZM103.96 143.01C103.43 143.46 102.94 143.49 102.39 143.56L99.75 143.92C98.69 144.06 97.45 144.57 96.37 144.27L92.54 142.24C92.34 142.13 92.14 142.29 92.06 142.49C92.01 142.62 92.22 142.83 92.38 142.92L96.38 145.21L105.14 143.89C104.86 143.42 104.39 143.27 103.96 143.02V143.01ZM74.66 147.37L75.05 145.48C75.28 144.34 73.53 141.9 71.2 142.38C70.41 142.54 69.57 143.05 69.1 144.02L74.66 147.36V147.37ZM73.57 151.99V148.84L63.53 142.79L63.51 147.91L73.57 151.99ZM83.87 146.05L87.5 145.5C87.38 144.55 86.75 143.87 85.97 143.39C84.71 142.61 83.21 142.64 82.08 143.6C83.01 144.22 83.54 144.98 83.88 146.05H83.87ZM82.16 146.31C81.67 144.88 80.23 144.26 78.89 144.5C77.55 144.74 76.44 145.81 76.44 147.23L82.16 146.31ZM95.06 147.58C95.21 147.07 95.21 146.63 95.09 146.15L91.84 144.31C91.65 144.96 91.67 145.44 91.79 145.97L95.06 147.58ZM105.43 146.46L105.5 145.28L96.93 146.72C96.62 146.77 96.62 147.64 96.82 147.87L105.44 146.46H105.43ZM89.8 149.57L89.71 146.85L75.38 149.12L75.36 152L89.8 149.57ZM74.6 153.93C74.46 154.57 74.35 155.05 74.58 155.65L91.57 152.52L110.17 149.07C110.47 148.94 110.41 147.87 110.11 147.79L107.25 147.06L106.7 147.84L95.65 149.67L91.52 147.61V150.15C91.51 150.79 91.09 151.11 90.5 151.21L74.59 153.93H74.6ZM72.61 155.3C72.83 154.42 72.79 154.16 72.79 153.62L63.58 149.85C63.44 150.48 63.45 151.01 63.56 151.64L72.61 155.31V155.3ZM109.02 162.97V151.12C108.34 151.19 107.81 151.22 107.27 151.54V162.82C107.93 162.96 108.43 163.17 109.02 162.97ZM105.46 157.93L105.5 152.69C105.5 152.34 105.45 152.01 105.25 151.77L100.45 152.68L100.47 156.57L105.46 157.93ZM88.01 166.68L90.43 166.09L90.45 160.03C90.45 159.35 90.94 159.03 91.53 158.85L98.72 156.66L98.69 153L77.6 156.96L77.58 159.14L80.48 158.58C80.8 158.52 81.2 158.53 81.52 158.67L87.34 161.1C87.91 161.34 87.96 161.98 87.97 162.52L88.03 166.69L88.01 166.68ZM69.41 160.38L72.38 159.79V157.17L63.51 153.53V165.9L67.91 168.11V161.78C67.91 160.9 68.54 160.55 69.41 160.37V160.38ZM75.81 172.02V157.33L74.14 157.61V171.34C74.76 171.6 75.19 171.96 75.81 172.03V172.02ZM102.95 159.15C101.73 158.53 100.79 158.45 99.75 158.15L94.17 159.87L97.4 160.92L102.94 159.14L102.95 159.15ZM84.27 161.73L80.87 160.23L77.59 160.93V163.21L84.28 161.73H84.27ZM105.47 165.47L105.45 160.22L98.31 162.51V167.78L105.47 165.47ZM96.55 167.77V162.5L92.17 161.1V166.28L96.55 167.77ZM86.2 169.68L86.12 163.12L77.54 165L77.59 171.88L86.19 169.68H86.2ZM72.38 170.36V164.86L69.69 163.59L69.72 169.09L72.39 170.36H72.38Z" fill="#73BF7D"/>
<path d="M114.44 138.93C114.11 139.27 113.57 138.82 113.46 138.56C113.33 138.23 113.41 137.78 113.69 137.47L117.9 132.92C119.23 131.48 120.51 130.04 121.34 128.25L122.33 125.04C122.47 124.59 122.95 124.43 123.33 124.53C123.71 124.63 123.94 125.05 123.81 125.51L123.15 127.94C122.78 129.3 122.07 130.48 121.18 131.55L119.33 133.77L114.44 138.93Z" fill="#73BF7D"/>
<path d="M165.26 139.63C165.6 139.98 165.67 140.26 165.5 140.58C165.33 140.9 164.84 141.09 164.53 140.77L159.41 135.46C159.15 135.19 159.29 134.85 159.46 134.65C159.6 134.48 160 134.23 160.25 134.48L165.28 139.63H165.26Z" fill="#73BF7D"/>
<path d="M147.05 115.64L144.06 115.33C143.54 115.28 143.26 115.03 143.3 114.57C143.34 114.15 143.69 113.89 144.19 113.95L147.19 114.32C147.56 114.36 147.74 114.74 147.73 115.02C147.72 115.3 147.5 115.69 147.05 115.64Z" fill="#73BF7D"/>
<path d="M169.7 148.15C169.97 148.45 169.75 148.81 169.56 148.99C169.37 149.17 168.98 149.29 168.76 149.03L167.17 147.21C166.94 146.95 167.04 146.5 167.23 146.35C167.47 146.16 167.88 146.13 168.12 146.4L169.7 148.16V148.15Z" fill="#73BF7D"/>
<path d="M152.87 92.44L150.85 92.35L147.76 92.09C147.36 92.06 146.64 91.92 146.65 91.36V83.67C146.66 82.83 147.62 82.56 148.28 82.65L152.76 83.23C153.23 83.29 153.92 83.52 153.92 84.11L153.94 91.55C153.94 92.1 153.44 92.46 152.87 92.44ZM152.25 90.67V84.83L148.32 84.42L148.35 90.48L152.25 90.67Z" fill="#73BF7D"/>
<path d="M140.69 71.26L136.3 71.79C135.85 71.85 135.08 71.68 135.07 71.1L135.03 64.73C135.03 64.23 135.3 63.68 135.81 63.61L140.14 63.08C140.67 63.01 141.41 63.22 141.41 63.85L141.44 70.33C141.44 70.75 141.16 71.2 140.69 71.26ZM139.78 69.66V64.79L136.76 65.17V70L139.78 69.66Z" fill="#73BF7D"/>
</g>
<defs>
<clipPath id="clip0_902_535">
<rect width="250" height="250" fill="white"/>
</clipPath>
</defs>
</svg>
