<svg width="250" height="250" viewBox="0 0 250 250" fill="none" xmlns="http://www.w3.org/2000/svg">
<path d="M141.33 9.71997L155.48 21.25C160.07 24.99 165.8 27.04 171.71 27.06L190 27.13C202.43 27.18 213.07 36.07 215.33 48.3L218.41 65.04C219.51 71.01 222.68 76.4 227.35 80.27L240.51 91.16C250.27 99.23 252.74 113.19 246.34 124.13L237.94 138.49C234.85 143.78 233.73 149.99 234.8 156.03L237.68 172.39C239.86 184.77 232.82 196.93 220.99 201.19L204.3 207.2C198.67 209.23 193.91 213.15 190.85 218.3L181.81 233.48C175.51 244.06 162.63 248.73 151.02 244.64L133.57 238.5C128.02 236.55 121.96 236.55 116.41 238.5L98.96 244.64C87.35 248.73 74.46 244.06 68.17 233.48L59.13 218.3C56.07 213.15 51.31 209.23 45.68 207.2L28.99 201.19C17.16 196.93 10.11 184.77 12.3 172.39L15.18 156.03C16.24 150 15.13 143.78 12.04 138.49L3.64001 124.13C-2.75999 113.2 -0.279988 99.24 9.47001 91.16L22.63 80.27C27.31 76.4 30.47 71.01 31.57 65.04L34.65 48.3C36.9 36.07 47.54 27.18 59.98 27.13L78.27 27.06C84.19 27.04 89.92 24.99 94.5 21.25L108.65 9.71997C118.16 1.96997 131.8 1.96997 141.3 9.71997H141.33Z" fill="#FFFDD2"/>
<path d="M85.74 191.12C85.19 193.66 82.57 194.99 79.58 194.28C76.58 193.53 74.83 191.14 75.55 188.64C76.24 186.1 78.84 184.94 81.68 185.65C84.51 186.32 86.26 188.54 85.74 191.12ZM88.72 201.33C88.3 203.54 85.41 204.39 81.24 203.46C77.03 202.52 74.72 200.51 75.3 198.33C75.88 196.15 78.77 195.53 82.81 196.43C86.8 197.32 89.1 199.09 88.72 201.32V201.33ZM77.81 189.25C77.4 190.73 78.38 191.99 80.03 192.41C81.67 192.79 83.11 192.12 83.45 190.62C83.78 189.14 82.81 187.89 81.22 187.51C79.62 187.12 78.17 187.78 77.81 189.25ZM77.74 198.96C77.46 200.09 78.88 201.07 81.64 201.69C84.4 202.3 86.06 202.01 86.28 200.87C86.51 199.72 85.11 198.83 82.41 198.23C79.71 197.63 78.02 197.83 77.73 198.96H77.74ZM93.05 191.36C92.19 191.21 91.33 191.06 90.47 190.9C90.34 191.59 90.21 192.28 90.08 192.98C90.95 193.14 91.82 193.3 92.69 193.45C92.58 194.07 92.48 194.69 92.37 195.31C91.49 195.16 90.61 195 89.74 194.84C89.58 195.67 89.43 196.51 89.27 197.34C88.47 197.19 87.67 197.03 86.86 196.87C87.57 193.31 88.29 189.75 89 186.19C89.75 186.34 90.51 186.49 91.27 186.63C91.12 187.44 90.97 188.26 90.81 189.07C91.66 189.23 92.51 189.38 93.36 189.53C93.25 190.14 93.15 190.76 93.04 191.37L93.05 191.36Z" fill="#BFB85E"/>
<path d="M106.62 198.49C106.17 199.05 105.72 199.6 105.27 200.15C103.08 199.29 101.63 197.76 100.95 195.95C99.86 197.67 98.05 198.91 95.63 199.25C95.33 198.6 95.02 197.95 94.73 197.31C97.96 196.88 99.86 194.84 100.16 192.48C100.17 192.39 100.19 192.29 100.2 192.2C98.87 192.02 97.55 191.84 96.23 191.63C96.32 191.04 96.41 190.44 96.51 189.85C97.82 190.05 99.13 190.24 100.44 190.41C100.53 189.69 100.63 188.97 100.72 188.25C101.49 188.35 102.26 188.45 103.03 188.54C102.94 189.26 102.86 189.98 102.77 190.7C104.08 190.86 105.39 191 106.7 191.12C106.64 191.72 106.58 192.32 106.53 192.92C105.2 192.79 103.87 192.65 102.54 192.49C102.53 192.59 102.52 192.68 102.51 192.78C102.24 194.97 103.59 197.3 106.63 198.5L106.62 198.49ZM111.23 207.41C106.55 207.1 101.88 206.63 97.23 205.99C97.48 204.15 97.74 202.31 97.99 200.46C98.8 200.57 99.62 200.68 100.43 200.78C100.28 202.01 100.12 203.25 99.97 204.48C103.75 204.95 107.54 205.31 111.34 205.56C111.3 206.17 111.26 206.79 111.22 207.4L111.23 207.41ZM111 203C110.18 202.94 109.35 202.88 108.53 202.82C108.7 200.69 108.88 198.55 109.05 196.42C107.89 196.33 106.73 196.22 105.57 196.1C105.63 195.49 105.69 194.89 105.75 194.28C106.9 194.39 108.05 194.5 109.2 194.59C109.35 192.76 109.5 190.92 109.65 189.09C110.41 189.15 111.18 189.21 111.94 189.26C111.63 193.84 111.32 198.41 111 202.99V203Z" fill="#BFB85E"/>
<path d="M127.34 193.31C123.56 193.38 119.79 193.33 116.02 193.16C116.05 192.57 116.07 191.97 116.1 191.38C117.58 191.45 119.07 191.49 120.56 191.52C120.57 190.85 120.59 190.18 120.6 189.51C121.37 189.53 122.13 189.54 122.9 189.54C122.9 190.21 122.9 190.88 122.89 191.55C124.37 191.56 125.85 191.55 127.33 191.53C127.34 192.12 127.35 192.72 127.36 193.31H127.34ZM126.39 197.38C126.4 199.37 124.46 200.72 121.57 200.68C118.66 200.64 116.73 199.24 116.82 197.25C116.91 195.26 118.87 194.02 121.66 194.05C124.43 194.09 126.34 195.38 126.39 197.37V197.38ZM131.72 204.77C131.81 206.79 129.19 208.16 124.95 208.18C120.64 208.19 118.05 206.85 118.15 204.83C118.2 202.77 120.78 201.67 124.92 201.66C129 201.64 131.63 202.72 131.72 204.77ZM119.16 197.33C119.13 198.33 120.1 198.94 121.6 198.96C123.11 198.98 124.11 198.4 124.11 197.4C124.11 196.37 123.12 195.76 121.65 195.74C120.17 195.72 119.19 196.31 119.17 197.33H119.16ZM120.62 204.89C120.58 205.87 122.13 206.47 124.94 206.46C127.71 206.45 129.25 205.84 129.23 204.86C129.2 203.83 127.65 203.4 124.93 203.41C122.17 203.41 120.62 203.87 120.62 204.9V204.89ZM133.71 194.17C132.84 194.22 131.97 194.26 131.1 194.29C131.13 194.99 131.15 195.7 131.18 196.4C132.06 196.37 132.94 196.33 133.82 196.28C133.85 196.9 133.89 197.52 133.92 198.14C133.03 198.19 132.14 198.23 131.25 198.26C131.29 199.29 131.33 200.32 131.37 201.35C130.55 201.38 129.74 201.41 128.92 201.43C128.82 197.49 128.72 193.54 128.62 189.6C129.39 189.58 130.15 189.56 130.92 189.53C130.96 190.49 130.99 191.46 131.03 192.42C131.89 192.39 132.75 192.35 133.62 192.3C133.65 192.92 133.69 193.54 133.72 194.16L133.71 194.17Z" fill="#BFB85E"/>
<path d="M155.63 203.23C149.49 204.24 143.31 204.95 137.12 205.37C137.08 204.75 137.04 204.13 137 203.51C138.38 203.42 139.75 203.31 141.13 203.19C140.96 201.23 140.78 199.27 140.61 197.31C141.41 197.24 142.21 197.16 143.01 197.08C143.21 199.04 143.41 201 143.61 202.96C144.46 202.87 145.32 202.78 146.17 202.68C145.94 200.72 145.72 198.77 145.49 196.81C146.27 196.72 147.06 196.62 147.84 196.52C148.09 198.47 148.34 200.43 148.59 202.38C150.84 202.09 153.09 201.76 155.33 201.39C155.43 202 155.53 202.62 155.63 203.23ZM151.86 191.13C152.2 193.4 152.6 195.87 152.42 199.57C151.61 199.62 150.81 199.66 150 199.69C150.21 196.2 149.84 193.69 149.53 191.47C149.53 191.45 149.53 191.43 149.53 191.41C145.71 191.95 141.87 192.37 138.03 192.66C137.98 192.05 137.94 191.45 137.89 190.84C142.47 190.49 147.03 189.96 151.57 189.26C151.67 189.88 151.76 190.5 151.86 191.12V191.13Z" fill="#BFB85E"/>
<path d="M174.08 193.9C173.29 194.12 172.5 194.33 171.7 194.53C171.49 193.74 171.29 192.94 171.08 192.15C169.58 192.54 168.09 192.91 166.58 193.26C165.89 194.43 164.62 195.33 163.01 195.67C160.07 196.29 157.5 194.83 157.04 192.2C156.58 189.61 158.36 187.38 161.14 186.82C162.66 186.49 164.12 186.75 165.21 187.49C166.67 187.15 168.13 186.79 169.59 186.41C169.38 185.58 169.16 184.76 168.95 183.93C169.7 183.74 170.44 183.54 171.19 183.33C172.15 186.85 173.12 190.37 174.08 193.89V193.9ZM159.28 191.79C159.58 193.36 160.95 194.12 162.62 193.79C164.2 193.44 165.16 192.18 164.83 190.62C164.47 189.13 163.08 188.39 161.55 188.71C159.94 189.05 158.99 190.27 159.28 191.79ZM176.08 201.22C175.26 201.45 174.43 201.66 173.61 201.88C173.2 200.3 172.79 198.72 172.38 197.14C168.72 198.09 165.04 198.93 161.34 199.66C161.22 199.07 161.11 198.48 160.99 197.89C165.46 197.01 169.9 195.96 174.32 194.75C174.91 196.91 175.5 199.06 176.09 201.22H176.08ZM170.62 190.37C170.43 189.66 170.25 188.94 170.06 188.23C168.93 188.52 167.79 188.81 166.66 189.08C166.81 189.4 166.95 189.74 167.04 190.11C167.13 190.49 167.17 190.87 167.16 191.24C168.32 190.96 169.47 190.68 170.62 190.38V190.37Z" fill="#BFB85E"/>
<path d="M102.59 229.61C103.372 229.334 104.228 229.745 104.504 230.527C104.779 231.308 104.369 232.164 103.588 232.44L100.079 233.675C99.0992 234.02 98.1074 234.291 97.112 234.488C96.2997 234.65 95.5099 234.122 95.3483 233.31C95.1868 232.497 95.7147 231.708 96.527 231.546C97.3834 231.376 98.2371 231.142 99.0817 230.845L102.59 229.61ZM145.497 230.527C145.772 229.745 146.628 229.334 147.41 229.61L150.919 230.845C151.763 231.142 152.616 231.376 153.472 231.546C154.285 231.708 154.813 232.497 154.651 233.31C154.489 234.122 153.7 234.65 152.887 234.488C151.892 234.291 150.901 234.02 149.922 233.675L146.413 232.44C145.631 232.165 145.222 231.308 145.497 230.527ZM82.1676 230.327C82.5579 229.597 83.4671 229.321 84.1979 229.711C85.7582 230.544 87.4312 231.15 89.1627 231.511C89.9737 231.68 90.4945 232.474 90.3258 233.285C90.157 234.096 89.3624 234.617 88.5514 234.448C86.5398 234.03 84.5963 233.326 82.7838 232.358C82.0532 231.967 81.7774 231.058 82.1676 230.327ZM165.802 229.711C166.533 229.321 167.442 229.597 167.833 230.327C168.223 231.058 167.946 231.967 167.215 232.358C165.403 233.325 163.46 234.03 161.449 234.448C160.638 234.617 159.843 234.096 159.674 233.285C159.506 232.474 160.027 231.68 160.838 231.511C162.569 231.15 164.242 230.544 165.802 229.711ZM119.638 223.897C120.451 223.735 121.241 224.262 121.403 225.074C121.565 225.887 121.038 226.677 120.225 226.839C119.108 227.062 118.002 227.363 116.918 227.744L113.41 228.981C112.628 229.256 111.772 228.845 111.497 228.064C111.222 227.282 111.631 226.426 112.413 226.151L115.922 224.915H115.923C117.141 224.487 118.383 224.147 119.638 223.897ZM128.597 225.074C128.759 224.262 129.549 223.735 130.361 223.897C131.616 224.147 132.858 224.487 134.077 224.915H134.079L137.588 226.151C138.369 226.426 138.779 227.282 138.504 228.064C138.228 228.845 137.372 229.256 136.59 228.981L133.082 227.745V227.744C131.997 227.363 130.891 227.062 129.774 226.839C128.962 226.677 128.435 225.887 128.597 225.074ZM73.1315 219.26C73.8434 218.836 74.7645 219.07 75.1881 219.782L77.0094 222.843L77.361 223.411C77.7224 223.972 78.1106 224.508 78.5221 225.018C79.042 225.662 78.941 226.607 78.2965 227.127C77.6519 227.647 76.7074 227.546 76.1871 226.902C75.7091 226.309 75.2587 225.688 74.8395 225.037L74.4313 224.377L72.61 221.316C72.1867 220.604 72.4199 219.684 73.1315 219.26ZM174.812 219.782C175.236 219.071 176.156 218.837 176.868 219.26C177.58 219.683 177.814 220.604 177.39 221.316L175.569 224.377C175.038 225.269 174.451 226.112 173.813 226.902C173.293 227.546 172.348 227.647 171.704 227.127C171.059 226.607 170.958 225.662 171.478 225.018C172.027 224.338 172.533 223.612 172.991 222.843L174.812 219.782ZM63.9215 204.714C64.5657 204.193 65.5101 204.294 66.0309 204.938C66.8491 205.949 67.5978 207.024 68.2692 208.154L70.0905 211.214C70.5139 211.926 70.2799 212.846 69.568 213.27C68.8562 213.693 67.936 213.46 67.5123 212.748L65.6911 209.687H65.6901C65.0925 208.681 64.4263 207.724 63.6979 206.823C63.1772 206.179 63.2775 205.235 63.9215 204.714ZM183.969 204.938C184.49 204.294 185.435 204.193 186.079 204.714C186.723 205.235 186.823 206.179 186.302 206.823C185.665 207.612 185.075 208.442 184.537 209.312L184.309 209.687L182.488 212.748C182.064 213.46 181.144 213.693 180.432 213.27C179.72 212.846 179.486 211.926 179.91 211.214L181.73 208.154C182.402 207.023 183.151 205.95 183.969 204.938ZM48.7409 196.095C49.0216 195.316 49.8814 194.911 50.6608 195.192L54.0387 196.408V196.409C55.2746 196.855 56.4709 197.387 57.6198 197.998C58.351 198.387 58.6281 199.295 58.2389 200.027C57.8496 200.758 56.9418 201.035 56.2106 200.646C55.1876 200.101 54.1218 199.628 53.0211 199.231L49.6442 198.015C48.8649 197.734 48.4602 196.874 48.7409 196.095ZM199.339 195.192C200.119 194.911 200.978 195.316 201.258 196.095C201.539 196.874 201.135 197.734 200.356 198.015L196.978 199.232C195.878 199.628 194.812 200.101 193.79 200.646C193.058 201.035 192.15 200.758 191.76 200.027C191.371 199.295 191.649 198.387 192.381 197.998C193.529 197.387 194.726 196.855 195.962 196.409V196.408L199.339 195.192ZM33.3297 190.089C33.7201 189.358 34.6283 189.083 35.359 189.473C36.144 189.892 36.9681 190.259 37.8278 190.569H37.8288L41.2057 191.785C41.9851 192.066 42.3898 192.926 42.109 193.705C41.8282 194.485 40.9685 194.889 40.1891 194.609L36.8122 193.391V193.392C35.8151 193.033 34.8585 192.606 33.9459 192.118C33.2152 191.728 32.9394 190.82 33.3297 190.089ZM214.641 189.473C215.372 189.083 216.28 189.358 216.671 190.089C217.061 190.82 216.785 191.728 216.054 192.118C215.142 192.606 214.185 193.033 213.188 193.392V193.391L209.811 194.609C209.032 194.889 208.172 194.485 207.891 193.705C207.611 192.926 208.014 192.066 208.794 191.785L212.172 190.569H212.173C213.032 190.259 213.856 189.892 214.641 189.473ZM24.945 179.164C25.7142 178.857 26.587 179.232 26.8942 180.001C27.5633 181.677 28.474 183.248 29.5954 184.661C30.1099 185.31 30.001 186.254 29.3522 186.769C28.7032 187.283 27.7596 187.174 27.2448 186.526C25.9423 184.884 24.8852 183.06 24.108 181.113C23.8009 180.344 24.1756 179.471 24.945 179.164ZM223.106 180.001C223.413 179.232 224.286 178.857 225.055 179.164C225.825 179.471 226.199 180.344 225.892 181.113C225.115 183.06 224.058 184.884 222.756 186.526C222.241 187.174 221.297 187.283 220.648 186.769C219.999 186.254 219.89 185.31 220.405 184.661C221.526 183.248 222.437 181.677 223.106 180.001ZM23.4879 166.076C23.6317 165.26 24.4104 164.716 25.2262 164.86C26.0418 165.003 26.5867 165.781 26.443 166.597L25.8571 169.92C25.6986 170.82 25.6087 171.718 25.5827 172.608C25.5584 173.435 24.8675 174.087 24.0397 174.063C23.2116 174.038 22.5594 173.348 22.5836 172.52C22.6139 171.486 22.7193 170.443 22.903 169.4L23.4879 166.076ZM224.774 164.86C225.59 164.716 226.368 165.26 226.511 166.076L227.097 169.4L227.22 170.182C227.329 170.964 227.394 171.744 227.417 172.52C227.441 173.348 226.789 174.038 225.961 174.063C225.133 174.087 224.442 173.436 224.418 172.608C224.392 171.718 224.302 170.82 224.143 169.92L223.557 166.597C223.414 165.781 223.958 165.003 224.774 164.86ZM27.6002 150.341C28.4245 150.424 29.0254 151.16 28.942 151.985C28.8917 152.482 28.8274 152.978 28.7497 153.474L28.6676 153.97L28.0817 157.294C27.9378 158.11 27.1601 158.655 26.3444 158.511C25.5286 158.367 24.984 157.589 25.1276 156.774L25.7125 153.449C25.8158 152.862 25.8979 152.272 25.9577 151.682C26.0412 150.858 26.7763 150.258 27.6002 150.341ZM222.396 150.341C223.22 150.257 223.956 150.857 224.041 151.681C224.086 152.123 224.144 152.566 224.214 153.007L224.287 153.448L224.288 153.449L224.873 156.774C225.016 157.589 224.472 158.367 223.656 158.511C222.84 158.655 222.063 158.11 221.919 157.294L221.333 153.972L221.25 153.476C221.171 152.98 221.107 152.483 221.056 151.986C220.972 151.161 221.572 150.425 222.396 150.341ZM26.403 141.357C27.2056 141.152 28.0231 141.636 28.2282 142.439C28.5592 143.734 28.7946 145.052 28.9332 146.382C29.0191 147.206 28.4211 147.943 27.5973 148.029C26.7735 148.115 26.036 147.517 25.9498 146.694C25.8263 145.509 25.6158 144.335 25.3209 143.181C25.116 142.378 25.6005 141.562 26.403 141.357ZM221.769 142.437C221.975 141.634 222.792 141.151 223.594 141.357C224.397 141.562 224.881 142.379 224.675 143.182C224.38 144.335 224.169 145.508 224.046 146.693C223.96 147.517 223.222 148.115 222.398 148.029C221.574 147.943 220.976 147.205 221.062 146.381C221.201 145.051 221.437 143.732 221.769 142.437ZM21.5836 131.954C22.2987 131.536 23.2181 131.776 23.6364 132.491L25.3444 135.412L25.3454 135.413C25.6835 135.992 25.9995 136.582 26.2926 137.181C26.6566 137.925 26.3489 138.823 25.6051 139.188C24.8613 139.552 23.9627 139.244 23.5983 138.5C23.3374 137.967 23.0556 137.442 22.7545 136.927V136.926L21.0465 134.006C20.6284 133.291 20.869 132.373 21.5836 131.954ZM226.364 132.491C226.782 131.776 227.701 131.536 228.416 131.954C229.131 132.373 229.372 133.291 228.954 134.006L227.245 136.926C226.944 137.442 226.662 137.967 226.401 138.5C226.036 139.244 225.138 139.551 224.394 139.187C223.651 138.822 223.343 137.924 223.708 137.18C224.001 136.581 224.317 135.992 224.655 135.413V135.412L226.364 132.491ZM13.9928 118.122C14.761 117.812 15.635 118.184 15.945 118.952C16.28 119.783 16.6795 120.598 17.1442 121.392L17.1452 121.393L18.8532 124.314C19.2714 125.029 19.0312 125.948 18.3161 126.366C17.601 126.785 16.6825 126.543 16.2643 125.828L14.5553 122.907C14.0164 121.987 13.5532 121.04 13.1637 120.074C12.8539 119.306 13.2247 118.432 13.9928 118.122ZM234.054 118.952C234.364 118.184 235.239 117.812 236.007 118.122C236.776 118.432 237.147 119.307 236.837 120.075C236.447 121.04 235.983 121.986 235.444 122.906L233.736 125.828C233.318 126.543 232.399 126.784 231.684 126.366C230.969 125.948 230.728 125.029 231.146 124.314L232.856 121.392C233.321 120.598 233.719 119.783 234.054 118.952ZM235.388 104.28C236.174 104.019 237.024 104.443 237.286 105.229C237.953 107.23 238.323 109.32 238.384 111.428C238.408 112.256 237.756 112.947 236.928 112.971C236.1 112.995 235.409 112.343 235.385 111.515C235.333 109.7 235.013 107.901 234.439 106.178C234.177 105.392 234.602 104.542 235.388 104.28ZM12.7135 105.229C12.9753 104.443 13.825 104.018 14.611 104.279C15.3966 104.541 15.8216 105.39 15.5602 106.176C14.9864 107.899 14.6674 109.699 14.6149 111.514C14.591 112.342 13.9 112.994 13.0719 112.97C12.2441 112.946 11.5921 112.256 11.6159 111.428C11.6768 109.32 12.0471 107.23 12.7135 105.229ZM225.8 93.4435C226.328 92.8051 227.274 92.7154 227.913 93.2433L230.586 95.4543H230.587C231.408 96.1345 232.168 96.8654 232.865 97.6389C233.419 98.2543 233.37 99.2025 232.755 99.757C232.139 100.312 231.191 100.262 230.636 99.6467C230.037 98.9812 229.382 98.3524 228.673 97.7658V97.7648L226.001 95.5549C225.363 95.027 225.273 94.0819 225.8 93.4435ZM22.0875 93.2433C22.7259 92.7154 23.6709 92.8052 24.1989 93.4435C24.7267 94.0818 24.6377 95.0269 23.9997 95.5549L21.3258 97.7658C20.617 98.3518 19.9627 98.9814 19.3629 99.6467C18.8082 100.262 17.8591 100.311 17.2438 99.756C16.6286 99.2014 16.5799 98.2532 17.1344 97.6379C17.8316 96.8646 18.5918 96.1339 19.4137 95.4543L22.0875 93.2433ZM33.5651 83.6682C34.1634 83.0953 35.1133 83.1158 35.6862 83.7141C36.259 84.3123 36.2384 85.2622 35.6403 85.8351C35.1632 86.2919 34.6679 86.733 34.1559 87.1564L31.483 89.3664C30.8447 89.8943 29.8987 89.8053 29.3707 89.1672C28.8428 88.5288 28.9325 87.5828 29.5709 87.0549L32.2438 84.8439C32.6996 84.467 33.1405 84.0747 33.5651 83.6682ZM214.316 83.7121C214.889 83.1143 215.839 83.0948 216.437 83.6682C216.862 84.0751 217.302 84.4676 217.757 84.8449H217.756L220.429 87.0549C221.068 87.5828 221.157 88.5288 220.63 89.1672C220.102 89.8054 219.156 89.8943 218.517 89.3664L215.844 87.1564L215.843 87.1555C215.332 86.7318 214.838 86.2902 214.361 85.8332C213.763 85.2598 213.743 84.31 214.316 83.7121ZM38.5573 76.8576C38.9235 76.1146 39.823 75.8088 40.5661 76.175C41.3091 76.5413 41.6149 77.4407 41.2487 78.1838C40.6628 79.3723 39.9909 80.5165 39.2389 81.6076C38.7688 82.2897 37.8351 82.4614 37.153 81.9914C36.4708 81.5213 36.2991 80.5876 36.7692 79.9055C37.4384 78.9343 38.0358 77.9155 38.5573 76.8576ZM209.435 76.174C210.178 75.8074 211.077 76.1128 211.444 76.8557C211.966 77.9135 212.565 78.9322 213.234 79.9035C213.704 80.5856 213.532 81.5193 212.85 81.9894C212.168 82.4595 211.234 82.2876 210.764 81.6057C210.013 80.515 209.341 79.3709 208.755 78.1828C208.388 77.44 208.693 76.5407 209.435 76.174ZM41.2897 67.1076C41.44 66.2932 42.2223 65.7545 43.0368 65.9045C43.8514 66.0547 44.39 66.8369 44.2399 67.6516L43.6149 71.0422C43.4946 71.6952 43.3515 72.3418 43.1852 72.9807C42.9765 73.7824 42.1568 74.2636 41.3551 74.0549C40.5534 73.8461 40.0732 73.0265 40.2819 72.2248C40.43 71.6558 40.5575 71.0799 40.6647 70.4982L41.2897 67.1076ZM206.963 65.9045C207.777 65.7543 208.559 66.2931 208.71 67.1076L209.336 70.4982L209.42 70.9328C209.508 71.3669 209.607 71.798 209.718 72.2248C209.927 73.0263 209.447 73.845 208.645 74.0539C207.844 74.2627 207.025 73.7822 206.816 72.9807C206.65 72.3417 206.505 71.6953 206.384 71.0422V71.0412L205.759 67.6516C205.609 66.8371 206.148 66.0548 206.963 65.9045ZM44.445 51.2248C44.7102 50.44 45.5615 50.0182 46.3463 50.2834C47.131 50.5486 47.5518 51.4 47.2868 52.1848C47.0047 53.0194 46.779 53.8837 46.6149 54.7726L45.9899 58.1623C45.8396 58.9769 45.0575 59.5156 44.2428 59.3654C43.4282 59.2152 42.8896 58.4329 43.0397 57.6184L43.6647 54.2277C43.8549 53.1972 44.1172 52.1946 44.445 51.2248ZM203.656 50.2834C204.441 50.0184 205.292 50.44 205.557 51.2248C205.885 52.1946 206.146 53.1972 206.336 54.2277L206.961 57.6184C207.111 58.4329 206.572 59.2151 205.757 59.3654C204.943 59.5156 204.161 58.9769 204.01 58.1623L203.385 54.7717L203.384 54.7707C203.221 53.8823 202.996 53.019 202.714 52.1848C202.449 51.3999 202.871 50.5485 203.656 50.2834ZM194.388 40.2883C194.823 39.5833 195.747 39.3636 196.452 39.798C198.217 40.8857 199.817 42.2235 201.201 43.7668C201.754 44.3836 201.702 45.3319 201.086 45.885C200.469 46.4379 199.52 46.3864 198.967 45.7697C197.776 44.4409 196.397 43.2894 194.878 42.3527C194.172 41.9181 193.954 40.9935 194.388 40.2883ZM53.5465 39.7941C54.2515 39.3596 55.1751 39.5786 55.61 40.2834C56.0448 40.9885 55.8259 41.913 55.1207 42.3478C53.6017 43.2846 52.224 44.4368 51.0329 45.7668C50.4802 46.3839 49.5318 46.4357 48.9147 45.883C48.2978 45.3303 48.2458 44.3819 48.7985 43.7648C50.1819 42.2203 51.7821 40.8822 53.5465 39.7941ZM185.246 36.5998H185.247C186.295 36.6042 187.328 36.6844 188.34 36.8351C189.16 36.9572 189.725 37.7201 189.603 38.5392C189.481 39.3586 188.717 39.9239 187.898 39.8019C187.245 39.7047 186.581 39.6424 185.909 39.6154L185.234 39.5998L181.546 39.5851C180.717 39.5816 180.049 38.9076 180.052 38.0793C180.056 37.251 180.73 36.5819 181.558 36.5851L185.246 36.5998ZM68.442 36.5851C69.2704 36.5819 69.9445 37.251 69.9479 38.0793C69.9512 38.9077 69.2822 39.5819 68.4538 39.5851L64.7663 39.5998H64.7643C63.8609 39.6026 62.9713 39.671 62.1002 39.8C61.2809 39.9213 60.5177 39.3556 60.3961 38.5363C60.2748 37.7168 60.8413 36.9536 61.6608 36.8322C62.6734 36.6823 63.7066 36.6031 64.7545 36.5998L68.442 36.5851ZM85.8922 36.2746C86.712 36.1549 87.4737 36.7225 87.5934 37.5422C87.7131 38.3619 87.1455 39.1236 86.3258 39.2434C85.0536 39.4292 83.7638 39.5251 82.4655 39.5295L78.778 39.5441C77.9497 39.5474 77.2756 38.8792 77.2721 38.051C77.2688 37.2225 77.9378 36.5484 78.7663 36.5451L82.4538 36.5305H82.4547C83.6109 36.5266 84.7596 36.44 85.8922 36.2746ZM164.108 36.2736C165.099 36.4187 166.103 36.5032 167.112 36.5246L167.546 36.5305L171.234 36.5451C172.062 36.5484 172.731 37.2225 172.728 38.051C172.725 38.8792 172.051 39.5474 171.222 39.5441L167.534 39.5305V39.5295C166.236 39.525 164.946 39.4287 163.673 39.2424C162.854 39.1223 162.287 38.3607 162.407 37.5412C162.527 36.7216 163.288 36.1538 164.108 36.2736ZM100.589 28.7385C101.231 28.2152 102.176 28.3113 102.699 28.9533C103.222 29.5955 103.126 30.5404 102.484 31.0637L99.6373 33.383C98.6318 34.204 97.5735 34.9477 96.4723 35.6115C95.7629 36.0391 94.8414 35.8112 94.4137 35.1017C93.9861 34.3924 94.2144 33.471 94.9235 33.0432C95.9039 32.4521 96.8457 31.7888 97.7409 31.0578L97.7428 31.0568L100.589 28.7385ZM147.3 28.9533C147.824 28.3111 148.769 28.2152 149.411 28.7385L152.257 31.0568C153.154 31.7872 154.096 32.4496 155.077 33.0402C155.786 33.4677 156.015 34.3892 155.588 35.0988C155.16 35.8084 154.239 36.037 153.529 35.6096C152.428 34.9463 151.369 34.2031 150.363 33.383L147.516 31.0637C146.874 30.5404 146.777 29.5955 147.3 28.9533ZM113.91 18.1652C114.62 17.7384 115.541 17.9681 115.968 18.6779C116.395 19.3878 116.165 20.3096 115.456 20.7365C114.897 21.0729 114.351 21.4412 113.821 21.842L113.298 22.2531L110.451 24.5725C109.809 25.0953 108.864 24.9987 108.34 24.3566C107.817 23.7144 107.914 22.7695 108.556 22.2463L111.403 19.9269L112.011 19.4494C112.626 18.9843 113.26 18.5561 113.91 18.1652ZM134.033 18.676C134.46 17.9663 135.382 17.7372 136.091 18.1642C136.958 18.6858 137.796 19.2733 138.598 19.9269L141.444 22.2463C142.086 22.7696 142.182 23.7144 141.659 24.3566C141.136 24.9987 140.191 25.0957 139.548 24.5725L136.703 22.2531H136.702C136.011 21.6897 135.29 21.1832 134.545 20.7346C133.835 20.3073 133.606 19.3857 134.033 18.676ZM121.945 15.3078C123.971 15.0179 126.03 15.0175 128.056 15.3068C128.876 15.4241 129.446 16.1841 129.329 17.0041C129.211 17.824 128.451 18.3937 127.631 18.2766C125.887 18.0275 124.114 18.0279 122.37 18.2775C121.55 18.3949 120.79 17.8251 120.673 17.0051C120.555 16.185 121.125 15.4252 121.945 15.3078Z" fill="#EDE598"/>
<path d="M179.99 155.51C177.59 155.68 177.53 157.6 177.27 157.81C176.72 158.25 176.05 157.33 174.94 158.03C173.63 158.86 174.78 160.05 173.92 160.42C173.06 160.79 172.66 161.76 173.15 162.63C174.04 164.2 176.45 163.63 175.14 164.86C173.92 164.96 172.75 164.16 172.1 163L161.77 162.96C161.51 162.96 161.47 162.53 161.5 162.38C161.55 162.15 161.73 161.92 162.06 161.92L166.42 161.85C166.8 161.85 166.48 160.57 166.77 160.32C166.9 160.21 167.1 160.26 167.25 160.32C167.79 160.52 167.24 161.89 167.73 161.89L171.82 161.86C171.92 161.07 172.21 160.2 173.03 159.81L173.26 158.2H170.77C169.7 158.2 168.68 158.31 167.6 158.16C166.71 158.04 167.24 159.23 166.73 159.34C166.55 159.38 166.19 159.38 166.16 159.1C166.13 158.79 166.14 158.56 166.01 158.21H162.47L159.29 158.2H156.44C156.23 158.2 155.97 158.26 155.87 158.36C155.71 158.5 155.7 158.83 155.72 159.12C155.75 159.46 155 159.62 154.87 159.32C154.77 159.1 154.98 158.41 154.61 158.32C153.21 157.99 151.8 158.26 150.38 158.24C149.27 158.23 149.99 159.21 149.25 159.19C148.55 159.17 149.01 158.2 148.42 158.21L145.65 158.25C145.5 158.61 145.4 159.17 145.63 159.55C145.84 159.68 146.31 159.69 146.49 159.92C147.09 160.7 146.53 161.89 147.01 161.89H149.64L149.66 160.34C149.66 160.04 150.05 160.08 150.24 160.13C150.84 160.29 150.39 161.02 150.68 161.9L153.16 161.98C153.43 161.98 153.5 162.35 153.49 162.52C153.49 162.7 153.36 163.02 153.07 163.03L146.49 163.07H125.29L116.13 163C115.88 163 115.81 162.56 115.85 162.41C115.89 162.24 116.01 161.97 116.3 161.97L121.43 161.92L121.5 160.32C121.51 160.07 121.75 160 121.91 159.98C122.09 159.96 122.45 159.98 122.46 160.23L122.52 161.92L125.01 161.9C125.49 161.9 124.97 160.56 125.42 159.97C125.64 159.69 125.97 159.72 126.37 159.59C126.64 159.45 126.59 158.72 126.47 158.28L123.63 158.23H120.01L117.14 158.24L113.97 158.19L113.82 159.34C113.79 159.55 113.07 159.59 113.02 159.38C112.95 159.03 113.1 158.6 112.89 158.23L111.08 158.27H105.88C105.82 158.71 105.92 159.12 105.72 159.5C105.17 159.33 105.41 158.71 105.32 158.45C105.15 157.98 104.51 158.28 104.23 158.28H99L97.2 158.17C96.73 158.14 96.3 158.28 96.07 158.7C97.3 159.39 97.87 160.52 97.42 161.94L107.4 161.98C107.74 161.98 107.87 162.34 107.86 162.53C107.84 162.96 107.57 163.02 107.16 163.02L96.64 163.05C96.38 163.05 96.04 163.21 95.84 163.02C95 162.27 97.04 162.1 96.38 160.59C95.92 159.55 94.71 159.1 93.69 159.67C93.54 159.75 93.29 159.65 93.21 159.58C92.86 159.28 93.33 157.47 91.46 156.75C90.5 156.38 89.34 156.55 88.66 157.42C88.51 157.61 88.49 157.93 88.26 157.99C87.79 158.12 87.16 157.43 86.34 158.34C86.11 158.59 85.91 159.3 86.1 159.62C86.96 160.13 87.46 160.94 87.38 161.98L88.46 162C88.73 162 88.96 162.33 88.94 162.52C88.92 162.76 88.71 163.03 88.42 163.02L87.17 162.98C86.4 164.69 83.48 165.57 83.41 164.8C83.31 163.78 85.84 163.95 86.26 162.17C86.64 160.56 84.7 160.29 84.61 159.78C84.55 159.46 85.59 158.5 84.55 157.37C83.49 156.21 82.34 157.22 81.8 156.8C81.54 156.6 81.62 156.31 81.61 155.98C81.55 154.75 80.6 153.88 79.56 153.56C78.39 153.2 77.19 153.56 76.33 154.43C75.72 155.04 75.46 155.68 75.49 156.57C75.5 156.89 74.91 157.04 74.63 156.93C73.9 156.63 73.24 156.81 72.65 157.31C72.2 157.7 71.98 158.41 72.28 159.11C72.78 160.29 71.18 160.02 70.77 161.26C70.55 161.91 70.76 162.5 71.16 162.98C71.98 163.97 73.43 163.75 74.4 164.59C74.67 164.82 74.11 165.51 73.82 165.4L72.8 165C71.89 164.86 71.15 164.47 70.46 163.83C69.32 162.76 69.22 161.06 70.44 159.86C67.6 159.68 65.11 159.98 62.43 160.24C57.5 160.72 52.69 161.43 47.89 162.66C47.62 162.73 47.35 162.81 47.14 162.63C47.01 162.52 46.92 162.27 47.01 162.05C47.08 161.87 47.3 161.7 47.62 161.68C47.83 161.39 47.84 161.04 48 160.68C47.13 160.15 46.75 159.24 46.83 158.24C46.94 156.86 47.9 155.83 49.28 155.37C48.41 153.27 49.54 150.95 51.7 150.4C51.98 150.33 52.22 150.39 52.38 150.18C52.5 150.02 52.66 149.58 52.55 149.36C51.37 148.71 51.47 147.6 51.87 146.54C51.87 145.68 51.43 144.74 51.98 143.78C52.36 143.12 53.12 142.48 54.01 142.19C54.36 140.77 55.34 139.56 57 139.69C57.2 138.09 58.29 136.99 59.53 136.48C60.91 135.92 62.69 136.19 63.57 137.08C63.85 137.36 64.65 137.97 64.78 137.44L66.52 130.3C66.42 128.27 65.68 126.5 64.61 124.81C63.56 123.23 62.37 121.83 61.02 120.47C60.28 120.8 59.46 120.57 58.88 120.63C56.36 122.17 52.43 121.58 50.44 119.51C49.59 118.64 49.06 117.63 49.03 116.3C46.98 116.42 45.08 115.78 43.77 114.24C42.19 112.39 42.2 109.75 43.85 107.94C43.14 106.04 43.47 104.07 44.68 102.51C45.89 100.95 47.52 100.08 49.52 99.76C48.23 96.93 49.19 93.78 51.64 91.96C52.83 91.08 54.17 90.69 55.69 90.43C54.83 87.29 56 84.26 58.65 82.49C60.29 81.39 62.25 81.07 64.36 81.25C64.13 78.03 66.22 75.24 69.37 74.99C71.47 70.13 77.83 69.07 82.25 71.7C84.94 69.53 88.84 69.66 91.25 72.14C92.34 73.27 92.92 74.62 92.93 76.29C96.21 76.19 99.08 78.4 99.5 81.61C99.68 82.95 99.42 84.13 98.89 85.3C98.81 85.59 99.04 86.01 99.18 86.37C100.93 86.12 102.68 86.38 104.25 87.27C107.06 88.87 108.19 92.1 107.22 95.28C110.7 95.88 113.27 98.32 112.7 101.84C114.25 102.56 115.17 103.96 115.12 105.65C115.05 108.06 113.12 109.92 110.68 110.05C109.4 114.03 104.27 114.71 100.5 113.42C100.18 115.26 99.07 116.6 97.51 117.46C95.16 118.77 92.25 118.65 89.87 117.25C87.19 119.81 82.86 119.82 80.27 117.05C79.48 117.06 78.77 117.09 78 116.93C77.27 117.71 76.97 118.6 76.68 119.62C75.61 123.36 74.98 127.11 74.42 130.98C74.07 133.35 73.6 135.56 73.52 138.03L74.84 137.31C74.84 135.96 75.82 134.79 77.3 134.84C77.64 133.42 78.79 132.45 80.29 132.66C80.83 130.55 82.61 129.17 84.79 129.13C86.97 129.09 88.87 130.39 89.3 132.57C90.41 132.47 91.22 132.85 91.9 133.5C92.62 134.19 92.64 135.23 92.77 136.16C93.61 136.81 94.63 137.58 94.51 138.88C94.47 139.3 94.47 139.78 94.62 140.31H103.73V137.48C102.57 137.32 101.86 136.41 101.99 135.29C101.1 135.02 100.42 134.61 99.76 134.01L98.93 133.63L95.86 131.28C95.4 130.93 94.95 130.71 94.38 130.6C91.03 129.95 89.97 126.49 90.6 125.9C90.72 125.79 90.99 125.63 91.23 125.7L93.14 126.28L93.02 124.38C92.99 123.89 93.2 123.45 93.55 123.23C93.97 122.95 94.56 122.98 94.94 123.32L95.98 124.23C100.02 124.15 103.87 123.28 107.68 121.9C108.39 120.02 109.54 118.33 109.86 116.35C110 115.47 109.34 114.47 109.76 113.54C110.14 112.7 110.71 112.03 111.68 112.07C112.35 112.09 112.94 112.32 113.27 112.78C113.69 113.35 113.68 114.03 113.44 114.8C115.46 115.29 117.37 115.46 119.41 115.66C124.59 116.17 129.64 116.18 134.85 116.25C141.69 116.33 148.37 116.07 155.15 115.36L159.14 114.75C158.88 114.04 158.92 113.36 159.35 112.8C159.74 112.29 160.43 111.99 161.21 112.13C162.34 112.33 163.01 113.44 162.96 114.58C162.93 115.24 162.78 115.8 162.49 116.42L164.96 121.92C168.73 123.3 172.61 124.21 176.66 124.24C177.46 123.45 178.34 122.67 179.08 123.12C179.3 123.26 179.57 123.52 179.56 123.86L179.44 126.36C180.27 126.1 180.91 125.74 181.67 125.76C182.73 125.79 181.8 128.95 179.85 130.02C178.88 130.53 177.87 130.78 176.8 131.03C176.14 131.77 175.39 132.38 174.55 132.89C174.02 133.49 173.28 133.74 172.63 134.14C171.89 134.59 171.27 135.19 170.24 135.28C170.44 136.51 169.73 137.29 168.57 137.49L168.59 140.38H180.93C181.07 139.5 181.39 138.84 182.18 138.47C182.18 137.5 182.43 136.61 183.04 136.02C183.68 135.34 184.58 135.14 185.58 135.23C186.27 133.06 188.19 131.84 190.39 131.9C192.61 131.96 194.48 133.37 194.88 135.68C195.95 135.51 196.74 135.86 197.45 136.45C198.18 137.06 198.21 137.98 198.42 138.93C198.98 139.34 199.94 139.74 200.17 140.42C200.48 141.33 200.57 142.14 199.99 143.09H203.84C204.14 143.09 204.39 143.06 204.63 143.18C204.82 143.28 205.14 144.41 205.06 145.26L206.27 147.04C206.42 147.26 206.32 147.53 206.19 147.7C205.88 148.1 205.33 148 205.16 148.21C205.19 148.18 205.53 149 205.43 150.38C205.39 150.99 205.65 151.12 206.04 151.4C207.75 152.6 207.81 155 206.54 156.58C206.3 156.88 206.11 157.02 205.77 156.95C205.49 156.89 205.22 156.36 205.47 156.09C206.17 155.37 206.47 154.47 206.21 153.48C205.98 152.6 205.22 152.07 204.26 151.74C203.81 151.59 204.17 150.94 204.25 150.64C204.78 148.74 203.43 146.94 201.56 146.58C199.93 146.27 199.54 147.67 198.84 147.45C198.59 147.37 197.8 145.98 196.55 146.3C195.95 146.45 195.33 146.9 195.14 147.61C194.93 148.4 194.02 147.41 193.21 148C192.82 148.28 192.68 148.64 192.68 149.19L192.73 153.55C193.5 153.16 194.14 153.03 194.92 153.03C197.08 153.03 198.88 154.56 199.1 156.78C200.38 156.75 201.41 157.29 202.02 158.2C202.68 159.18 202.68 160.35 202.04 161.41L204.86 161.96C205.22 162.03 205.33 162.36 205.25 162.66C205.17 162.96 204.85 163.06 204.49 162.99L201.14 162.39C200.82 162.33 200.57 162.29 200.47 162.02C200.36 161.72 200.5 161.45 200.77 161.22C201.52 160.57 201.56 159.52 201.03 158.75C199.92 157.15 198.38 158.37 198.01 157.84C197.78 157.51 198.45 155.75 196.6 154.62C195.67 154.05 194.67 153.93 193.62 154.37C191.54 155.24 191.94 156.94 191.64 157.14C191.42 157.29 191.18 157.3 190.86 157.15C189.97 156.73 188.77 157.39 188.63 158.37C188.83 158.84 188.69 159.17 188.24 159.33C187.95 160.24 188.65 161.29 189.62 161.24C189.93 161.22 190.18 161.23 190.36 161.39C190.53 161.54 190.5 161.83 190.42 162C190.18 162.52 189.56 162.15 189.25 162.32C188.94 162.49 189.42 163.87 187.12 164.8C186.47 165.06 185.68 165.11 185.26 164.76C185 164.54 185.12 165.44 184.36 165.5C183.19 165.59 182.04 165.66 180.89 165.48L180.34 165.16L179.84 165.51L176.83 165.54C176.55 165.54 176.31 165.44 176.26 165.24C176.21 165.06 176.25 164.7 176.5 164.67L178.72 164.47C178.42 163.52 177.64 163.09 177.6 162.69C177.57 162.41 177.73 162.25 177.94 162.22C178.21 162.18 178.43 162.25 178.6 162.48L179.44 163.62C179.54 163.76 179.73 163.73 179.74 163.56L179.85 161.17C179.86 160.91 180.11 160.75 180.3 160.77C180.49 160.79 180.73 160.97 180.74 161.21L180.83 164L182.04 162.47C182.24 162.21 182.59 162.17 182.85 162.38C183.05 162.54 183.07 162.84 182.83 163.11L181.9 164.19C181.29 164.9 183.18 164.54 184.3 164.56C184.75 164.56 184.88 164.6 185.21 164.28C185.65 163.86 187.36 164.05 187.98 162.64C188.13 162.3 188.08 161.92 187.9 161.61C187.78 161.4 187.49 161.24 187.13 161.17C186.71 161.09 187.38 159.97 186.68 159.23C185.34 157.83 183.9 159.36 183.43 159.22C183.23 159.16 183.03 159 183.05 158.72C183.17 156.89 181.78 155.45 179.94 155.58L179.99 155.51ZM77.99 94L76.88 90.94C75.22 90.29 73.66 89.62 72.22 88.62C71.92 88.41 72.14 88.05 72.3 87.9C72.54 87.67 72.78 87.74 73.07 87.93C74.1 88.62 75.13 89.17 76.46 89.5C76.16 87.76 75.96 86.18 75.86 84.48C75.84 84.14 76.14 83.83 76.44 83.82C76.66 83.82 76.99 84.08 77 84.39C77.06 87.89 78.1 91.28 80.25 94.08C81.7 91.1 82.75 88.27 83.92 85.37C84.04 85.08 84.45 85.1 84.64 85.2C84.81 85.29 85 85.53 84.91 85.8L82.79 92.23C84.92 91.63 86.84 90.93 88.55 89.71C88.88 89.47 89.2 89.53 89.37 89.84C89.53 90.13 89.44 90.41 89.16 90.62C86.02 92.89 82.64 93.06 82.35 94.08C81.72 96.32 81.4 98.52 81.02 100.81C80.45 104.19 79.88 107.41 79.01 110.87C81.37 110.13 83.47 109.23 85.37 107.84L90.37 104.17C90.47 103.31 90.28 102.58 90.27 101.78V98.03C90.27 97.69 90.72 97.65 90.91 97.69C91.2 97.76 91.33 98.02 91.3 98.37C91.17 100.06 91.27 101.66 91.5 103.42C93.71 101.8 95.57 99.94 97.24 97.8C97.4 97.59 97.78 97.68 97.92 97.78C98.07 97.89 98.22 98.26 98.05 98.49C96.27 100.93 94.23 103.07 92.13 105.27C95.61 105.93 98.88 105.25 101.94 103.88C102.24 103.75 102.53 103.96 102.66 104.16C102.75 104.31 102.73 104.66 102.43 104.8C99.74 106.15 96.82 106.87 93.77 106.72C92.86 106.67 91.78 106.37 90.92 106.67L88.16 109.4C86.25 111.29 84.15 112.79 81.76 114.01C80.74 114.53 79.83 115.1 78.99 115.86C79.65 116.28 80.13 115.99 80.62 115.84C81.01 115.73 81.1 116.22 81.29 116.41C83.47 118.55 87.08 118.52 89.17 116.32C89.39 116.09 89.52 115.94 89.75 115.9C90.04 115.85 90.16 116.08 90.4 116.22C92.51 117.44 95.19 117.55 97.25 116.25C99.84 114.61 99.18 112.51 99.74 112.13C99.92 112 100.14 112.01 100.41 112.13C102.68 113.03 105.23 113.15 107.44 112.11C110.13 110.84 109.11 108.84 110.1 108.89C111.44 108.96 112.78 108.39 113.5 107.24C114.06 106.35 114.16 105.34 113.75 104.33C113.12 102.76 111.55 102.85 111.37 102.3C111.29 102.06 112.4 100.56 110.77 98.39C109.07 96.14 106.24 96.46 106.01 96.14C105.91 96.01 105.82 95.77 105.92 95.54C106.89 93.32 106.54 90.72 104.74 89.02C103.13 87.5 100.86 87.1 98.74 87.61C98.4 87.69 98.04 87.46 98.08 87.15C98.17 86.48 97.92 85.98 97.55 85.4C98.64 83.65 98.77 81.41 97.63 79.69C96.42 77.86 94.25 77.22 92.15 77.43C91.83 77.46 91.74 76.68 91.91 76.48C91.87 74.18 90.42 72.36 88.45 71.61C86.33 70.8 84.05 71.45 82.48 73.03C82.18 73.22 81.8 72.74 81.57 72.6C78.67 70.86 75.03 71.01 72.28 72.96C71.2 73.72 70.55 74.83 70.25 76.07C69.21 76.07 68.21 76.21 67.37 76.82C65.77 77.99 65.19 80.02 65.72 81.89C65.78 82.09 65.65 82.28 65.56 82.35C65.2 82.67 64.28 82.1 62.5 82.32C60.49 82.56 58.57 83.48 57.49 85.21C56.41 86.94 56.27 89 57.12 90.83C57.2 91 57.09 91.24 57.02 91.34C56.77 91.71 54.3 91.15 52.03 93.06C50.06 94.72 49.49 97.49 50.83 99.7C51.85 101.37 49.04 100.11 46.43 102.28C45.34 103.19 44.63 104.47 44.6 105.92C44.58 106.7 44.98 107.37 45.23 108.15C43.44 109.59 43.28 112.04 44.88 113.71C46.04 114.92 47.81 115.33 49.48 115.07C49.72 115.03 50.16 115.18 50.14 115.46C50.04 116.9 50.55 118.2 51.74 119.07C53.45 120.31 55.71 120.67 57.71 119.93L58.7 119.28C59.17 119.44 59.53 119.63 60.18 119.35L58.95 117.66C57.3 117.41 55.73 116.99 54.25 116.24C53.92 116.07 53.78 115.76 53.94 115.43C54.3 114.69 56.23 116.37 58.29 116.36C57.57 114.69 56.88 113.15 56.36 111.46C56.25 111.11 56.52 110.75 56.82 110.7C57.12 110.65 57.31 110.9 57.43 111.21C58.84 115.02 59.69 116.52 63.17 118.99C63.56 117.06 63.69 115.34 63.61 113.5C63.6 113.25 63.94 113.04 64.11 112.97C64.26 112.91 64.62 113.12 64.63 113.36C64.76 115.24 64.65 117.03 64.38 118.91C64.34 119.2 64.42 119.83 64.6 120.04C66.11 121.19 67.24 122.35 68.58 123.91L70.88 115.4C70.95 113.51 69.81 111.53 68.82 110.01L66.48 106.4C66.27 106.08 66.02 105.42 65.6 105.27C63.35 105.01 61.22 104.58 59.21 103.53C58.98 103.41 59.02 103 59.13 102.82C59.21 102.69 59.39 102.47 59.61 102.56C61.37 103.26 63.07 104.04 65.14 104.01C64.33 102.24 63.58 100.64 63 98.9C62.87 98.53 62.98 98.16 63.3 98.1C63.62 98.04 63.92 98.18 64.05 98.54C64.81 100.6 65.77 102.53 67.31 104.26C68.07 102.14 68.46 100.1 68.44 97.95C68.44 97.66 68.79 97.5 68.99 97.53C69.17 97.56 69.43 97.68 69.44 97.92C69.53 99.88 69.21 101.71 68.71 103.61C68.58 104.1 68.3 104.77 68.41 105.29L70.62 107.69C71.68 108.84 72.63 109.94 73.48 111.39C74.87 109 75.99 106.7 76.74 104.14L78.89 96.91C78.86 95.93 78.32 94.91 77.98 93.96L77.99 94ZM65.32 158.67C66.82 157.87 66.47 154.66 67.69 155.96C67.69 156.95 67.33 157.77 66.78 158.7L71.03 158.73C70.99 156.85 72.52 155.36 74.42 155.63C74.6 154.91 74.87 154.34 75.4 153.78L74.2 151.17C73.12 148.16 72.67 145.09 72.45 141.89C72.26 139.02 72.54 136.27 72.96 133.44L73.57 129.35C74.17 125.31 74.93 121.41 76.18 117.55C77.38 115.58 79.07 114.18 81.08 113.09C82.96 112.13 84.71 111.07 86.27 109.65C87.59 108.45 88.91 107.31 89.94 105.9C87.9 107.18 86.35 108.63 84.39 109.72C82.53 110.87 80.52 111.5 78.49 112.27C78.15 112.4 77.9 112.39 77.65 112.15C77.4 111.91 77.61 111.67 77.71 111.34C78.61 108.42 79.07 105.5 79.62 102.5L80.87 95.68C80.53 95.73 80.32 95.8 80.21 95.7C80.1 95.6 80.01 95.43 79.93 95.3C79.84 95.15 79.62 95.19 79.65 95.39C79.72 95.85 80.16 96.48 80.04 96.98C79.29 99.94 78.41 102.76 77.42 105.65C76.58 108.11 75.45 110.3 74.21 112.56C74.03 112.88 73.99 113.18 73.59 113.16C73.3 113.15 73.12 113.01 72.97 112.7C72.34 111.42 71.57 110.23 70.56 109.2L68.06 106.66C68.42 107.68 69.11 108.34 69.64 109.21C70.59 110.78 71.39 112.37 71.9 114.15C72.16 115.07 72.08 115.93 71.82 116.85L69.38 125.39C69.29 125.71 68.77 126.01 68.55 125.74L66.29 123C64.92 121.7 63.55 120.47 61.85 119.46L64.35 122.52C66.08 124.63 68.08 128.4 67.52 130.85L66.73 134.28C65.95 137.67 65.21 140.96 65.01 144.46L65.07 152.16C65.09 154.73 64.47 157.01 62.71 159.01C63.61 158.95 64.59 159.1 65.36 158.69L65.32 158.67ZM163.84 124C166.4 124.98 168.89 125.61 171.54 126.05C173.83 126.43 176.02 126.84 178.34 126.74L178.56 124.08C177.86 124.23 177.63 124.77 177.22 125.3C172.76 125.25 168.42 124.32 164.19 122.77L161.3 116.41C161.77 115.61 162.01 114.75 161.79 113.9C161.65 113.38 161.18 113.09 160.76 113.18C160.37 113.26 159.85 113.56 160.07 114.07C160.19 114.36 160.5 114.57 160.47 114.92C160.44 115.2 160.37 115.57 159.97 115.65L157.2 116.19C152.7 116.8 148.3 117.24 143.73 117.25L130.58 117.28C125.98 117.28 121.53 117.04 116.98 116.5L112.66 115.7C112.31 115.64 112.12 115.28 112.09 115.05C112.03 114.68 112.25 114.49 112.48 114.21C112.76 113.84 112.54 113.38 112.17 113.23C111.9 113.12 111.43 113.05 111.11 113.39C110.56 113.96 110.63 114.99 110.98 115.69C111.3 116.34 111.19 116.68 110.93 117.27L108.55 122.73C104.62 124.27 100.54 125.06 96.35 125.32C94.83 125.41 94.81 124.05 94.38 124.15C94.18 124.2 94.01 124.42 94.04 124.69L94.34 126.84C99.44 126.69 104.37 125.68 109.15 124.02L110.34 123.81L112.44 118.33C112.61 117.88 113.21 118.18 113.54 118.23C117.58 118.86 121.49 119.1 125.59 119.29C135.86 119.75 149.38 119.72 159.38 118.09C159.67 118.04 159.86 117.92 160.09 118.07C160.24 118.17 160.32 118.34 160.41 118.55L162.82 124.04H163.81L163.84 124ZM122.71 129.8C122.53 130.13 122.18 130.19 122.05 130.09C121.87 129.96 121.7 129.79 121.76 129.51L123.74 120.26L120.79 120.07C120.07 123.39 119.19 126.47 118.14 129.58C118.04 129.87 117.66 129.93 117.49 129.84C117.23 129.71 117.18 129.42 117.28 129.11C118.22 126.07 119.17 123.13 119.82 119.99L117.47 119.76C117.24 119.74 117.01 119.84 116.9 119.94C116.8 120.04 116.82 120.21 116.78 120.39C115.97 123.4 114.9 126.23 113.76 129.11C113.61 129.5 113.34 129.65 113.01 129.49C112.68 129.33 112.68 129.06 112.83 128.71C114.1 125.76 115.1 122.79 115.99 119.64L113.26 119.29L111.48 123.82L109.25 128.96C109.12 129.25 108.79 129.3 108.6 129.22C108.34 129.1 108.26 128.84 108.39 128.55L110 124.88L106.74 125.97L105.11 128.61C104.95 128.86 104.62 128.88 104.43 128.74C104.24 128.6 104.21 128.36 104.34 128.14L105.44 126.25C102.73 127 100.17 127.35 97.48 127.73C98.87 128.42 100.16 128.53 101.25 129.6L106.93 130.48C113.53 131.34 120.05 131.67 126.69 131.81L132.02 131.93H140.6L148.27 131.78L152.22 131.64C156.8 131.48 161.26 131.14 165.83 130.51C167.95 130.22 169.96 129.95 171.98 129.34C172.76 128.2 174.08 128.43 175.28 127.73C173.88 127.3 172.68 127.41 171.38 127.13L168.06 126.43L169.4 128.19C169.31 128.47 169.03 128.77 168.75 128.82L166.63 126.15L163.39 125.02L165.26 128.26C165.39 128.49 165.53 128.67 165.44 128.91C165.37 129.1 165.18 129.18 165 129.18C164.8 129.18 164.6 129.09 164.49 128.88L162.14 124.75L159.57 119.15L157.83 119.47L159.14 123.3C159.83 125.31 160.67 127.17 161.7 128.97C161.58 129.24 161.4 129.42 161.21 129.45C160.98 129.49 160.75 129.35 160.62 129.1C159.03 126.03 157.86 122.85 156.79 119.54C155.99 119.56 155.28 119.63 154.44 119.84C155.25 123 156.28 126 157.53 128.99C157.66 129.31 157.59 129.58 157.35 129.7C157.11 129.82 156.78 129.76 156.65 129.46C155.4 126.35 154.26 123.27 153.45 119.95C152.6 119.83 151.85 119.93 150.93 120.14L152.13 125.31L153.33 129.26C153.43 129.6 153.29 129.89 152.98 129.98C152.79 130.04 152.52 129.9 152.41 129.6C151.35 126.56 150.64 123.5 149.94 120.28C149.04 120.1 148.16 120.14 147.27 120.35L149.14 129.63C149.2 129.95 148.9 130.18 148.68 130.15C148.49 130.13 148.23 130.04 148.17 129.77L146.79 123.34L146.31 120.41C145.35 120.26 144.4 120.35 143.56 120.64L144.88 129.88C144.91 130.09 144.58 130.29 144.43 130.3C144.28 130.31 143.94 130.23 143.91 129.98L142.62 120.53L140 120.55C139.76 121.22 140 121.81 140.03 122.42L140.19 124.96L140.63 130.07C140.56 130.26 140.24 130.47 140.1 130.45C139.94 130.42 139.7 130.24 139.68 130.01L139.43 127.54L138.89 120.56L136.82 120.53C136.58 120.53 136.37 120.57 136.28 120.71C136.21 120.82 136.15 120.99 136.15 121.19L136.11 130.17C136.11 130.43 135.73 130.5 135.59 130.46C135.39 130.4 135.21 130.23 135.21 129.94V120.61H132.46L131.59 130.27C131.48 130.46 130.72 130.4 130.73 130.18L131.18 124.97L131.5 120.53H128.64L127.24 129.92C127.2 130.22 126.85 130.37 126.64 130.33C126.37 130.28 126.22 129.98 126.27 129.65L127.68 120.43L124.72 120.38C124.2 123.64 123.56 126.69 122.74 129.82L122.71 129.8ZM99.37 129.71C99.1 129.25 98.7 129.22 98.31 129.09L91.7 126.88C92.05 128.29 93.21 129.16 94.53 129.5C96.61 130.04 98.65 130.42 100.95 130.46C100.54 130 99.91 129.98 99.37 129.71ZM177.84 129.59C179.24 129.23 180.46 128.44 180.86 126.93L174.36 129.1C173.76 129.14 173.44 129.64 172.94 129.83L171.5 130.38C173.67 130.55 175.71 130.15 177.84 129.59ZM79.05 145.87C78.95 145.24 79.37 144.71 79.73 144.35L81.36 142.72L81.42 140.71C81.44 140.08 82.05 139.75 82.5 139.66C83.1 139.54 83.56 139.82 83.95 140.28L93.24 140.25C93.69 140.21 93.41 139.35 93.42 139.05C93.42 138.39 93.12 137.19 92.06 137.25C91.79 137.27 91.29 136.97 91.43 136.64C91.75 135.86 91.78 135.11 91.27 134.42C90.89 133.91 90.14 133.39 89.36 133.68C89.08 133.78 88.31 133.95 88.3 133.45C88.28 131.63 86.97 130.3 85.11 130.24C83.34 130.18 81.66 131.25 81.44 133.1C81.26 134.58 80.18 133.02 78.96 133.95C78.57 134.25 78.33 134.72 78.36 135.34C78.41 136.3 77.05 135.41 76.23 136.41C75.59 137.19 76.19 138.2 76.09 138.38C75.97 138.6 75.34 138.24 74.5 138.73C74.24 138.88 74.31 139.39 74.13 139.67C73.72 140.3 73.42 140.78 73.5 141.58C73.84 145.38 74.31 149.75 76.3 152.98C77.74 152.08 79.31 151.99 80.83 152.85L80.86 147.46C80.03 147.33 79.19 146.77 79.05 145.87ZM106.5 135.08L105.95 134.82C105.69 134.5 106.11 133.91 106.06 133.62C105.75 132.84 105.67 132.3 105.68 131.47C104.79 131.28 103.95 131.18 103.09 131.43C103.1 132.22 103.61 132.52 104.27 132.79C104.88 133.04 105.37 134.05 105.23 134.68C105.13 135.14 105.04 135.39 105.08 135.86C105.12 136.38 105.34 136.73 105.9 136.67C106.68 136.59 106.61 135.12 106.51 135.07L106.5 135.08ZM103.65 134.01C103.62 132.95 101.87 133.51 101.95 131.4L100.37 131.57C100.2 132.8 100.85 133.83 102.05 134.09C102.55 134.2 103.21 134.19 103.64 134.01H103.65ZM166.73 132.92L166.58 134.7C166.57 134.84 166.46 135.11 166.39 135.11L165.94 135.13C165.81 135.47 165.86 136.07 166.06 136.46C166.22 136.78 166.92 136.77 167.16 136.53C167.8 135.89 166.99 134.56 167.32 134.01L168.34 132.34C168.44 132.17 168.76 132.46 168.88 132.47C169.14 132.47 169.29 131.89 169.19 131.67C169.06 131.37 168.73 131.28 168.36 131.33L165.34 131.72C164.96 131.77 165.26 132.89 164.75 133.17C164.63 133.23 164.26 133.23 164.25 133.08L164.15 131.82L160.37 132.17C160.3 132.73 160.3 133.15 160.48 133.61C162.4 133.84 162.94 132.59 163.63 133.53C163.98 134 165.11 134.27 165.51 133.76C165.59 133.46 165.6 132.91 165.92 132.75C166.13 132.64 166.79 132.43 166.74 132.94L166.73 132.92ZM117.03 136.51C117.41 136.19 117.32 135.35 117.05 135.35C116.37 135.35 116.07 135.15 115.54 134.81C115.08 134.52 113.94 134.6 113.45 134.8C113.17 135.15 113.02 135.47 112.45 135.35C111.88 135.23 111.42 134.8 111 134.45C110.29 133.86 111 133.42 110.64 132.04L106.73 131.61C106.55 132.12 106.73 132.55 107.07 132.96C107.15 133.16 106.96 133.64 107.21 133.88C107.9 134.54 108.72 132.95 109.6 133.29C109.94 134.18 109.09 135.11 108.18 135.08C107.59 135.06 107.45 135.66 107.45 136.55L117.07 136.52L117.03 136.51ZM171.56 133.38C171.94 132.93 171.74 132.17 171.78 131.69C171.22 131.44 170.73 131.45 170.08 131.55C170.34 133.26 168.88 133 168.67 134.04C169.63 134.24 170.85 134.22 171.56 133.37V133.38ZM115.15 133.62C115.19 133.08 115.16 132.76 114.99 132.35L112.01 132.16C111.73 132.14 111.55 133.62 112.12 133.87C112.39 133.99 112.58 133.73 112.87 133.72L115.14 133.62H115.15ZM159.27 133.81C159.38 133.19 159.43 132.75 159.19 132.24L156.09 132.53C155.75 132.56 155.75 133.7 156.09 133.77C157.54 134.08 158.47 133.45 159.28 133.8L159.27 133.81ZM119.58 133.93C119.74 133.54 119.74 132.79 119.45 132.62L116.38 132.43C116.04 132.41 116.17 132.95 116.17 133.13C116.18 133.67 116.48 134.34 117.15 134.26L119.58 133.94V133.93ZM154.76 134.01C154.87 133.53 154.89 133.01 154.66 132.56L151.66 132.7L151.6 134.16C152.56 134.35 153.71 134.16 154.76 134.02V134.01ZM122.98 134.28C123.18 134.56 123.35 134.61 123.57 134.61C123.79 134.61 124.05 134.49 124.04 134.18L123.96 132.77L120.8 132.73C120.58 133.34 120.65 133.93 121.04 134.38C121.24 134.61 121.85 134.66 122.05 134.38C122.27 134.08 122.72 133.89 122.99 134.26L122.98 134.28ZM148.27 134.66C149.25 134.06 150.46 134.74 150.46 134.32L150.48 132.85L147.62 132.89C147.37 132.89 147.35 133.41 147.46 133.61C147.54 133.76 147.7 133.86 147.98 134.02C148.05 134.17 148.04 134.52 148.27 134.65V134.66ZM128.33 134.56C128.55 134.02 128.45 133.45 128.36 132.94L125.14 132.9C124.95 133.5 125.11 134.32 125.65 134.6C126.19 134.88 126.99 134.6 127.53 134.6C127.71 134.6 128.2 134.88 128.33 134.56ZM145.51 134.36C145.8 134.54 146.07 134.71 146.57 134.5L146.35 132.92L142.97 133.06L143.15 134.99C144.56 135.21 144.65 133.83 145.52 134.36H145.51ZM194.32 146.78C195.41 145.18 196.92 144.74 198.41 145.55C199.75 144.66 197.85 143.49 198.43 143.1C199.1 142.65 199.51 142.01 199.33 141.23C198.98 139.75 197.46 140.1 197.18 139.73C196.76 139.19 197.71 138.19 196.68 137.16C195.55 136.03 194.34 137.16 193.92 136.63C193.75 136.42 194.07 134.45 192.13 133.38C191.01 132.76 189.91 132.76 188.79 133.24C186.46 134.23 186.81 135.95 186.53 136.24C186.03 136.74 185.06 135.59 183.77 136.79C183.21 137.31 183.28 138.07 183.42 138.85C182.93 139.15 181.97 139.36 182.21 140.32L189.78 140.22C190.22 139.91 190.69 139.44 191.37 139.67C192.93 140.19 192.04 141.95 192.42 142.72C193.04 143.99 195.01 144.29 194.33 146.76L194.32 146.78ZM133.02 135.44C132.71 134.22 133.42 133.02 132.73 133.02L129.46 133.05L129.56 134.74C129.57 134.92 129.47 135.18 129.56 135.28C129.68 135.44 129.91 135.48 130.13 135.48L133.02 135.44ZM137.45 135.45C137.39 134.41 137.53 133.79 137.33 133.02L134.19 133.1C133.57 133.11 134.58 134.46 134.11 135.47L137.45 135.45ZM141.88 135.43L141.85 133.02L138.59 133.07C138.07 133.07 138.71 134.29 138.51 135.47L141.88 135.43ZM154.75 135.04C155.07 135.61 155.09 135.86 155.12 136.48L164.94 136.55C164.98 136.01 164.88 135.64 164.75 135.2L163.66 135.07C163.26 134.88 163.09 134.45 162.73 134.09C161.57 135.11 160.57 134.07 159.76 135.1C159.53 135.39 159.14 135.47 158.85 135.43C158.56 135.39 158.41 135.01 158.13 134.86C157.13 134.35 155.89 135 154.75 135.04ZM122.15 136.5L121.88 135.5C121.03 135.55 120.35 135.33 119.75 134.85L118.19 135.24L118.04 136.55L122.14 136.51L122.15 136.5ZM154.25 136.47C154.65 136.47 154.64 135.3 154.3 135.18C153.38 135.34 152.35 135.27 151.43 135.08C151.11 135.27 150.69 135.61 150.21 135.47C150.06 135.86 149.97 136.08 150.03 136.56L154.25 136.47ZM129.46 136.51C129.27 135.81 128.93 135.82 128.64 135.53C127.61 135.68 126.65 135.65 125.62 135.49L125.56 136.55L129.46 136.5V136.51ZM146.45 136.54C146.45 136.02 146.45 135.84 146.34 135.46L145 135.6C143.49 136.12 142.82 135.69 142.49 136.06C142.39 136.17 142.46 136.53 142.68 136.53H146.45V136.54ZM141.41 136.42C140.15 136.4 139.08 136.29 137.94 136.49C136.51 136.32 135.06 136.25 133.6 136.53C132.55 136.33 131.53 136.36 130.4 136.41V138.94L141.37 138.93L141.41 136.41V136.42ZM53.31 148.45C54.4 147.21 55.96 146.73 57.5 147.06C58.9 147.37 60.1 148.3 60.57 149.89C62.13 149.45 63.28 150.33 63.77 151.68C64.06 150.93 63.95 150.36 63.92 149.72C63.76 146 63.92 142.39 64.55 138.71C64.1 138.61 63.9 138.73 63.57 138.78C63.19 137.72 62.22 137.21 61.1 137.23C59.48 137.26 58.09 138.41 58.06 140.05C58.06 140.41 57.95 140.61 57.68 140.78C57.47 140.92 57.33 140.82 57.01 140.75C56.05 140.54 55.06 141.43 55.24 142.37C55.5 143.77 53.67 142.55 52.91 144.37C52.62 145.07 52.84 145.82 53.37 146.46C53.07 146.8 52.77 147.12 52.73 147.43C52.67 147.83 52.88 148.39 53.32 148.45H53.31ZM106.79 152.11L106.77 137.6C106.07 137.83 105.52 137.86 104.81 137.59V152.13L106.79 152.11ZM121.79 139.27C122 138.61 122.03 138.05 121.72 137.54L107.82 137.56C107.72 138.22 107.68 138.75 107.88 139.27H121.79ZM129.42 139.22L129.4 137.54L125.87 137.57C125.74 138.17 125.73 138.64 125.87 139.23H129.42V139.22ZM146.23 139.24C146.33 138.49 146.31 138.14 146.2 137.58H142.51C142.43 138.18 142.42 138.63 142.48 139.26H146.23V139.24ZM149.24 152.01V137.77C148.52 137.97 147.95 137.97 147.27 137.61V152.13C148.02 152.09 148.63 152.23 149.24 152.01ZM164.54 139.27C164.67 138.59 164.7 138.07 164.48 137.52L150.38 137.57C150.2 138.17 150.13 138.85 150.48 139.28H164.54V139.27ZM167.54 152.1V137.73C166.81 137.94 166.26 137.81 165.56 137.57L165.61 152.1C166.31 152.19 166.86 152.22 167.55 152.1H167.54ZM124.89 152.01L124.84 137.72C124.11 137.99 123.65 137.92 122.93 137.77V152.14C123.68 152.16 124.31 152.3 124.89 152.01ZM146.16 141.04C146.39 140.56 146.22 140.27 146.09 140.19C145.96 140.11 145.76 140.16 145.53 140.16H126.06C125.79 140.16 125.77 140.87 125.94 140.94H130.14L146.15 141.04H146.16ZM121.76 141.24C122 140.92 121.96 140.61 121.82 140.29H107.84C107.79 140.68 107.76 140.95 107.9 141.21L121.77 141.24H121.76ZM164.36 141.19C164.66 141.19 164.6 140.26 164.29 140.26L150.52 140.29C150.18 140.29 150.17 141.21 150.52 141.21L164.37 141.19H164.36ZM103.61 142.62C103.9 142.15 103.85 141.8 103.7 141.35L83.58 141.33L82.84 140.66C82.67 140.5 82.37 141.02 82.4 141.26L82.55 142.61H84.17H103.62L103.61 142.62ZM168.76 142.61H191.06C191.39 142 191.44 141.23 191.05 140.61L190.31 141.33H168.69C168.53 141.79 168.47 142.15 168.77 142.61H168.76ZM128.88 152.21L128.85 141.97H125.86L125.87 152.3L128.87 152.21H128.88ZM134.34 152.2L134.3 141.95L129.81 141.97V152.24L134.34 152.2ZM136.86 152.09L136.83 142.01C136.27 141.89 135.79 141.9 135.3 142.01L135.28 152.16C135.78 152.35 136.3 152.39 136.86 152.09ZM142.48 152.17V141.96H137.76V152.25L142.48 152.17ZM146.25 152.17V141.97H143.47V152.3C144.48 152.26 145.34 152.47 146.25 152.16V152.17ZM111.65 151.24L111.63 142.12H107.82V151.3L111.66 151.25L111.65 151.24ZM121.91 151.23V142.17H119.55C119.32 142.17 119.26 142.72 119.26 142.94V151.24C120.16 151.32 120.96 151.37 121.91 151.22V151.23ZM152.92 151.22V142.16L150.28 142.15V151.28L152.92 151.22ZM164.57 151.24L164.54 142.13H160.58V151.26L164.56 151.24H164.57ZM118.28 151.15L118.2 142.23L112.66 142.26V151.19L118.28 151.14V151.15ZM159.63 151.14L159.56 142.27H153.96V151.2L159.63 151.14ZM82.54 144.79C82.75 144.44 83.43 144.76 83.55 145.13C84.03 144.65 84.2 144.26 84.43 143.63L81.8 143.69L81.58 144.87C81.11 144.76 80.7 144.83 80.42 145.13C80.21 145.36 80.01 145.92 80.42 146.15C81.2 146.59 82.35 146.51 83.06 146.05C82.81 145.66 82.31 145.2 82.55 144.79H82.54ZM87.17 145.24L87.92 143.63H85.71C85.44 143.64 85.18 143.99 85.23 144.41C86.11 144.32 86.65 144.75 87.18 145.24H87.17ZM90.61 145.23L91.25 143.64L89.04 143.68C88.83 143.68 88.67 144.23 88.7 144.54C89.48 144.55 89.98 144.76 90.62 145.24L90.61 145.23ZM100.44 145.15C100.68 144.58 100.69 144.19 100.74 143.63L97.84 143.67C97.72 144.13 97.56 144.47 97.66 145C98.58 144.23 99.55 144.21 100.45 145.15H100.44ZM177.94 146.15L177.16 143.64H174.9C174.99 144.23 175.05 144.66 175.25 145.17C175.6 144.96 175.89 144.91 176.12 145.06C176.3 145.18 176.4 145.56 176.12 145.73L175.8 145.93C175.42 146.17 176.54 146.72 177.93 146.15H177.94ZM180.95 144.56C181.08 144.03 180.79 143.67 180.62 143.67L178.3 143.63C178.3 144.26 178.48 144.74 178.81 145.29C179.37 144.65 180.07 144.47 180.95 144.56ZM184.6 144.49C184.71 143.98 184.41 143.63 184.09 143.63H181.69L182.37 145.46C182.92 144.56 183.77 144.26 184.6 144.49ZM188.32 144.48C188.41 144.22 188.22 143.68 188 143.67L185.39 143.63L186.18 145.36C186.82 144.69 187.45 144.22 188.32 144.47V144.48ZM192.13 144.22C191.9 143.55 191.45 143.58 191.04 143.6L189.18 143.66C189.37 144.27 189.56 144.74 190 145.28C190.49 144.51 191.21 144.29 192.13 144.21V144.22ZM205.19 147.02C204.77 146.29 204.18 146.05 204 145.42C203.91 145.05 204.26 144.52 203.87 144.08H199.79C199.92 144.69 199.85 145.12 199.73 145.78C201.3 145.11 202.94 145.53 204.08 146.68C204.41 147.01 204.77 147.39 205.19 147.02ZM192.9 146.3C193.36 146.17 193.47 145.79 193.34 145.45C193.25 145.23 193.07 144.98 192.69 144.96C191.83 144.92 190.94 145.32 190.52 146.11C191.24 146.54 192.1 146.53 192.9 146.3ZM97.49 157.04C97.78 156.38 97.24 154.66 98.29 154.66L103 154.64C103.1 153.91 103.02 153.27 103.33 152.67C103.42 152.49 103.78 152.32 103.78 152.01L103.76 147.42H81.92L81.98 153.76C82.2 154.33 82.76 154.9 82.69 155.64C84.14 155.47 85.21 156.11 85.94 157.3C86.5 156.78 87.1 156.78 87.69 156.8C88.58 155.72 89.94 155.21 91.36 155.53C92.61 155.81 93.68 156.81 94.09 158.15C94.28 158.39 95.11 158.33 95.23 158.07C95.88 156.71 97.3 157.49 97.49 157.04ZM176.53 156.66C177.35 154.93 179.09 154.12 180.86 154.42C182.49 154.7 183.9 155.95 184.15 157.81C185.4 157.2 186.45 157.61 187.54 158.35C187.77 156.59 189.14 155.64 190.77 155.91C190.92 155.3 191.4 154.78 191.67 154.29L191.65 147.41L168.58 147.43L168.62 152.19C169.72 153.11 169.04 153.99 169.53 154.64H173.61C174.07 154.66 174.31 155.06 174.32 155.48L174.35 157.14C175.05 156.69 175.69 156.63 176.5 156.67L176.53 156.66ZM56.75 155.55C56.72 155.18 57.03 155.07 57.23 155.09C57.46 155.11 57.64 155.24 57.68 155.52L58.1 158.9L59.19 156.88C59.3 156.68 59.65 156.76 59.8 156.84C60.61 157.26 59.38 157.86 59.06 159.35C59.66 159.35 60.55 159.55 60.97 159.12L61.87 158.19C63.06 156.96 63.69 155.37 63.87 153.66L62.65 153.26C62.99 152.49 62.8 151.72 62.34 151.25C61.71 150.62 60.92 150.77 60.21 151.08C59.68 151.31 59.59 150.55 59.52 150.22C59.13 148.54 57.29 147.77 55.69 148.17C53.26 148.79 53.59 151.01 53.24 151.3C52.94 151.55 51.23 151.05 50.41 152.62C49.47 154.42 50.95 155.48 50.67 156.01C50.39 156.54 48.92 156.16 48.16 157.49C47.84 158.06 47.78 158.65 48.11 159.26C48.33 159.66 48.82 159.99 49.43 160.17C49.38 160.51 49.27 160.76 49.44 161.08L56.35 159.79C55.79 158.54 54.38 158.24 54.87 157.61C55.36 156.98 56.21 157.99 57.06 158.89L56.74 155.54L56.75 155.55ZM121.12 154.63C121.1 153.58 121.26 153.04 121.57 152.26L108.04 152.28C108.77 153.22 108.22 154.09 108.67 154.64H121.12V154.63ZM163.9 154.64C163.88 153.58 163.93 153.02 164.3 152.28H150.52C150.9 153.01 150.97 153.67 151.02 154.61L163.91 154.64H163.9ZM107.48 154.64C107.61 154.19 107.6 153.46 107.32 153.21C106.33 153.06 105.3 153.09 104.3 153.21C104.01 153.46 103.98 154.19 104.12 154.64H107.48ZM125.57 154.67C125.6 154.1 125.57 153.7 125.44 153.18L122.29 153.16C122.14 153.69 122.12 154.08 122.11 154.65H125.57V154.67ZM149.99 154.66L149.78 153.16L146.74 153.2C146.45 153.44 146.42 154.19 146.57 154.65H149.99V154.66ZM168.37 154.64C168.47 154.17 168.42 153.39 168.08 153.19C167.1 153.07 166.15 153.06 165.15 153.19C164.81 153.38 164.8 154.3 164.96 154.64H168.36H168.37ZM145.43 154.65C145.56 153.92 145.56 153.67 145.45 153.28H126.54C126.52 153.8 126.53 154.16 126.66 154.64H145.43V154.65ZM114.35 155.63H105.32H101.5L98.7 155.6C98.53 156.13 98.5 156.62 98.7 157.24L127.08 157.22C127.5 156.74 127.47 156.15 127.25 155.64L114.34 155.62L114.35 155.63ZM143.61 155.75C143.07 155.4 142.4 155.68 141.88 155.68L133.73 155.63L128.48 155.65C128.32 156.13 128.27 156.63 128.44 157.15H138.91L143.74 157.18C143.86 156.76 143.94 155.97 143.62 155.76L143.61 155.75ZM162.3 155.65L157.94 155.63H154.77L151.72 155.64H147.69L144.87 155.7C144.82 156.25 144.78 156.67 144.95 157.24L173.31 157.22C173.48 156.62 173.45 156.15 173.28 155.64H166.88H162.3V155.65ZM144.48 159.6C144.66 159.08 144.67 158.52 144.35 158.1H127.74C127.38 158.52 127.34 159.26 127.7 159.6H144.48ZM145.61 162.02C145.93 161.78 145.85 160.57 145.41 160.57H126.38C126.16 161.15 126.15 161.6 126.37 162.18H141.6L145.61 162.03V162.02Z" fill="#BFB85E"/>
<path d="M168.82 97.46C166.68 95.17 164.64 92.92 162.23 90.93C156.85 86.49 152.17 87.9 147.01 91.99C144.55 93.94 142.27 95.98 140.05 98.19C139.74 98.5 139.7 98.99 139.11 98.88C136.91 98.47 134.73 98.88 132.72 99.87C131.41 100.51 130.21 101.23 129.08 102.15L123.91 106.35L116.96 112.08C116.72 112.28 116.41 112.32 116.19 112.13C116.03 111.99 115.9 111.52 116.17 111.3C119.21 108.94 122.08 106.52 124.98 103.98C129.28 100.51 133.23 96.98 138.96 97.68C141.52 95.25 143.92 92.97 146.64 90.9C148.23 89.69 149.79 88.63 151.63 87.91C154.88 86.59 158.36 86.95 161.28 88.89C163.01 89.97 164.44 91.28 165.86 92.75L172.43 99.59C177.5 98.47 181.23 99.68 185.09 102.97C186.91 104.53 188.4 106.24 190.03 108L197.09 115.59C200.02 118.73 205.1 122.54 209.05 124.34C209.35 124.48 209.41 124.77 209.34 125.01C209.26 125.3 208.93 125.52 208.58 125.36C201.61 122.11 196.39 116.72 191.3 111.11L186.77 106.12C185.22 104.41 183.51 103.02 181.52 101.84C179.11 100.42 176.42 99.95 173.65 100.48C173.03 100.6 172.44 100.81 171.82 100.69L168.82 97.48V97.46Z" fill="#BFB85E"/>
<path d="M182.35 118C177.9 115.09 174.36 117.77 170.66 120.14L169.09 121.15C168.82 121.33 168.6 121.33 168.36 121.13C168.2 121 168.01 120.62 168.33 120.41L171.58 118.23C172.92 117.34 174.3 116.53 175.83 116.05C178.44 115.23 181.13 115.71 183.31 117.28L187.75 120.87C190.5 123.09 193.14 125.33 196.27 127C196.61 127.18 196.79 127.33 196.67 127.72C196.6 127.93 196.25 128.18 195.94 128.02C192.83 126.42 190.2 124.25 187.46 122.07L182.36 118.02L182.35 118Z" fill="#BFB85E"/>
<path d="M79.44 165.42C78.87 165.24 78.84 165.28 78.35 165.42C77.45 165.7 75.04 165.71 74.94 165.19C74.9 164.98 75.05 164.63 75.33 164.63L77.48 164.59C76.89 163.26 75.69 162.61 76.31 162.15C76.52 161.99 76.85 161.98 77.03 162.22L78.19 163.77L78.29 160.8C78.29 160.51 78.5 160.31 78.75 160.26C78.94 160.23 79.27 160.42 79.27 160.69L79.36 163.77L80.65 162.16C80.82 161.95 81.11 161.98 81.32 162.07C82.2 162.48 80.64 163.18 80.14 164.55H82.75C82.87 164.72 82.87 165.36 82.57 165.42C81.63 165.61 80.43 165.71 79.47 165.41L79.44 165.42Z" fill="#BFB85E"/>
<path d="M64.91 165.46C64.91 165.74 64.61 165.79 64.48 165.81C64.31 165.83 63.94 165.78 63.94 165.52L63.9 163.35C63.9 163.04 64.14 162.86 64.39 162.83C64.59 162.81 64.9 163.01 64.91 163.3V165.46Z" fill="#BFB85E"/>
<path d="M157.97 165.46C157.97 165.77 157.61 165.83 157.45 165.8C157.25 165.76 157 165.62 157 165.34V163.29C157.01 163.02 157.35 162.8 157.53 162.81C157.78 162.83 158.02 163.03 158.02 163.33L157.97 165.45V165.46Z" fill="#BFB85E"/>
<path d="M112.37 165.2C112.37 165.6 112.04 165.82 111.81 165.8C111.48 165.76 111.31 165.51 111.32 165.15L111.35 163.22C111.35 162.97 111.71 162.79 111.88 162.84C112.11 162.91 112.38 163.1 112.38 163.37V165.21L112.37 165.2Z" fill="#BFB85E"/>
<path d="M195.91 164.57C195.9 164.89 195.54 164.94 195.35 164.92C195.1 164.89 194.91 164.68 194.91 164.35V162.5C194.91 162.16 195.23 161.99 195.48 162C195.79 162 195.99 162.2 195.98 162.58L195.92 164.58L195.91 164.57Z" fill="#BFB85E"/>
<path d="M92.56 166.31C92.56 166.64 92.37 166.85 92.12 166.88C91.81 166.91 91.52 166.72 91.52 166.34L91.55 164.31C91.55 164.04 91.92 163.97 92.11 164C92.36 164.05 92.57 164.24 92.57 164.58L92.55 166.31H92.56Z" fill="#BFB85E"/>
<path d="M110.15 166.03L109.03 164.66C108.87 164.47 108.92 164.18 109.03 164.07C109.72 163.38 111.09 165.21 110.79 165.81C110.71 165.97 110.34 166.27 110.14 166.03H110.15Z" fill="#BFB85E"/>
<path d="M198.23 163.76C197.46 164.67 197.3 165.41 196.77 165.18C196.15 164.91 196.65 163.88 197.53 163.07C197.72 162.89 198.01 162.96 198.16 163.07C198.34 163.21 198.42 163.53 198.23 163.76Z" fill="#BFB85E"/>
<path d="M193.54 164.99L192.51 163.5C192.33 163.24 192.99 162.8 193.29 163.03C194.2 163.75 194.79 164.82 194.17 165.17C194.03 165.25 193.7 165.22 193.54 164.99Z" fill="#BFB85E"/>
<path d="M90.1 166.89C89.44 165.75 88.88 165.65 89.27 165.14C89.44 164.91 89.74 164.86 90 165.1C90.74 165.79 91.33 166.6 90.86 167.04C90.67 167.22 90.3 167.23 90.1 166.88V166.89Z" fill="#BFB85E"/>
<path d="M155.78 166.02C155.45 165.62 155.32 165.13 154.9 164.86C154.64 164.69 154.56 164.4 154.71 164.12C154.83 163.9 155.18 163.76 155.47 164C156.19 164.59 156.78 165.47 156.4 165.92C156.3 166.04 155.97 166.24 155.79 166.02H155.78Z" fill="#BFB85E"/>
<path d="M62.23 164.05C63.03 164.51 63.81 165.68 63.15 166.05C62.55 166.39 62.5 165.46 61.67 164.87C61.44 164.71 61.43 164.43 61.51 164.25C61.61 164.01 61.95 163.88 62.23 164.04V164.05Z" fill="#BFB85E"/>
<path d="M67.13 164.71C66.43 165.61 66.31 166.06 65.87 166.03C65.67 166.02 65.4 165.89 65.42 165.6C65.47 164.92 66.42 163.69 66.95 163.94C67.19 164.05 67.33 164.46 67.13 164.72V164.71Z" fill="#BFB85E"/>
<path d="M113.82 165.7C113.7 166.06 113.33 166.06 113.09 165.94C112.57 165.69 112.96 164.75 113.76 164.03C114.02 163.79 114.33 163.85 114.51 164.07C114.95 164.62 114.14 164.78 113.82 165.7Z" fill="#BFB85E"/>
<path d="M160.13 164.78C159.53 165.27 159.53 166.04 159.04 166.11C158.87 166.14 158.48 165.88 158.5 165.61C158.56 164.84 159.67 163.42 160.19 164.04C160.34 164.22 160.37 164.58 160.13 164.78Z" fill="#BFB85E"/>
<path d="M94.7 165.81C94.01 166.54 93.98 167.44 93.35 167.09C92.72 166.74 93.49 165.44 94.1 165.08C94.32 164.95 94.65 165.02 94.78 165.2C94.88 165.34 94.89 165.61 94.7 165.81Z" fill="#BFB85E"/>
<path d="M68.26 151.92C68.27 152.26 68.29 152.56 68.11 152.72C67.98 152.83 67.72 152.86 67.51 152.76C67.08 152.54 67.35 151.81 67.27 150.42L67.08 147.06C67.06 146.73 67.29 146.51 67.53 146.49C67.82 146.47 68.08 146.68 68.1 147.06L68.26 151.93V151.92Z" fill="#BFB85E"/>
<path d="M71.73 149.17C71.82 149.48 71.65 149.71 71.43 149.85C71.29 149.95 70.91 150.05 70.81 149.69C70.29 147.96 70.02 146.15 70.05 144.31C70.05 143.97 70.9 143.95 70.92 144.24C71.08 145.92 71.26 147.54 71.72 149.17H71.73Z" fill="#BFB85E"/>
<path d="M71.65 134.95C71.55 135.66 71.5 136.38 70.99 136.96C70.65 136.3 70.49 135.64 70.61 135.01L71.15 132.22C71.2 131.99 71.96 132.05 72.01 132.29L71.65 134.95Z" fill="#BFB85E"/>
</svg>
